<?xml version="1.0" standalone="no"?>
<!DOCTYPE svg PUBLIC "-//W3C//DTD SVG 20010904//EN"
 "http://www.w3.org/TR/2001/REC-SVG-20010904/DTD/svg10.dtd">
<svg version="1.0" xmlns="http://www.w3.org/2000/svg"
 width="326.000000pt" height="326.000000pt" viewBox="0 0 326.000000 326.000000"
 preserveAspectRatio="xMidYMid meet">
<metadata>
Created by potrace 1.11, written by Peter Selinger 2001-2013
</metadata>
<g transform="translate(0.000000,326.000000) scale(0.100000,-0.100000)"
fill="#000000" stroke="none">
<path d="M1522 2280 c-46 -21 -72 -61 -76 -120 -6 -77 52 -153 109 -144 79 12
101 13 112 6 30 -19 34 -70 34 -409 0 -291 -3 -348 -16 -373 l-16 -30 -77 5
c-67 5 -80 3 -100 -14 -48 -42 -61 -136 -27 -200 25 -49 67 -61 175 -53 103 7
254 8 422 1 l108 -4 32 33 c31 31 33 36 33 107 0 68 -2 76 -30 105 -29 31 -31
32 -97 26 -106 -10 -103 -23 -105 384 l-1 335 25 -55 c33 -71 191 -431 299
-680 47 -107 96 -206 110 -220 24 -25 27 -25 209 -27 170 -2 186 0 209 18 14
11 28 34 31 52 3 18 6 242 7 499 3 465 3 468 25 489 20 20 26 21 72 12 69 -14
96 -7 131 34 26 29 30 42 30 89 0 92 -49 146 -134 147 -33 1 -247 -12 -266
-16 -3 -1 -52 3 -110 7 -58 5 -118 10 -135 11 -69 5 -131 -44 -141 -112 -14
-93 40 -176 108 -165 125 19 121 29 123 -376 0 -177 -2 -317 -6 -310 -4 7 -86
205 -182 440 -194 471 -196 475 -227 503 -20 18 -32 19 -109 15 -124 -7 -333
-6 -427 2 -67 5 -88 3 -122 -12z"/>
<path d="M657 1970 c-62 -19 -115 -54 -159 -104 l-28 -31 0 46 c0 25 -5 50
-12 57 -8 8 -58 12 -158 12 -168 0 -190 -8 -190 -65 0 -53 32 -69 118 -60 68
7 68 6 81 -22 10 -22 13 -128 12 -478 -2 -494 -5 -570 -23 -592 -9 -11 -27
-13 -83 -8 -60 6 -74 4 -88 -10 -24 -23 -22 -78 4 -101 23 -21 57 -22 195 -9
48 4 124 3 188 -4 135 -15 159 -7 164 55 5 63 -14 77 -97 68 -98 -9 -103 -1
-109 173 -4 149 -6 145 48 94 69 -66 260 -92 379 -51 214 72 327 280 314 578
-10 249 -140 423 -343 462 -77 15 -147 11 -213 -10z m228 -140 c105 -40 168
-188 164 -384 -5 -253 -109 -389 -299 -390 -66 -1 -82 3 -130 30 -115 65 -140
131 -135 359 3 116 8 165 24 215 49 157 215 232 376 170z"/>
</g>
</svg>
