<?xml version="1.0" encoding="UTF-8" standalone="no"?>
<svg
   xmlns:dc="http://purl.org/dc/elements/1.1/"
   xmlns:cc="http://creativecommons.org/ns#"
   xmlns:rdf="http://www.w3.org/1999/02/22-rdf-syntax-ns#"
   xmlns:svg="http://www.w3.org/2000/svg"
   xmlns="http://www.w3.org/2000/svg"
   xmlns:sodipodi="http://sodipodi.sourceforge.net/DTD/sodipodi-0.dtd"
   xmlns:inkscape="http://www.inkscape.org/namespaces/inkscape"
   version="1.0"
   width="132.51036pt"
   height="167.69814pt"
   viewBox="0 0 132.51036 167.69814"
   preserveAspectRatio="xMidYMid meet"
   id="svg170"
   sodipodi:docname="angular.svg"
   inkscape:version="0.92.2 5c3e80d, 2017-08-06">
  <defs
     id="defs174" />
  <sodipodi:namedview
     pagecolor="#ffffff"
     bordercolor="#666666"
     borderopacity="1"
     objecttolerance="10"
     gridtolerance="10"
     guidetolerance="10"
     inkscape:pageopacity="0"
     inkscape:pageshadow="2"
     inkscape:window-width="1418"
     inkscape:window-height="801"
     id="namedview172"
     showgrid="false"
     inkscape:zoom="1.7824983"
     inkscape:cx="88.555085"
     inkscape:cy="109.97143"
     inkscape:window-x="0"
     inkscape:window-y="0"
     inkscape:window-maximized="0"
     inkscape:current-layer="flowRoot176" />
  <metadata
     id="metadata162">
Created by potrace 1.15, written by Peter Selinger 2001-2017
<rdf:RDF>
  <cc:Work
     rdf:about="">
    <dc:format>image/svg+xml</dc:format>
    <dc:type
       rdf:resource="http://purl.org/dc/dcmitype/StillImage" />
    <dc:title></dc:title>
  </cc:Work>
</rdf:RDF>
</metadata>
  <g
     transform="matrix(0.11393853,0,0,-0.11135639,-16.15254,166.92367)"
     id="g168"
     style="fill:#000000;stroke:none">
    <path
       d="M 500,1426 C 184,1314 147,1300 142,1295 c -4,-4 44,-423 79,-690 l 11,-80 234,-128 c 129,-71 242,-131 252,-133 9,-2 124,56 257,130 239,133 240,134 247,172 4,22 19,138 33,259 14,121 32,276 41,344 8,68 11,127 7,131 -12,11 -565,200 -583,199 -8,0 -107,-33 -220,-73 z m 279,-138 c 27,-57 72,-152 101,-213 28,-60 74,-158 101,-217 26,-58 67,-143 89,-189 22,-45 40,-84 40,-86 0,-2 -32,-3 -71,-1 l -71,3 -38,90 -38,90 -160,3 -159,2 -18,-42 c -10,-24 -28,-67 -41,-95 l -23,-53 h -67 c -58,0 -66,2 -62,18 12,41 353,792 361,792 4,0 30,-46 56,-102 z"
       id="path164"
       inkscape:connector-curvature="0" />
    <path
       d="m 711,1094 c -14,-30 -65,-151 -82,-191 -8,-23 -8,-23 96,-23 78,0 105,3 105,13 -1,6 -24,61 -53,121 l -52,109 z"
       id="path166"
       inkscape:connector-curvature="0" />
  </g>
  <g
     aria-label="ANGULAR"
     transform="matrix(0.75000001,0,0,0.75000001,-4.5836864,-0.57286348)"
     style="font-style:normal;font-weight:normal;font-size:36px;line-height:1.25;font-family:sans-serif;text-align:center;letter-spacing:0px;word-spacing:0px;text-anchor:middle;fill:#000000;fill-opacity:1;stroke:none"
     id="flowRoot176">
    <path
       d="m 18.744141,201.10547 -4.816407,13.06055 h 9.650391 z m -2.003907,-3.49805 h 4.025391 l 10.001953,26.24414 h -3.691406 l -2.390625,-6.73242 H 12.855469 l -2.390625,6.73242 H 6.7207031 Z"
       style="font-size:36px;text-align:center;text-anchor:middle"
       id="path209" />
    <path
       d="m 34.582031,197.60742 h 4.78125 L 51,219.5625 v -21.95508 h 3.445312 v 26.24414 h -4.78125 L 38.027344,201.89648 v 21.95508 h -3.445313 z"
       style="font-size:36px;text-align:center;text-anchor:middle"
       id="path211" />
    <path
       d="m 79.40625,220.10742 v -7.04883 h -5.800781 v -2.91797 h 9.316406 v 11.26758 q -2.056641,1.45899 -4.535156,2.21485 -2.478516,0.73828 -5.291016,0.73828 -6.152344,0 -9.632812,-3.58594 Q 60,217.17187 60,210.75586 q 0,-6.43359 3.462891,-10.01953 3.480468,-3.60352 9.632812,-3.60352 2.566406,0 4.869141,0.63281 2.320312,0.63282 4.271484,1.86329 v 3.77929 q -1.96875,-1.66992 -4.183594,-2.51367 -2.214843,-0.84375 -4.658203,-0.84375 -4.816406,0 -7.242187,2.68945 -2.408203,2.68946 -2.408203,8.01563 0,5.30859 2.408203,7.99805 2.425781,2.68945 7.242187,2.68945 1.88086,0 3.357422,-0.31641 1.476563,-0.33398 2.654297,-1.01953 z"
       style="font-size:36px;text-align:center;text-anchor:middle"
       id="path213" />
    <path
       d="m 89.021484,197.60742 h 3.56836 v 15.94336 q 0,4.21875 1.529297,6.08203 1.529296,1.84571 4.957031,1.84571 3.410158,0 4.939458,-1.84571 1.52929,-1.86328 1.52929,-6.08203 v -15.94336 h 3.56836 v 16.38281 q 0,5.13282 -2.54883,7.75196 -2.53125,2.61914 -7.488278,2.61914 -4.97461,0 -7.523438,-2.61914 -2.53125,-2.61914 -2.53125,-7.75196 z"
       style="font-size:36px;text-align:center;text-anchor:middle"
       id="path215" />
    <path
       d="m 115.79297,197.60742 h 3.55078 v 23.25586 h 12.7793 v 2.98828 h -16.33008 z"
       style="font-size:36px;text-align:center;text-anchor:middle"
       id="path217" />
    <path
       d="m 145.44727,201.10547 -4.81641,13.06055 h 9.65039 z m -2.00391,-3.49805 h 4.02539 l 10.00195,26.24414 h -3.6914 l -2.39063,-6.73242 h -11.83008 l -2.39062,6.73242 h -3.74414 z"
       style="font-size:36px;text-align:center;text-anchor:middle"
       id="path219" />
    <path
       d="m 173.73047,211.54687 q 1.14258,0.38672 2.21484,1.65235 1.08985,1.26562 2.17969,3.48047 l 3.60352,7.17187 h -3.81446 l -3.35742,-6.73242 q -1.30078,-2.63672 -2.53125,-3.49805 -1.21289,-0.86132 -3.32227,-0.86132 h -3.86718 v 11.09179 h -3.55078 v -26.24414 h 8.01562 q 4.5,0 6.71484,1.88086 2.21485,1.88086 2.21485,5.67774 0,2.47851 -1.16016,4.11328 -1.14258,1.63476 -3.33984,2.26757 z m -8.89453,-11.02148 v 9.31641 h 4.46484 q 2.56641,0 3.86719,-1.17774 1.31836,-1.19531 1.31836,-3.49804 0,-2.30274 -1.31836,-3.4629 -1.30078,-1.17773 -3.86719,-1.17773 z"
       style="font-size:36px;text-align:center;text-anchor:middle"
       id="path221" />
  </g>
</svg>
