<?xml version="1.0" encoding="UTF-8" standalone="no"?>
<svg
   xmlns:dc="http://purl.org/dc/elements/1.1/"
   xmlns:cc="http://creativecommons.org/ns#"
   xmlns:rdf="http://www.w3.org/1999/02/22-rdf-syntax-ns#"
   xmlns:svg="http://www.w3.org/2000/svg"
   xmlns="http://www.w3.org/2000/svg"
   xmlns:sodipodi="http://sodipodi.sourceforge.net/DTD/sodipodi-0.dtd"
   xmlns:inkscape="http://www.inkscape.org/namespaces/inkscape"
   version="1.0"
   width="132.04395pt"
   height="166.91501pt"
   viewBox="0 0 132.04394 166.91501"
   preserveAspectRatio="xMidYMid meet"
   id="svg170"
   sodipodi:docname="cordova.svg"
   inkscape:version="0.92.2 5c3e80d, 2017-08-06">
  <defs
     id="defs174" />
  <sodipodi:namedview
     pagecolor="#ffffff"
     bordercolor="#666666"
     borderopacity="1"
     objecttolerance="10"
     gridtolerance="10"
     guidetolerance="10"
     inkscape:pageopacity="0"
     inkscape:pageshadow="2"
     inkscape:window-width="1418"
     inkscape:window-height="801"
     id="namedview172"
     showgrid="false"
     inkscape:zoom="1.7824983"
     inkscape:cx="88.409992"
     inkscape:cy="110.32489"
     inkscape:window-x="0"
     inkscape:window-y="0"
     inkscape:window-maximized="0"
     inkscape:current-layer="svg170" />
  <metadata
     id="metadata162">
Created by potrace 1.15, written by Peter Selinger 2001-2017
<rdf:RDF>
  <cc:Work
     rdf:about="">
    <dc:format>image/svg+xml</dc:format>
    <dc:type
       rdf:resource="http://purl.org/dc/dcmitype/StillImage" />
    <dc:title></dc:title>
  </cc:Work>
</rdf:RDF>
</metadata>
  <g
     id="g376"
     transform="matrix(0.50352731,0,0,0.48849933,1.3888723,0)">
    <path
       id="path374"
       d="m 232.72727,244.36364 h -41.45454 l 2.90909,-34.9091 h -20.36364 l -2.90909,34.9091 H 85.090909 l -2.909091,-34.9091 H 61.818182 l 2.909091,34.9091 H 23.272727 L 0,93.090909 58.181818,0 H 197.81818 L 256,93.090909 Z M 186.18182,46.545454 H 148.77891 L 151.27273,64 h -46.54546 l 2.49382,-17.454546 H 69.818182 L 46.545454,93.090909 58.181818,186.18182 H 197.81818 L 209.45454,93.090909 Z M 165.81818,155.28727 C 162.60509,155.28727 160,145.59709 160,133.64364 160,121.69018 162.60509,112 165.81818,112 c 3.21309,0 5.81818,9.69018 5.81818,21.64364 0,11.95345 -2.60509,21.64363 -5.81818,21.64363 z m -73.454544,1.80364 c -3.21309,0 -5.818181,-9.69018 -5.818181,-21.64364 0,-11.95345 2.605091,-21.64363 5.818181,-21.64363 3.213091,0 5.818182,9.69018 5.818182,21.64363 0,11.95346 -2.605091,21.64364 -5.818182,21.64364 z"
       inkscape:connector-curvature="0"
       style="fill:#444444" />
  </g>
  <g
     aria-label="CORDOVA"
     style="font-style:normal;font-weight:normal;font-size:30px;line-height:1.25;font-family:sans-serif;letter-spacing:0px;word-spacing:0px;fill:#000000;fill-opacity:1;stroke:none;stroke-width:0.75"
     id="text390">
    <path
       d="m 15.462891,146.8945 v 3.50391 q -2.564453,-2.14551 -5.306641,-2.14551 -3.0214844,0 -5.0908203,2.1709 -2.0820313,2.1582 -2.0820313,5.28125 0,3.08496 2.0820313,5.20508 2.0820312,2.12011 5.1035153,2.12011 1.561524,0 2.653321,-0.50781 0.609375,-0.25391 1.256836,-0.68555 0.660156,-0.43164 1.383789,-1.04101 v 3.56738 q -2.539063,1.43457 -5.332032,1.43457 -4.2021481,0 -7.1728512,-2.93262 Q 0,159.9072 0,155.73044 q 0,-3.74512 2.4755859,-6.67774 3.046875,-3.59277 7.8837891,-3.59277 2.640625,0 5.103516,1.43457 z"
       style="font-style:normal;font-variant:normal;font-weight:normal;font-stretch:normal;font-size:26px;font-family:Futura;-inkscape-font-specification:Futura;stroke-width:0.75"
       id="path396" />
    <path
       d="m 18.128906,155.5527 q 0,-4.13867 3.03418,-7.10937 3.021484,-2.9707 7.261719,-2.9707 4.189453,0 7.185547,2.99609 3.008789,2.99609 3.008789,7.19824 0,4.22754 -3.021485,7.17285 -3.034179,2.95801 -7.325195,2.95801 -3.795899,0 -6.817383,-2.62793 -3.326172,-2.90723 -3.326172,-7.61719 z m 2.983399,0.0381 q 0,3.25 2.183593,5.34473 2.170899,2.09472 5.014649,2.09472 3.084961,0 5.205078,-2.13281 2.120117,-2.1582 2.120117,-5.25586 0,-3.13574 -2.094726,-5.25586 -2.082032,-2.13281 -5.154297,-2.13281 -3.059571,0 -5.166992,2.13281 -2.107422,2.10742 -2.107422,5.20508 z"
       style="font-style:normal;font-variant:normal;font-weight:normal;font-stretch:normal;font-size:26px;font-family:Futura;-inkscape-font-specification:Futura;stroke-width:0.75"
       id="path398" />
    <path
       d="m 49.003906,157.08884 6.06836,8.35351 h -3.618164 l -5.598633,-8.02344 h -0.533203 v 8.02344 h -2.958008 v -19.60156 h 3.46582 q 3.884766,0 5.611328,1.45996 1.904297,1.625 1.904297,4.29102 0,2.08203 -1.193359,3.58007 -1.19336,1.49805 -3.148438,1.917 z m -3.68164,-2.24707 h 0.939453 q 4.202148,0 4.202148,-3.21192 0,-3.00879 -4.08789,-3.00879 h -1.053711 z"
       style="font-style:normal;font-variant:normal;font-weight:normal;font-stretch:normal;font-size:26px;font-family:Futura;-inkscape-font-specification:Futura;stroke-width:0.75"
       id="path400" />
    <path
       d="m 58.004883,165.44235 v -19.60156 h 4.113281 q 2.958008,0 4.671875,0.58398 1.84082,0.57129 3.338867,1.94239 3.03418,2.76758 3.03418,7.27441 0,4.51953 -3.161133,7.3125 -1.586914,1.39649 -3.326172,1.94238 -1.625,0.5459 -4.608398,0.5459 z m 2.958008,-2.78027 h 1.333007 q 1.993164,0 3.313477,-0.41895 1.320312,-0.44433 2.386719,-1.40918 2.183593,-1.99316 2.183593,-5.19238 0,-3.22461 -2.158203,-5.23047 -1.942382,-1.79004 -5.725586,-1.79004 h -1.333007 z"
       style="font-style:normal;font-variant:normal;font-weight:normal;font-stretch:normal;font-size:26px;font-family:Futura;-inkscape-font-specification:Futura;stroke-width:0.75"
       id="path402" />
    <path
       d="m 75.917969,155.5527 q 0,-4.13867 3.034179,-7.10937 3.021485,-2.9707 7.261719,-2.9707 4.189453,0 7.185547,2.99609 3.008789,2.99609 3.008789,7.19824 0,4.22754 -3.021484,7.17285 -3.03418,2.95801 -7.325196,2.95801 -3.795898,0 -6.817382,-2.62793 -3.326172,-2.90723 -3.326172,-7.61719 z m 2.983398,0.0381 q 0,3.25 2.183594,5.34473 2.170898,2.09472 5.014648,2.09472 3.084961,0 5.205078,-2.13281 2.120118,-2.1582 2.120118,-5.25586 0,-3.13574 -2.094727,-5.25586 -2.082031,-2.13281 -5.154297,-2.13281 -3.05957,0 -5.166992,2.13281 -2.107422,2.10742 -2.107422,5.20508 z"
       style="font-style:normal;font-variant:normal;font-weight:normal;font-stretch:normal;font-size:26px;font-family:Futura;-inkscape-font-specification:Futura;stroke-width:0.75"
       id="path404" />
    <path
       d="m 100.28027,145.84079 5.4209,13.58398 5.49707,-13.58398 h 3.23731 l -8.79785,21.07422 -8.594731,-21.07422 z"
       style="font-style:normal;font-variant:normal;font-weight:normal;font-stretch:normal;font-size:26px;font-family:Futura;-inkscape-font-specification:Futura;stroke-width:0.75"
       id="path406" />
    <path
       d="m 126.75,160.68161 h -8.3916 l -2.1836,4.76074 h -3.18652 l 9.69922,-20.83301 9.35645,20.83301 h -3.23731 z m -1.20605,-2.78027 -2.90723,-6.66504 -3.04688,6.66504 z"
       style="font-style:normal;font-variant:normal;font-weight:normal;font-stretch:normal;font-size:26px;font-family:Futura;-inkscape-font-specification:Futura;stroke-width:0.75"
       id="path408" />
  </g>
  <g
     aria-label="APACHE"
     style="font-style:normal;font-weight:normal;font-size:30px;line-height:1.25;font-family:sans-serif;letter-spacing:0px;word-spacing:0px;fill:#000000;fill-opacity:1;stroke:none;stroke-width:0.75"
     id="text394">
    <path
       d="m 5.2550159,132.98091 -1.6054688,4.35352 H 6.866344 Z M 4.5870471,131.8149 H 5.928844 l 3.3339844,8.74804 H 8.0323596 L 7.2354846,138.3188 H 3.2921252 l -0.796875,2.24414 H 1.2472034 Z"
       style="font-size:12px;stroke-width:0.75"
       id="path411" />
    <path
       d="m 11.717906,132.78755 v 3.28711 h 1.488282 q 0.826172,0 1.277343,-0.42773 0.451172,-0.42774 0.451172,-1.21875 0,-0.78516 -0.451172,-1.21289 -0.451171,-0.42774 -1.277343,-0.42774 z m -1.183593,-0.97265 h 2.671875 q 1.470703,0 2.220703,0.66796 0.755859,0.66211 0.755859,1.94532 0,1.29492 -0.755859,1.95703 -0.75,0.66211 -2.220703,0.66211 h -1.488282 v 3.51562 h -1.183593 z"
       style="font-size:12px;stroke-width:0.75"
       id="path413" />
    <path
       d="m 19.93861,132.98091 -1.605469,4.35352 h 3.216797 z m -0.667969,-1.16601 h 1.341797 l 3.333984,8.74804 h -1.230469 l -0.796875,-2.24414 h -3.943359 l -0.796875,2.24414 h -1.248047 z"
       style="font-size:12px;stroke-width:0.75"
       id="path415" />
    <path
       d="m 31.55775,132.48872 v 1.24805 q -0.597656,-0.55664 -1.277344,-0.83203 -0.673828,-0.27539 -1.435546,-0.27539 -1.5,0 -2.296875,0.91992 -0.796875,0.91406 -0.796875,2.64844 0,1.72851 0.796875,2.64844 0.796875,0.91406 2.296875,0.91406 0.761718,0 1.435546,-0.27539 0.679688,-0.27539 1.277344,-0.83203 v 1.23632 q -0.621094,0.42188 -1.318359,0.63282 -0.691406,0.21093 -1.464844,0.21093 -1.986328,0 -3.128906,-1.21289 -1.142578,-1.21875 -1.142578,-3.32226 0,-2.10938 1.142578,-3.32227 1.142578,-1.21875 3.128906,-1.21875 0.785156,0 1.476563,0.21094 0.697265,0.20508 1.30664,0.62109 z"
       style="font-size:12px;stroke-width:0.75"
       id="path417" />
    <path
       d="m 33.409313,131.8149 h 1.183593 v 3.58593 h 4.300782 v -3.58593 h 1.183593 v 8.74804 h -1.183593 v -4.16601 h -4.300782 v 4.16601 h -1.183593 z"
       style="font-size:12px;stroke-width:0.75"
       id="path419" />
    <path
       d="M 42.43275,131.8149 H 47.964 v 0.99609 h -4.347656 v 2.58984 h 4.166016 v 0.9961 h -4.166016 v 3.16992 h 4.453125 v 0.99609 H 42.43275 Z"
       style="font-size:12px;stroke-width:0.75"
       id="path421" />
  </g>
</svg>
