<?xml version="1.0" encoding="UTF-8" standalone="no"?>
<!-- Created with Inkscape (http://www.inkscape.org/) -->

<svg
   xmlns:dc="http://purl.org/dc/elements/1.1/"
   xmlns:cc="http://creativecommons.org/ns#"
   xmlns:rdf="http://www.w3.org/1999/02/22-rdf-syntax-ns#"
   xmlns:svg="http://www.w3.org/2000/svg"
   xmlns="http://www.w3.org/2000/svg"
   xmlns:sodipodi="http://sodipodi.sourceforge.net/DTD/sodipodi-0.dtd"
   xmlns:inkscape="http://www.inkscape.org/namespaces/inkscape"
   width="233.8896mm"
   height="305.83804mm"
   viewBox="0 0 233.8896 305.83805"
   version="1.1"
   id="svg8"
   inkscape:version="0.92.2 5c3e80d, 2017-08-06"
   sodipodi:docname="esp32icon.svg">
  <defs
     id="defs2" />
  <sodipodi:namedview
     id="base"
     pagecolor="#ffffff"
     bordercolor="#666666"
     borderopacity="1.0"
     inkscape:pageopacity="0.0"
     inkscape:pageshadow="2"
     inkscape:zoom="0.35"
     inkscape:cx="-79.42863"
     inkscape:cy="525.82816"
     inkscape:document-units="mm"
     inkscape:current-layer="layer1"
     showgrid="false"
     inkscape:window-width="1440"
     inkscape:window-height="818"
     inkscape:window-x="0"
     inkscape:window-y="1"
     inkscape:window-maximized="1" />
  <metadata
     id="metadata5">
    <rdf:RDF>
      <cc:Work
         rdf:about="">
        <dc:format>image/svg+xml</dc:format>
        <dc:type
           rdf:resource="http://purl.org/dc/dcmitype/StillImage" />
        <dc:title></dc:title>
      </cc:Work>
    </rdf:RDF>
  </metadata>
  <g
     inkscape:label="Layer 1"
     inkscape:groupmode="layer"
     id="layer1"
     transform="translate(25.47558,17.879338)">
    <path
       style="fill:#000000;stroke-width:0.17638887"
       d="m -17.51704,287.78216 c -0.71602,-0.0831 -1.39071,-0.22236 -1.49931,-0.30953 -0.10859,-0.0872 -0.45541,-0.21366 -0.77071,-0.28108 -0.31529,-0.0674 -0.57326,-0.19565 -0.57326,-0.28495 0,-0.0893 -0.0826,-0.16237 -0.18353,-0.16237 -0.50904,0 -2.33243,-1.66336 -3.10984,-2.8369 -0.7199,-1.08673 -1.0627,-2.06389 -1.37978,-3.93308 -0.22515,-1.32726 -0.26574,-4.41059 -0.26574,-20.18882 0,-16.44865 0.0339,-18.8291 0.29021,-20.3939 0.37157,-2.26822 1.04971,-3.69539 2.44382,-5.1431 1.43165,-1.48667 2.67751,-2.12206 4.99643,-2.54809 1.83022,-0.33627 3.72229,-0.34222 108.88767,-0.34222 H 198.344 l 1.87315,0.36148 c 1.21719,0.2349 2.22407,0.55068 2.87528,0.90179 1.05538,0.56901 3.10973,2.55755 3.31191,3.20581 0.0654,0.20989 0.17191,0.42131 0.23657,0.46981 0.27938,0.20957 0.72378,1.8118 0.97485,3.51475 0.23024,1.56165 0.27115,4.57383 0.27115,19.96898 0,21.47116 0.002,21.44231 -1.67485,24.06366 -0.68485,1.07059 -0.91504,1.32018 -2.03142,2.20281 -0.71972,0.56901 -1.13896,0.80359 -2.46735,1.38058 -0.24253,0.10534 -1.11357,0.27245 -1.93565,0.37135 -1.85865,0.22359 -215.3647,0.20691 -217.29468,-0.0169 z m 212.35117,-6.407 c 1.87879,-0.80944 3.20925,-1.9604 3.95846,-3.42436 0.91294,-1.78389 0.87625,-1.0889 0.93712,-17.75309 0.0509,-13.92518 0.0267,-15.65834 -0.23509,-16.84514 -0.48911,-2.21753 -1.36163,-3.58918 -2.95642,-4.64774 -0.51511,-0.34192 -1.16877,-0.6773 -1.45259,-0.7453 -0.28385,-0.068 -0.62749,-0.21193 -0.76366,-0.31983 -0.18045,-0.14296 -14.57717,-0.19616 -53.09305,-0.19616 -51.51121,0 -52.87219,0.008 -53.9038,0.3366 -2.55554,0.81277 -4.29031,2.73257 -4.87596,5.39604 -0.15279,0.6949 -0.24203,5.24887 -0.31451,16.05139 -0.0934,13.91269 -0.12503,15.12226 -0.40879,15.61041 -0.16918,0.29104 -0.30809,0.62839 -0.30868,0.74965 -5.3e-4,0.12127 -0.0805,0.22049 -0.17748,0.22049 -0.097,0 -0.17639,0.12943 -0.17639,0.28764 0,0.38953 -2.14648,2.47731 -3.38076,3.28829 -0.89711,0.58944 -2.25688,1.3083 -4.02757,2.12924 -0.57071,0.26461 3.95499,0.28313 59.88403,0.24504 59.42619,-0.0405 60.5155,-0.0473 61.29514,-0.38317 z m -69.62941,-5.57406 c -1.16763,-0.20989 -2.84323,-0.88646 -3.94282,-1.59207 -2.10227,-1.34902 -4.13498,-4.33297 -4.32332,-6.34651 -0.15973,-1.70769 0.75193,-2.81035 2.43789,-2.94863 1.30524,-0.10706 1.70488,0.25937 2.78866,2.55698 1.53079,3.24529 2.76423,4.27507 5.12473,4.27858 2.17254,0.003 3.79322,-0.94897 4.84396,-2.846 0.47703,-0.86124 0.52322,-1.09257 0.52322,-2.62033 0,-1.48646 -0.057,-1.79167 -0.50432,-2.70277 -0.96171,-1.95855 -2.67016,-2.71387 -5.68214,-2.51211 -2.66963,0.17882 -3.66191,-0.38494 -3.66191,-2.08051 0,-1.5383 0.94252,-2.15136 3.52454,-2.29254 1.93827,-0.10598 3.14095,-0.56286 4.00802,-1.52259 0.79272,-0.87747 1.04559,-1.71436 0.96246,-3.18548 -0.0889,-1.57365 -0.69274,-2.50641 -2.08732,-3.22448 -0.86817,-0.447 -1.10677,-0.49136 -2.29196,-0.4261 -2.27569,0.12533 -3.14419,0.79874 -4.29935,3.33357 -0.74182,1.62783 -1.26873,2.08965 -2.38312,2.08875 -1.13129,-0.002 -1.84449,-0.47731 -2.23143,-1.4905 -0.26987,-0.70664 -0.28302,-0.94242 -0.0985,-1.76693 0.25924,-1.15843 1.28452,-2.79091 2.29724,-3.65777 1.00153,-0.85727 2.83822,-1.80259 4.24571,-2.18523 1.43382,-0.38979 4.78459,-0.43912 6.17361,-0.0909 2.64116,0.66213 4.82769,2.29403 5.75011,4.29155 0.47077,1.01944 0.5117,1.27031 0.5117,3.13654 0,1.86108 -0.0405,2.11087 -0.49031,3.02689 -0.26966,0.54913 -1.0141,1.56416 -1.6543,2.25564 -0.6402,0.69148 -1.13394,1.27565 -1.0972,1.29815 2.672,1.63613 4.06955,3.28985 4.64375,5.49492 0.5208,2.00002 0.29277,3.91402 -0.72075,6.04966 -1.63725,3.44996 -5.2425,5.62309 -9.58883,5.77984 -1.01865,0.0368 -2.26876,-0.008 -2.77802,-0.0996 z m 19.79955,-0.53338 c -0.6468,-0.19047 -1.39892,-0.87048 -1.78192,-1.61112 -0.73699,-1.42519 0.21976,-3.76368 2.51913,-6.15731 2.26838,-2.36137 5.5281,-5.32984 7.65837,-6.9741 3.28242,-2.53358 4.72902,-4.62675 4.88579,-7.06953 0.072,-1.1225 0.025,-1.39072 -0.39408,-2.24731 -0.50462,-1.03138 -1.51393,-1.9754 -2.56854,-2.40237 -0.33955,-0.13747 -1.17299,-0.24779 -1.85209,-0.24516 -2.43981,0.009 -3.88768,1.15104 -4.9557,3.90749 -0.43681,1.12734 -0.86786,1.91013 -1.30468,2.36933 -0.59489,0.62535 -0.73322,0.68576 -1.57037,0.68576 -1.80741,0 -2.58005,-0.85815 -2.54102,-2.82222 0.0586,-2.95083 2.05704,-5.84599 5.05458,-7.32272 3.25247,-1.60233 8.60214,-1.50662 11.67137,0.2088 2.73063,1.52618 4.48446,4.85016 4.26539,8.08406 -0.12076,1.78265 -0.5675,3.0499 -1.69454,4.80686 -1.04247,1.62512 -2.30235,2.87221 -5.92642,5.86629 -1.4552,1.20225 -3.11359,2.62636 -3.68529,3.1647 -1.10029,1.03609 -2.40012,2.57779 -2.40012,2.84674 0,0.0933 2.53155,0.16217 6.04132,0.16442 5.57581,0.004 6.0988,0.03 6.78732,0.34252 1.96525,0.89212 1.91796,3.4998 -0.0789,4.35065 -0.45643,0.19446 -2.23573,0.23872 -9.08403,0.22593 -4.68403,-0.009 -8.75455,-0.086 -9.04559,-0.17171 z M 32.11538,275.09793 c 1.56146,-0.27491 2.73402,-0.59045 2.73402,-0.73576 0,-0.0779 0.12223,-0.14155 0.27161,-0.14155 0.34969,0 1.53005,-0.60293 2.3663,-1.2087 1.94616,-1.40979 2.83772,-2.6479 3.63877,-5.0531 0.40735,-1.2231 0.39512,-4.08379 -0.023,-5.37987 -0.93222,-2.88967 -3.59478,-4.99713 -7.80607,-6.17867 -0.74691,-0.20955 -1.71521,-0.48644 -2.15177,-0.6153 -0.43656,-0.12886 -1.11125,-0.29047 -1.49931,-0.35912 -0.38805,-0.0687 -0.78493,-0.18489 -0.88194,-0.25829 -0.097,-0.0734 -0.53358,-0.19108 -0.97014,-0.26153 -0.43656,-0.0704 -0.87313,-0.18932 -0.97014,-0.26416 -0.097,-0.0748 -0.43436,-0.19124 -0.74965,-0.25866 -0.3153,-0.0674 -0.57327,-0.19565 -0.57327,-0.28495 0,-0.0893 -0.10715,-0.16237 -0.23811,-0.16237 -0.46602,0 -1.70087,-1.06657 -1.96402,-1.69637 -1.13634,-2.71963 1.64154,-5.0335 5.72991,-4.7728 0.82462,0.0526 1.79877,0.18452 2.16478,0.29318 0.72966,0.21662 2.28236,1.68266 2.71133,2.56002 0.52166,1.06692 0.67843,1.32291 0.81016,1.32291 0.074,0 0.13707,0.0992 0.14014,0.22049 0.009,0.34295 0.81215,1.17494 1.32183,1.36873 0.58426,0.22212 1.69352,0.22452 2.27119,0.005 0.24561,-0.0934 0.695,-0.51009 0.99864,-0.92604 0.53306,-0.73021 0.54918,-0.80482 0.46796,-2.16736 -0.10673,-1.79036 -0.52051,-2.63761 -1.97659,-4.04722 -0.60681,-0.58743 -1.2218,-1.16043 -1.36665,-1.27332 -0.34045,-0.26539 -1.82336,-0.94132 -2.06506,-0.94132 -0.10233,0 -0.18606,-0.0719 -0.18606,-0.15984 0,-0.0879 -0.41672,-0.21585 -0.92604,-0.28432 -0.50933,-0.0685 -1.03391,-0.21188 -1.16574,-0.31868 -0.35346,-0.28633 -6.07287,-0.26894 -7.08044,0.0215 -1.40146,0.40403 -3.05591,0.96812 -3.4294,1.16929 -0.87849,0.47313 -2.04166,1.33788 -2.4608,1.82944 -0.10737,0.12592 -0.32757,0.36405 -0.48933,0.52917 -0.80384,0.82054 -1.71481,3.39643 -1.72808,4.88639 -0.009,1.02597 0.41679,2.89283 0.85677,3.75527 0.52126,1.02175 2.13728,2.706 3.05528,3.18424 0.41578,0.21662 0.87503,0.46563 1.02056,0.55335 0.512,0.30866 3.01332,1.22504 3.66363,1.3422 0.36184,0.0652 0.73727,0.18011 0.83428,0.25539 0.097,0.0753 0.57327,0.19401 1.05834,0.26384 0.48506,0.0698 0.96131,0.18449 1.05833,0.25481 0.097,0.0704 0.63211,0.21627 1.18911,0.32433 1.79524,0.34823 3.31949,1.06542 4.2713,2.00977 0.83902,0.83244 0.87721,0.9131 0.94636,1.99905 0.10921,1.71507 -0.0481,2.22414 -0.98696,3.19324 -1.20264,1.24141 -2.43392,1.76195 -4.62394,1.95487 -1.00277,0.0883 -3.88268,-0.40743 -3.88268,-0.66839 0,-0.0781 -0.17092,-0.19627 -0.37983,-0.26258 -0.72573,-0.23032 -1.68339,-1.45584 -2.62876,-3.364 -1.05031,-2.11998 -1.47348,-2.61464 -2.49969,-2.92211 -1.01981,-0.30554 -2.37074,0.18082 -2.9479,1.0613 -1.20881,1.84404 -0.28885,4.84946 2.28253,7.45682 1.7279,1.75207 3.77785,2.75562 6.43824,3.15182 1.24403,0.18526 5.29764,0.18526 6.35,-10e-6 z m 19.69721,-0.26577 c 0.25425,-0.19083 0.6492,-0.61879 0.87767,-0.95104 0.41033,-0.5967 0.4161,-0.66921 0.47311,-5.95312 l 0.0577,-5.34905 3.91103,-0.008 c 3.08847,-0.006 4.26346,-0.0775 5.58673,-0.33893 1.55316,-0.30688 3.32083,-0.84485 3.52778,-1.07364 0.0485,-0.0536 0.40569,-0.28729 0.79375,-0.51924 0.73014,-0.43644 2.38125,-2.07715 2.38125,-2.36627 0,-0.0903 0.11078,-0.28953 0.24618,-0.44268 0.76492,-0.86521 1.22935,-4.03905 0.96997,-6.62847 -0.11964,-1.19443 -0.2963,-1.87138 -0.71344,-2.73403 -0.55479,-1.14727 -1.96721,-2.99861 -2.28769,-2.99861 -0.0936,0 -0.28866,-0.0992 -0.43345,-0.22048 -0.14479,-0.12127 -0.35973,-0.30008 -0.47763,-0.39735 -0.28516,-0.23527 -1.93826,-0.87281 -3.03658,-1.1711 -0.67237,-0.18262 -2.51665,-0.23954 -7.76111,-0.23954 h -6.87917 l -0.6505,0.40783 c -0.35778,0.22431 -0.83403,0.70056 -1.05834,1.05833 l -0.40783,0.65042 v 13.68232 13.68233 l 0.42271,0.82197 c 0.23249,0.45209 0.56984,0.86867 0.74966,0.92574 0.17981,0.0571 0.32694,0.17228 0.32694,0.256 0,0.46912 2.73225,0.39345 3.38124,-0.0936 z m 1.38126,-21.87063 v -4.7041 l 3.94184,0.0611 c 2.53713,0.0393 4.03,0.131 4.18924,0.25726 0.13606,0.1079 0.44748,0.24375 0.69203,0.30189 0.57959,0.13783 1.46312,1.01078 1.86379,1.84148 0.45388,0.94106 0.52634,2.6035 0.1673,3.83858 -0.36704,1.26254 -1.09744,2.01323 -2.50382,2.57335 -0.93864,0.37383 -1.35566,0.41582 -4.69031,0.47241 l -3.66007,0.0621 z m -42.2475,21.61277 c 0.25387,-0.0965 0.6956,-0.43171 0.98162,-0.74487 0.44692,-0.48931 0.51915,-0.70646 0.5137,-1.54431 -0.005,-0.74704 -0.0976,-1.08022 -0.39687,-1.4254 -0.94248,-1.08717 -0.60279,-1.04882 -9.2919705,-1.04882 h -7.9437 v -4.49792 -4.49791 h 7.04547 c 6.78631,0 7.06802,-0.0132 7.65846,-0.36167 0.8847105,-0.52201 1.1710705,-1.05745 1.1710705,-2.18976 0,-0.537 -0.074,-0.97635 -0.16451,-0.97635 -0.0905,0 -0.21034,-0.14443 -0.26637,-0.32096 -0.056,-0.17653 -0.3815705,-0.45434 -0.7234205,-0.61736 -0.55004,-0.26229 -1.43271,-0.2964 -7.67113,-0.2964 h -7.04957 v -3.88056 -3.88055 h 7.55762 c 8.2536505,0 8.2643705,-0.002 9.1488805,-1.04047 0.52753,-0.61979 0.54483,-1.95195 0.0361,-2.77518 -0.20194,-0.32674 -0.47313,-0.59408 -0.60266,-0.59408 -0.12952,0 -0.26856,-0.0992 -0.30896,-0.22048 -0.0576,-0.17292 -2.2205005,-0.22049 -10.02477048,-0.22049 -9.40547002,0 -9.98469002,0.0182 -10.56004002,0.33156 -0.6956095,0.37887 -0.8478495,0.52222 -1.3338295,1.25594 -0.34214,0.51656 -0.35049,0.85395 -0.35049,14.16165 0,9.83447 0.0548,13.66754 0.19671,13.75833 0.10819,0.0692 0.247,0.28727 0.30846,0.48456 0.11026,0.35396 0.92467,0.94378 1.6114995,1.16711 0.59454,0.19332 19.9466305,0.16909 20.4587505,-0.0256 z m 25.63456,-59.04556 c -0.0373,-0.32339 -0.17267,-0.50168 -0.40859,-0.53827 -0.64518,-0.10003 -1.14653,-0.44478 -1.14653,-0.78839 0,-0.18817 -0.15321,-0.37955 -0.34373,-0.42936 -0.24515,-0.0641 -0.45171,-0.43877 -0.72024,-1.30641 -0.20707,-0.66908 -0.44927,-1.21652 -0.53821,-1.21652 -0.0962,0 -0.16171,-4.19691 -0.16171,-10.35723 v -10.35722 l -0.4684,-0.4025 c -0.46555,-0.40002 -0.50131,-0.40249 -5.84943,-0.40249 -4.15624,0 -5.58529,-0.0579 -6.27847,-0.25451 -0.4936,-0.13998 -1.84723,-0.33106 -3.00807,-0.42462 -1.81256,-0.14609 -2.15301,-0.22246 -2.41082,-0.54084 -0.19438,-0.24005 -0.73736,-0.46946 -1.54036,-0.65081 -0.90366,-0.20406 -1.31169,-0.38924 -1.5038,-0.68243 -0.15096,-0.2304 -0.52349,-0.45111 -0.8716,-0.51643 -0.38236,-0.0717 -0.63978,-0.23575 -0.69371,-0.442 -0.0528,-0.2017 -0.45065,-0.46363 -1.0336705,-0.68045 -0.68448,-0.25455 -0.96351,-0.45579 -1.00403,-0.72411 -0.0373,-0.24716 -0.24217,-0.41981 -0.61171,-0.51557 -0.38315,-0.0993 -0.58697,-0.27781 -0.65667,-0.5752 -0.0646,-0.27559 -0.2471,-0.45227 -0.50567,-0.48955 -0.26391,-0.038 -0.49035,-0.26356 -0.65123,-0.64862 -0.13565,-0.32466 -0.40411,-0.64028 -0.59656,-0.70136 -0.23142,-0.0735 -0.45152,-0.43337 -0.64993,-1.06278 -0.22138,-0.70229 -0.39498,-0.96546 -0.6624,-1.0042 -0.27133,-0.0393 -0.39948,-0.24087 -0.50998,-0.80214 -0.0812,-0.41231 -0.24486,-0.74966 -0.36375,-0.74966 -0.32705,0 -0.8214,-0.95223 -0.8214,-1.5822 0,-0.63703 -0.25365,-1.20917 -0.70614,-1.5928 -0.5116,-0.43374 -0.91634998,-5.13413 -0.99788998,-11.58857 l -0.0695,-5.50314 -0.45993,-0.36179 c -0.45146,-0.3551 -0.64549,-0.36182 -10.53440952,-0.36443 -10.26179,-0.003 -10.98613,-0.0447 -11.61472,-0.67328 -0.1133,-0.11331 -0.38583,-0.20601 -0.60562,-0.20601 -0.21978,0 -0.64321,-0.23812 -0.94094,-0.52916 -0.29773,-0.29104 -0.60593,-0.52917 -0.68488,-0.52917 -0.079,0 -0.26827,-0.3175 -0.4207,-0.70555 -0.19965,-0.50825 -0.37977,-0.70556 -0.64412,-0.70556 -0.35288,0 -0.36697,-0.088 -0.36697,-2.29305 v -2.29306 h 0.52917 c 0.40405,0 0.52917,-0.08 0.52917,-0.33835 0,-0.55501 0.19527,-0.89637 0.51276,-0.89637 0.38329,0 0.72196,-0.33954 0.72196,-0.72381 0,-0.47889 1.04155,-0.53425 12.4041,-0.65934 l 10.55200952,-0.11616 0.51164,-0.61736 0.51165,-0.61736 0.005,-4.28297 c 0.004,-3.64735 -0.0345,-4.29803 -0.25984,-4.38449 -0.14552,-0.0558 -0.26458,-0.20285 -0.26458,-0.32667 0,-0.12383 -0.1786,-0.273 -0.39688,-0.3315 -0.21828,-0.0585 -4.75187002,-0.10744 -10.07463952,-0.10877 -9.38334,-0.002 -9.72784,-0.0143 -11.32367,-0.39423 -1.40399,-0.33425 -1.66072,-0.45091 -1.74677,-0.79375 -0.0705,-0.28106 -0.23042,-0.40192 -0.53169,-0.40192 -0.35336,0 -0.46497,-0.12685 -0.6208,-0.70556 -0.15634,-0.5806 -0.26688,-0.70556 -0.62416,-0.70556 h -0.43417 v -2.29305 -2.29306 h 0.43417 c 0.35728,0 0.46782,-0.12495 0.62416,-0.70555 0.15333,-0.56942 0.27007,-0.70556 0.60504,-0.70556 0.28784,0 0.44675,-0.12628 0.51846,-0.41203 0.0838,-0.33394 0.29636,-0.45508 1.12156,-0.6392 0.55997,-0.12495 1.1747,-0.33641 1.36606,-0.46992 0.28556,-0.19922 2.16989,-0.24274 10.5118,-0.24274 h 10.16387952 l 0.46841,-0.40249 0.4684,-0.40249 v -4.45387 c 0,-3.49025 -0.0553,-4.58621 -0.25558,-5.06556 l -0.25558,-0.6117 H -10.91423 c -7.35554,0 -11.2097,-0.0606 -11.2097,-0.17638 0,-0.097 -0.11723,-0.17639 -0.26051,-0.17639 -0.14329,0 -0.39054,-0.19844 -0.54946,-0.44098 -0.19768,-0.3017 -0.44965,-0.44097 -0.79781,-0.44097 -0.43613,0 -0.50972,-0.0694 -0.51475,-0.48507 -0.007,-0.56079 -0.53932,-1.27882 -0.94845,-1.27882 -0.24133,0 -0.28041,-0.30727 -0.28041,-2.20486 0,-1.79568 0.0469,-2.20486 0.25258,-2.20486 0.32476,0 0.92853,-0.84619 1.0085,-1.41342 0.0441,-0.31293 0.18824,-0.4556 0.50281,-0.49776 0.24254,-0.0325 0.66021,-0.26655 0.92817,-0.5201 0.35438,-0.33534 0.76309,-0.49549 1.4993,-0.58748 0.55667,-0.0696 5.62341,-0.13317 11.25943,-0.14135 9.69276952,-0.0141 10.26310952,-0.0323 10.53923952,-0.33746 0.25635,-0.28327 0.29192,-0.89873 0.29192,-5.051732 0,-4.297108 -0.0282,-4.750572 -0.30868,-4.963486 -0.24825,-0.188443 -2.32904002,-0.235802 -10.62742952,-0.241873 -5.67532,-0.0042 -10.62701,-0.05847 -11.00376,-0.120705 -0.45728,-0.07554 -0.71334,-0.22149 -0.77023,-0.439032 -0.0469,-0.179232 -0.23787,-0.325877 -0.42445,-0.325877 -0.66359,0 -1.64893,-0.659392 -1.95996,-1.311613 -0.16802,-0.352347 -0.30549,-0.757003 -0.30549,-0.899232 0,-0.158246 -0.17113,-0.258599 -0.44097,-0.258599 h -0.44098 v -2.293055 -2.293055 h 0.43389 c 0.35339,0 0.47312,-0.130916 0.64529,-0.705556 0.18217,-0.608032 0.28067,-0.705555 0.71263,-0.705555 0.4111,0 0.50125,-0.07592 0.50125,-0.422101 0,-0.232156 0.1389,-0.489959 0.30868,-0.572898 0.16977,-0.08294 5.42837,-0.190649 11.68576,-0.239358 l 11.37708952,-0.08856 0.0611,-0.440972 c 0.0336,-0.242535 0.1725,-0.504448 0.30869,-0.582029 0.20101,-0.114511 0.24761,-0.886251 0.24761,-4.101041 0,-2.444693 -0.0656,-3.959985 -0.17135,-3.959985 -0.0942,0 -0.23817,-0.257968 -0.31985,-0.573264 l -0.14851,-0.573263 -11.45409952,-0.08819 c -6.29976,-0.04851 -11.55333,-0.15241 -11.6746,-0.230896 -0.12126,-0.07849 -0.22048,-0.298752 -0.22048,-0.48948 0,-0.242054 -0.15548,-0.377872 -0.51486,-0.449749 -0.36706,-0.07341 -0.54836,-0.236426 -0.63154,-0.567866 -0.15565,-0.620129 -0.41409,-0.907842 -0.81548,-0.907842 -0.30631,0 -0.33118,-0.165523 -0.33118,-2.204861 0,-2.098623 0.0173,-2.204861 0.35832,-2.204861 0.19707,0 0.4027,-0.138906 0.45696,-0.30868 0.11881,-0.371738 0.41129,-1.091572 0.59104,-1.454633 0.0719,-0.145205 0.5191,-0.372708 0.99379,-0.505564 0.4747,-0.132855 0.89002,-0.313126 0.92293,-0.400601 0.25906,-0.688444 0.15045,-0.68191 11.33605,-0.68191 9.6017995,0 10.79987952,-0.0305 11.18808952,-0.28487 l 0.43477,-0.28487 v -4.25529 c 0,-3.641287 -0.0443,-4.362352 -0.30689,-4.997276 l -0.30689,-0.741987 -11.11428952,-0.071 c -6.11286,-0.03905 -11.33343,-0.132126 -11.60125,-0.206834 -0.29888,-0.08336 -0.52668,-0.294063 -0.58978,-0.545491 -0.0678,-0.270014 -0.27757,-0.448042 -0.61547,-0.522256 -0.32047,-0.07039 -0.51265,-0.224883 -0.51265,-0.412113 0,-0.462962 -0.51086,-1.083565 -0.89195,-1.083565 -0.32186,0 -0.34278,-0.139896 -0.34278,-2.293056 0,-2.165521 0.0194,-2.293055 0.34825,-2.293055 0.37927,0 0.88648,-0.802367 0.88648,-1.402352 0,-0.281144 0.11347,-0.361537 0.51029,-0.361537 0.29088,0 0.55395,-0.113765 0.61183,-0.264583 0.0558,-0.145521 0.25309,-0.264583 0.43832,-0.264583 0.18524,0 0.45534,-0.178594 0.60022,-0.396875 l 0.26341,-0.396875 11.00289,-0.08819 c 6.0515895,-0.04851 11.14179952,-0.156217 11.31157952,-0.239358 0.28383,-0.138994 0.30903,-0.586242 0.31299,-5.556249 0.002,-2.972796 0.076,-5.722586 0.16363,-6.110642 0.0876,-0.388055 0.25178998,-1.816805 0.36481998,-3.174999 0.19209,-2.308294 0.23897,-2.511935 0.71832,-3.120559 0.32929,-0.4181 0.51367,-0.859974 0.51521,-1.234722 0.004,-0.94496 0.18748,-1.374022 0.63603,-1.486604 0.29883,-0.075 0.4199,-0.229549 0.4199,-0.535996 0,-0.576372 0.45055,-1.416939 0.88377,-1.64879 0.20958,-0.112164 0.35095,-0.369131 0.35095,-0.637912 0,-0.340542 0.13199,-0.499909 0.5423,-0.654784 0.37839,-0.142824 0.57222,-0.354236 0.64125,-0.699421 0.0727,-0.36329 0.2283,-0.520596 0.58585,-0.592105 0.35767,-0.07153 0.51319,-0.228803 0.58593,-0.592503 0.0742,-0.371014 0.23068,-0.524035 0.62425,-0.610478 0.39672,-0.08713 0.55304,-0.242013 0.63892,-0.633033 0.0941,-0.428518 0.20242,-0.517675 0.62885,-0.517675 0.39938,0 0.51515,-0.08013 0.51515,-0.35656 0,-0.382314 0.33768,-0.574618 1.5434005,-0.878939 0.62767,-0.15842 0.74966,-0.259864 0.74966,-0.623382 0,-0.388082 0.074,-0.434175 0.69725,-0.434175 0.84869,0 1.53876,-0.2919779 1.64435,-0.6957461 0.062,-0.2369256 0.44169,-0.3446057 1.80694,-0.512385 1.04567,-0.1285046 1.8045,-0.3095449 1.92088,-0.4582795 0.41593,-0.5315478 1.62125,-0.6246794 8.09738,-0.6256601 4.13717,-7.056e-4 6.61771,-0.06725 6.83507,-0.1835785 0.33133,-0.1773237 0.34118,-0.4797107 0.34118,-10.4735406 0,-8.9323212 0.0349,-10.3199352 0.26459,-10.5105302 0.14552,-0.120771 0.26458,-0.403618 0.26458,-0.628549 0,-0.22493 0.0794,-0.45802 0.17639,-0.517978 0.097,-0.05996 0.17639,-0.300938 0.17639,-0.53551 0,-0.260287 0.17185,-0.539097 0.44097,-0.715432 0.24253,-0.158915 0.44097,-0.431025 0.44097,-0.60469 0,-0.21667 0.23524,-0.390194 0.74965,-0.552977 0.55276,-0.174917 0.76446,-0.341464 0.80602,-0.634099 0.055,-0.387136 0.10989,-0.396875 2.23725,-0.396875 h 2.18087 l 0.0558,0.484232 c 0.0442,0.383165 0.16626,0.502814 0.58498,0.573264 0.38571,0.06489 0.59757,0.244443 0.78149,0.662295 0.13877,0.315295 0.38362,0.573264 0.5441,0.573264 0.63591,0 0.75557,1.828202 0.82193,12.5571071 l 0.0629,10.1758573 0.46196,0.3633787 c 0.43918,0.3454523 0.68507,0.3633769 4.98504,0.3633769 3.80826,0 4.58503,-0.043395 4.9151,-0.2745845 l 0.39203,-0.2745863 v -9.8591685 c 0,-8.1946447 0.0447,-10.0306667 0.26458,-10.8749727 0.14552,-0.558692 0.26458,-1.27694 0.26458,-1.596106 0,-0.441217 0.0761,-0.580302 0.3175,-0.580302 0.39953,0 0.74084,-0.33261 0.74084,-0.721961 0,-0.314718 0.34079,-0.512761 0.88235,-0.512761 0.21696,0 0.36282,-0.175199 0.44056,-0.529167 l 0.11623,-0.529166 h 2.15217 2.15218 l 0.19457,0.515473 c 0.14258,0.377752 0.32964,0.530913 0.70013,0.573264 0.36349,0.04155 0.52103,0.166521 0.56062,0.444735 0.0324,0.227833 0.26815,0.481266 0.57326,0.616323 0.39562,0.175115 0.5182,0.346389 0.5182,0.724006 0,0.272046 0.17699,0.828138 0.3933,1.235761 0.39051,0.735867 0.39396,0.814051 0.48507,11.0071587 0.0618,6.9125981 0.15317,10.3273632 0.27974,10.4537988 0.12646,0.1263332 1.85791,0.1724413 5.29167,0.140917 l 5.1037,-0.046856 0.0915,-11.1124989 c 0.0503,-6.1118744 0.10986,-11.1205706 0.13229,-11.1304346 0.31248,-0.137438 1.13466,-1.262235 1.21453,-1.661564 0.0678,-0.338728 0.21293,-0.525361 0.4087,-0.525361 0.50572,0 1.45637,-0.556625 1.5478,-0.906276 0.0774,-0.29607 0.28382,-0.328446 2.09379,-0.328446 1.79393,0 2.00812,0.03289 2.00993,0.30868 0.002,0.278464 0.68143,0.692784 1.62957,0.993467 0.17583,0.05576 0.30868,0.272045 0.30868,0.502534 0,0.225263 0.19467,0.550829 0.43912,0.734407 0.24151,0.181371 0.51889,0.616929 0.61638,0.967908 0.10957,0.394463 0.17763,4.6497458 0.17824,11.1436641 7e-4,8.1248947 0.051,10.5737825 0.22147,10.8067481 0.20042,0.273812 0.67797,0.2969454 5.24757,0.2541993 l 5.02708,-0.047027 0.0882,-10.8206443 0.0882,-10.8206442 0.48507,-0.386675 c 0.26679,-0.212671 0.48507,-0.562058 0.48507,-0.776416 0,-0.536226 1.14075,-1.753197 1.7737,-1.892217 0.40042,-0.08795 0.51936,-0.211842 0.51936,-0.541027 v -0.426957 h 2.29306 2.29305 v 0.434173 c 0,0.356095 0.12484,0.46779 0.6942,0.621102 0.5681,0.152975 0.70428,0.27436 0.74965,0.668257 0.0426,0.370169 0.16207,0.493696 0.51708,0.534879 0.41488,0.04813 0.47276,0.146347 0.57173,0.970139 0.0606,0.504124 0.1108,5.649525 0.11164,11.4342253 10e-4,9.5671181 0.0279,10.5395147 0.29323,10.7597221 0.2308,0.1915494 1.25257,0.2420831 4.89479,0.2420831 2.5317,0 4.74201,-0.057041 4.91178,-0.1267566 0.28905,-0.1186938 0.3098,-0.8253306 0.32626,-11.112498 0.01,-6.0421588 0.0726,-11.1835459 0.13991,-11.4253049 0.0673,-0.241759 0.31734,-0.536657 0.55569,-0.655329 0.23834,-0.118672 0.47612,-0.395034 0.5284,-0.614137 0.063,-0.263937 0.29563,-0.455894 0.68944,-0.568837 0.40738,-0.116834 0.65325,-0.326408 0.78147,-0.666093 l 0.18708,-0.495625 h 2.03616 c 1.91587,0 2.04646,0.02254 2.21029,0.38142 0.1034,0.226515 0.54279,0.519836 1.08191,0.722242 0.83696,0.314232 0.92525,0.403199 1.13163,1.140306 0.12311,0.439716 0.40914,0.999423 0.63561,1.243792 l 0.41177,0.444308 v 10.569172 c 0,6.9482815 0.0626,10.6860569 0.1826,10.910353 0.1738,0.3247442 0.41862,0.3411819 5.08156,0.3411819 3.64359,0 4.97489,-0.056501 5.19521,-0.2204861 0.27109,-0.2017659 0.30016,-1.1693276 0.34239,-11.3964803 l 0.0462,-11.1759945 0.57327,-0.478517 c 0.32469,-0.271031 0.57326,-0.645032 0.57326,-0.862546 0,-0.268649 0.10785,-0.384029 0.35898,-0.384029 0.52383,0 1.22852,-0.517528 1.22852,-0.902231 0,-0.307897 0.16219,-0.332491 2.19259,-0.332491 2.13951,0 2.19396,0.0096 2.24896,0.396875 0.0427,0.300446 0.25971,0.461161 0.89329,0.661458 0.65249,0.206279 0.83712,0.34728 0.83784,0.63986 5.3e-4,0.206403 0.11999,0.474091 0.26551,0.594862 0.14552,0.120772 0.26459,0.315092 0.26459,0.431823 0,0.116731 0.19843,0.398661 0.44097,0.62651 l 0.44097,0.414272 v 10.695261 c 0,8.2834624 0.0497,10.7608635 0.22049,10.9861755 0.19734,0.2603729 0.97363,0.2963175 7.39433,0.3423938 7.08192,0.050819 7.17911,0.056383 7.58472,0.4341618 0.29995,0.2793594 0.81569,0.4392241 1.91018,0.5921057 1.38122,0.1929288 2.64114,0.7159254 2.64464,1.0977812 0,0.07276 0.26135,0.132291 0.57931,0.132291 0.56981,0 1.12221,0.289213 1.74833,0.915332 0.17567,0.175665 0.51007,0.31939 0.74311,0.31939 0.31221,0 0.47227,0.139256 0.60819,0.529167 0.1406,0.403331 0.29254,0.529167 0.63897,0.529167 0.31822,0 0.50308,0.127709 0.61644,0.425878 0.089,0.234234 0.34112,0.482754 0.56013,0.552269 0.45949,0.145836 1.68806,1.406741 1.84139,1.889876 0.0571,0.179952 0.29549,0.400048 0.52973,0.489103 0.3002,0.114136 0.42587,0.297865 0.42587,0.622579 0,0.349865 0.12727,0.5087 0.52917,0.660398 0.378,0.142683 0.52917,0.316357 0.52917,0.607984 0,0.224536 0.24354,0.646314 0.54119,0.937287 0.33447,0.326956 0.58038,0.779483 0.64375,1.18468 0.0564,0.360601 0.32415,0.973139 0.595,1.361195 0.37228,0.533393 0.54317,1.071402 0.70026,2.204861 0.12852,0.927225 0.32563,1.633913 0.51657,1.852083 0.49428,0.564739 0.57426,1.559138 0.68803,8.55486 l 0.10756,6.614583 10.90771,0.08819 10.90771,0.08819 0.32126,0.396875 c 0.17669,0.218281 0.44993,0.396875 0.6072,0.396875 0.15727,0 0.33163,0.119062 0.38748,0.264583 0.0558,0.145521 0.3113,0.264987 0.56772,0.265483 0.40019,7.05e-4 0.50453,0.119381 0.73694,0.837847 0.19669,0.608046 0.37267,0.851718 0.64346,0.890956 0.46872,0.06791 0.57967,0.481662 0.58269,2.172901 0.003,1.792538 -0.13785,2.447396 -0.52721,2.447396 -0.37557,0 -0.62003,0.288081 -0.76668,0.903536 -0.0786,0.329939 -0.2565,0.491816 -0.62039,0.564594 -0.34853,0.06971 -0.54425,0.23785 -0.61775,0.530747 -0.0679,0.270679 -0.28711,0.478762 -0.59457,0.564474 -0.26783,0.07467 -5.46892,0.167824 -11.55797,0.207019 l -11.07102,0.07126 0.0467,5.237864 0.0467,5.237862 10.88868,0.08819 c 10.88841,0.08819 10.88868,0.0882 11.15381,0.466808 0.15776,0.225306 0.61845,0.463373 1.13773,0.587944 0.90055,0.216041 1.12412,0.494007 1.41532,1.759604 0.063,0.273654 0.26185,0.471211 0.54025,0.536605 0.41814,0.09822 0.4434,0.175052 0.49547,1.507171 0.0769,1.965671 -0.0797,2.902978 -0.48505,2.902978 -0.38633,0 -0.6301,0.283127 -0.77793,0.903536 -0.0799,0.335495 -0.25622,0.49176 -0.64168,0.568854 -0.37476,0.07495 -0.53146,0.20854 -0.53146,0.453067 0,0.190728 -0.0992,0.410994 -0.22049,0.48948 -0.12127,0.07849 -5.34017,0.182389 -11.59757,0.230896 l -11.37708,0.08819 v 5.115277 5.115277 l 11.28889,0.08819 c 6.20889,0.04851 11.42315,0.154437 11.58725,0.235399 0.16411,0.08096 0.32286,0.319088 0.35278,0.529167 0.0381,0.267566 0.19857,0.398568 0.53574,0.437414 0.3939,0.04538 0.51529,0.18155 0.66825,0.749653 0.15138,0.562174 0.26709,0.6942 0.60842,0.6942 0.37655,0 0.43348,0.09869 0.53405,0.926041 0.0619,0.509323 0.0875,1.521354 0.0568,2.248958 -0.0547,1.296264 -0.0656,1.32404 -0.54086,1.37873 -0.30464,0.03505 -0.48507,0.161184 -0.48507,0.339088 0,0.155801 -0.13891,0.574405 -0.30868,0.930234 -0.30517,0.639588 -1.28189,1.232503 -2.03033,1.232503 -0.18178,0 -0.30682,0.134007 -0.30682,0.328803 0,0.257447 -0.17761,0.353145 -0.81838,0.440973 -0.45009,0.06169 -5.41103,0.112169 -11.0243,0.112169 h -10.20594 v 5.279841 5.279844 l 11.10284,0.0559 11.10283,0.0559 0.59133,0.57326 c 0.32522,0.3153 0.76863,0.57326 0.98534,0.57326 0.22126,0 0.43589,0.13534 0.48955,0.30868 0.25682,0.8298 0.6286,1.47722 0.90736,1.58007 0.50585,0.18665 0.56801,0.41635 0.57083,2.10967 0.003,1.74449 -0.0841,2.17519 -0.43972,2.17519 -0.2825,0 -0.96869,1.13168 -0.96869,1.59759 0,0.2402 -0.12158,0.34269 -0.4065,0.34269 -0.22358,0 -0.70981,0.27781 -1.08051,0.61736 l -0.674,0.61736 h -11.09033 -11.09033 v 5.36099 c 0,4.72581 0.0331,5.37368 0.27902,5.46806 0.15345,0.0589 4.81047,0.10706 10.34894,0.10706 8.14081,0 10.12332,0.0451 10.34844,0.23546 0.15316,0.1295 0.74327,0.34263 1.31136,0.47362 0.77691,0.17914 1.07899,0.33936 1.21894,0.64649 0.10232,0.22458 0.31932,0.40832 0.48219,0.40832 0.29586,0 0.70556,0.67058 0.70556,1.15483 0,0.15243 0.17036,0.25628 0.4204,0.25628 0.53473,0 0.63312,0.35636 0.63312,2.29306 0,1.90726 -0.10183,2.29305 -0.60519,2.29305 -0.30509,0 -0.43956,0.15714 -0.60389,0.70556 -0.15418,0.51461 -0.30596,0.70556 -0.56086,0.70556 -0.19264,0 -0.43173,0.18052 -0.53275,0.40224 -0.14855,0.32605 -0.49474,0.47638 -1.82783,0.79375 -1.5959,0.37992 -1.93375,0.39151 -11.41933,0.39151 -7.36743,0 -9.82691,0.0521 -9.98645,0.21166 -0.15443,0.15442 -0.21167,1.53047 -0.21167,5.08794 0,4.4662 0.0266,4.90036 0.31655,5.16274 0.28249,0.25566 1.43498,0.29468 10.71563,0.3628 5.71949,0.042 10.79932,0.13037 11.2885,0.1964 0.7548,0.10189 0.92316,0.1963 1.11236,0.62371 0.12758,0.2882 0.38594,0.5272 0.60399,0.55871 0.25709,0.0371 0.43432,0.24156 0.54476,0.62833 0.12178,0.42647 0.26442,0.57326 0.55711,0.57326 0.49284,0 0.61491,0.52404 0.61118,2.62378 -0.003,1.63991 -0.0779,1.88663 -0.60351,1.98629 -0.21146,0.0401 -0.39781,0.28156 -0.48906,0.6337 -0.0811,0.3129 -0.30263,0.65198 -0.49232,0.7535 -0.18968,0.10152 -0.54147,0.38116 -0.78173,0.62143 -0.24028,0.24027 -0.60489,0.43685 -0.81026,0.43685 -0.20537,0 -0.49246,0.11907 -0.63798,0.26459 -0.14553,0.14552 -0.41298,0.26458 -0.59435,0.26458 -0.18138,0 -0.37883,0.0794 -0.43878,0.17639 -0.0706,0.11428 -3.6718,0.17639 -10.22654,0.17639 -5.56464,0 -10.24308,0.0482 -10.39653,0.10707 -0.24561,0.0942 -0.27951,0.73307 -0.2832,5.33576 -0.005,6.55973 -0.19607,9.35221 -0.66507,9.7324 -0.24915,0.20196 -0.39095,0.70407 -0.56041,1.98437 -0.16649,1.25804 -0.29358,1.71401 -0.47773,1.71401 -0.31427,0 -0.76205,1.04284 -0.76205,1.77473 0,0.40658 -0.0945,0.57606 -0.35976,0.64543 -0.37083,0.097 -0.87496,1.06131 -0.87496,1.67365 0,0.22308 -0.18853,0.41772 -0.52917,0.54629 -0.40807,0.15402 -0.52917,0.30877 -0.52917,0.67622 0,0.38181 -0.10114,0.49869 -0.50904,0.58828 -0.38056,0.0836 -0.53463,0.23982 -0.61046,0.619 -0.0787,0.39319 -0.21204,0.51989 -0.59341,0.56367 -0.39024,0.0448 -0.50362,0.15818 -0.54843,0.54843 -0.0438,0.38119 -0.17051,0.51477 -0.56298,0.59326 -0.35396,0.0708 -0.55994,0.25464 -0.684,0.61047 -0.13365,0.38343 -0.28959,0.50918 -0.63142,0.50918 -0.31235,0 -0.51625,0.13679 -0.65375,0.43855 -0.14771,0.32419 -0.4687,0.51838 -1.23094,0.74465 -0.72385,0.21487 -1.03112,0.39394 -1.03112,0.6009 0,0.34964 -0.20112,0.43999 -1.34447,0.60397 -0.47322,0.0679 -1.01914,0.2609 -1.21317,0.42893 -0.64848,0.5616 -0.8705,0.61921 -3.175,0.82379 -1.26118,0.11197 -2.61056,0.28919 -2.99861,0.39384 -0.43194,0.11649 -2.83932,0.19191 -6.20771,0.19449 -5.48356,0.004 -5.50308,0.005 -5.77673,0.39624 -0.24132,0.34454 -0.27459,1.71146 -0.27459,11.28483 V 212.3 l -0.42418,0.27793 c -0.23329,0.15286 -0.47293,0.47219 -0.53253,0.70961 -0.0596,0.23744 -0.18621,0.4317 -0.28137,0.4317 -0.0952,0 -0.17303,0.19844 -0.17303,0.44097 0,0.31891 -0.0948,0.44097 -0.34237,0.44097 -0.1883,0 -0.39142,0.0794 -0.45138,0.17639 -0.06,0.097 -0.295,0.17639 -0.52232,0.17639 -0.30065,0 -0.46359,0.14425 -0.59778,0.52917 l -0.18447,0.52916 -1.72896,-0.003 c -1.81246,-0.003 -1.96247,-0.0434 -2.27432,-0.61467 -0.10591,-0.19402 -0.52263,-0.45952 -0.92604,-0.59 -0.57097,-0.18466 -0.73347,-0.32461 -0.73347,-0.63165 0,-0.23533 -0.17001,-0.48542 -0.42149,-0.62 -0.23182,-0.12406 -0.50963,-0.41903 -0.61736,-0.65546 -0.13692,-0.30057 -0.19587,-3.75935 -0.19587,-11.49172 v -11.06177 l -0.39688,-0.26293 c -0.32061,-0.21239 -1.30123,-0.27423 -5.10309,-0.32182 l -4.70621,-0.0589 -0.27677,0.53521 c -0.24249,0.46891 -0.27678,1.85671 -0.27678,11.2029 0,9.46272 -0.0313,10.69899 -0.27718,10.94488 -0.15245,0.15245 -0.33442,0.27717 -0.40439,0.27717 -0.07,0 -0.22208,0.35472 -0.33804,0.78829 -0.22917,0.85684 -0.72422,1.29732 -1.67473,1.49013 -0.45187,0.0916 -0.58033,0.21385 -0.62466,0.59418 l -0.0558,0.47879 -1.70807,-0.002 c -1.91424,-0.003 -2.50183,-0.10751 -2.50183,-0.44647 0,-0.36763 -0.51664,-0.78578 -0.97085,-0.78578 -0.27984,0 -0.45466,-0.13021 -0.53284,-0.39687 -0.064,-0.21829 -0.367,-0.60943 -0.67334,-0.86923 l -0.557,-0.47233 -0.049,-11.35015 -0.049,-11.35017 -0.8566,-0.30423 c -1.18965,-0.42253 -7.95384,-0.45458 -8.36877,-0.0397 -0.14552,0.14553 -0.42051,0.26459 -0.61109,0.26459 -0.19057,0 -0.39468,0.12555 -0.45357,0.27901 -0.0589,0.15346 -0.10775,4.97549 -0.1086,10.71562 -8.8e-4,5.74014 -0.0521,10.85764 -0.11389,11.3722 -0.10174,0.84713 -0.15905,0.94493 -0.60605,1.03434 -0.3684,0.0737 -0.50736,0.2153 -0.54757,0.55806 -0.0433,0.36926 -0.18357,0.4898 -0.71533,0.61479 -0.52591,0.12361 -0.66146,0.23802 -0.66146,0.55834 0,0.52518 -0.36666,0.615 -2.52272,0.618 l -1.72897,0.002 -0.18446,-0.52917 c -0.13003,-0.37297 -0.29969,-0.52917 -0.57482,-0.52917 -0.53096,-5e-5 -1.8682,-1.45852 -1.8682,-2.03761 0,-0.30053 -0.13215,-0.49085 -0.41562,-0.59864 -0.30139,-0.11458 -0.44629,-0.34366 -0.52723,-0.83348 -0.0614,-0.37151 -0.11247,-5.33595 -0.11354,-11.0321 -0.002,-10.2929 -0.004,-10.35785 -0.36718,-10.55211 -0.5503,-0.29451 -9.59377,-0.15965 -9.90087,0.14764 -0.18091,0.18101 -0.24879,2.57175 -0.32307,11.37708 -0.0517,6.13137 -0.11126,11.16499 -0.13229,11.18588 -0.51395,0.51004 -1.06989,1.27734 -1.12178,1.5482 -0.0459,0.23966 -0.36117,0.45708 -0.9912,0.68356 -0.66303,0.23834 -0.92389,0.42453 -0.92389,0.65943 0,0.44042 -0.481,0.5362 -2.38125,0.47411 -1.48703,-0.0486 -1.59102,-0.0767 -1.64316,-0.44338 -0.043,-0.30265 -0.27319,-0.46008 -1.01423,-0.69367 -0.53199,-0.16769 -0.95858,-0.40714 -0.95858,-0.53804 0,-0.29619 -0.73808,-1.47738 -1.12253,-1.79645 -0.26146,-0.21699 -0.28883,-1.26947 -0.29128,-11.1981 -0.002,-6.59155 -0.0693,-11.06406 -0.16982,-11.2232 -0.1396,-0.22102 -0.89744,-0.27448 -4.60266,-0.3247 -5.0832,-0.0689 -5.4957,-0.026 -5.78118,0.60052 -0.14582,0.32006 -0.20336,3.24139 -0.20336,10.32549 0,9.78129 -0.004,9.88735 -0.38466,10.70733 -0.21156,0.45549 -0.42984,1.14217 -0.48507,1.52597 -0.0805,0.55921 -0.18781,0.7184 -0.54046,0.80148 -0.24718,0.0582 -0.46809,0.2549 -0.50405,0.44872 -0.0962,0.51888 -0.37634,0.78602 -0.82413,0.78602 -0.28822,0 -0.45437,0.1499 -0.58659,0.52917 l -0.18447,0.52916 -1.90535,-0.003 c -2.03514,-0.003 -2.23436,-0.0552 -2.41492,-0.63444 -0.0681,-0.21831 -0.3489,-0.43931 -0.67837,-0.5338 -0.38148,-0.1094 -0.59487,-0.29946 -0.66373,-0.59115 -0.0623,-0.26383 -0.26594,-0.46872 -0.52716,-0.5304 -0.8184,-0.19319 -0.91992,-1.45165 -1.04596,-12.96515 -0.0627,-5.72382 -0.13132,-10.42679 -0.15256,-10.45104 -0.0212,-0.0243 -0.12368,-0.0441 -0.22762,-0.0441 -0.10394,0 -0.30805,-0.11906 -0.45357,-0.26458 -0.21987,-0.21987 -0.95108,-0.26459 -4.32637,-0.26459 -4.36744,0 -4.98128,0.10591 -5.41357,0.93402 -0.1441,0.27605 -0.21975,3.30646 -0.26069,10.44307 -0.0616,10.74017 -0.16974,12.33596 -0.85305,12.58873 -0.1875,0.0694 -0.43698,0.32122 -0.5544,0.55966 -0.11929,0.24227 -0.46306,0.50739 -0.77916,0.60091 -0.38292,0.11327 -0.62135,0.32699 -0.73794,0.66146 l -0.17224,0.4941 H 38.663 36.63707 l -0.0558,-0.48356 z m 33.95981,-102.22448 0.46841,-0.40249 V 92.548356 c 0,-18.691532 -0.0238,-20.379748 -0.29193,-20.675979 -0.26652,-0.294504 -0.64127,-0.322569 -4.3071,-0.322569 -2.20835,0 -4.14073,0.04818 -4.29419,0.107066 -0.25222,0.09679 -0.27901,2.09381 -0.27901,20.803884 v 20.696822 l 0.39203,0.27458 c 0.32477,0.22748 1.03115,0.27459 4.1177,0.27459 3.62463,0 3.73839,-0.0109 4.19409,-0.40249 z m 21.69481,0.1379 c 0.5587,-0.14552 1.28408,-0.26458 1.61196,-0.26458 0.32789,0 0.71522,-0.11906 0.86074,-0.26458 0.14552,-0.14552 0.50271,-0.26459 0.79375,-0.26459 0.29104,0 0.64823,-0.11906 0.79375,-0.26458 0.14552,-0.14552 0.46869,-0.26458 0.71816,-0.26458 0.24946,0 0.45357,-0.0716 0.45357,-0.15913 0,-0.0875 0.23812,-0.24215 0.52917,-0.34361 0.29104,-0.10146 0.52916,-0.26797 0.52916,-0.37003 0,-0.10206 0.10676,-0.18557 0.23725,-0.18557 0.13048,0 0.38091,-0.15875 0.5565,-0.35277 0.1756,-0.19403 0.38654,-0.35278 0.46876,-0.35278 0.2155,0 2.44166,-2.24595 2.44166,-2.46337 0,-0.10036 0.0751,-0.18246 0.16676,-0.18246 0.16462,0 0.59956,-0.67866 0.81956,-1.27882 0.0622,-0.16978 0.1762,-0.30868 0.25324,-0.30868 0.077,0 0.31084,-0.37703 0.51954,-0.83785 0.20871,-0.46082 0.49346,-1.07597 0.63279,-1.36701 0.49168,-1.02707 0.68965,-2.49546 0.68965,-5.115282 0,-2.73849 -0.19292,-4.049553 -0.77772,-5.285501 -0.18522,-0.391446 -0.46025,-0.989533 -0.61119,-1.329082 -0.35075,-0.78905 -0.65609,-1.266368 -1.34312,-2.099558 -0.19223,-0.233126 -0.34951,-0.530782 -0.34951,-0.661458 0,-0.130676 -0.074,-0.237594 -0.16435,-0.237594 -0.0904,0 -0.63666,-0.467932 -1.21393,-1.039846 -0.57726,-0.571917 -1.21768,-1.093202 -1.42315,-1.158415 -0.20546,-0.06521 -0.3757,-0.212437 -0.3783,-0.327168 -0.006,-0.264156 -2.86201,-1.625633 -4.19281,-1.998734 -2.42458,-0.679745 -6.69047,-0.621251 -8.41427,0.115377 -0.19402,0.08291 -0.86871,0.370696 -1.4993,0.639518 -1.06636,0.454589 -1.72873,0.832211 -2.81813,1.606624 -0.83208,0.591493 -3.35548,3.220608 -3.35548,3.49605 0,0.05206 -0.26615,0.510706 -0.59144,1.019217 -0.32529,0.508512 -0.69398,1.238917 -0.81931,1.623124 -0.12533,0.384206 -0.30177,0.74665 -0.39208,0.805428 -0.0903,0.05878 -0.20529,0.455653 -0.25551,0.881945 -0.0502,0.426291 -0.21149,1.106528 -0.35837,1.511636 -0.33279,0.91787 -0.27267,4.846759 0.0795,5.198949 0.12127,0.12125 0.22049,0.48999 0.22049,0.81943 0,0.32943 0.11173,0.80965 0.24829,1.06715 0.13655,0.2575 0.46873,0.94444 0.73816,1.52652 0.80108,1.73066 1.64046,2.92782 2.93728,4.18923 0.67322,0.65485 1.27846,1.19063 1.34498,1.19063 0.0665,0 0.25687,0.15875 0.423,0.35278 0.16613,0.19402 0.4219,0.35277 0.56837,0.35277 0.14647,0 0.26631,0.0723 0.26631,0.16066 0,0.16894 1.38801,0.89768 1.70978,0.89768 0.10302,0 0.28611,0.11906 0.40688,0.26458 0.12459,0.15012 0.50913,0.26458 0.88885,0.26458 0.36809,0 0.6979,0.0859 0.73292,0.19099 0.035,0.10505 0.53772,0.25817 1.11713,0.34028 0.5794,0.0821 1.33128,0.22616 1.67082,0.32012 0.90123,0.24939 1.39352,0.23817 2.52919,-0.0576 z m -2.5487,-9.24011 c -0.80669,-0.16867 -1.80608,-0.63972 -2.09445,-0.98719 -0.12226,-0.14731 -0.29103,-0.26783 -0.37506,-0.26783 -0.24001,0 -0.86236,-0.58554 -0.86236,-0.81136 0,-0.11208 -0.11906,-0.30259 -0.26458,-0.42337 -0.14553,-0.12077 -0.26711,-0.38845 -0.2702,-0.59486 -0.003,-0.2064 -0.12215,-0.52935 -0.26458,-0.71767 -0.35484,-0.469138 -0.34678,-2.878075 0.0112,-3.351387 0.14244,-0.188316 0.25897,-0.476253 0.25897,-0.639859 0,-0.163608 0.11907,-0.396281 0.26459,-0.517052 0.14552,-0.120772 0.26458,-0.368616 0.26458,-0.550764 0,-0.18215 0.11906,-0.331181 0.26458,-0.331181 0.14552,0 0.26459,-0.08187 0.26459,-0.181924 0,-0.10006 0.1389,-0.232309 0.30868,-0.29389 0.16977,-0.06158 0.58649,-0.325169 0.92604,-0.585752 0.53439,-0.410117 1.90932,-0.770902 2.73403,-0.717419 1.21962,0.07909 2.23637,0.281497 2.39912,0.477602 0.11094,0.133678 0.29121,0.24316 0.4006,0.243294 0.2471,3.52e-4 1.69819,1.27304 1.69819,1.489468 0,0.08701 0.10562,0.283517 0.23469,0.436677 0.43255,0.513237 0.82365,1.868748 0.82365,2.854683 0,1.611814 -0.64939,3.123064 -1.8209,4.237574 -0.99514,0.94674 -3.38878,1.54849 -4.9014,1.23221 z m 30.1719,9.03653 c 0.3674,-0.46708 0.36824,-0.50553 0.36009,-16.423571 -0.006,-11.672885 0.0457,-16.020278 0.19243,-16.197125 0.1559,-0.187841 1.03202,-0.252327 3.93015,-0.289276 l 3.72953,-0.04755 0.0472,-4.366793 0.0472,-4.366794 -12.65899,0.04527 -12.65899,0.04527 -0.0472,4.25605 -0.0472,4.25605 0.39997,0.120525 c 0.21997,0.06629 1.9968,0.11035 3.94849,0.09792 3.14608,-0.02004 3.56118,0.01035 3.66007,0.26806 0.0613,0.159866 0.11154,7.48234 0.11154,16.272162 v 15.981492 l 0.38352,0.40824 c 0.37861,0.40302 0.43383,0.40825 4.30873,0.40825 h 3.9252 z"
       id="path75"
       inkscape:connector-curvature="0" />
  </g>
</svg>
