<?xml version="1.0" encoding="UTF-8" standalone="no"?>
<!-- Created with Inkscape (http://www.inkscape.org/) -->

<svg
   xmlns:dc="http://purl.org/dc/elements/1.1/"
   xmlns:cc="http://creativecommons.org/ns#"
   xmlns:rdf="http://www.w3.org/1999/02/22-rdf-syntax-ns#"
   xmlns:svg="http://www.w3.org/2000/svg"
   xmlns="http://www.w3.org/2000/svg"
   xmlns:sodipodi="http://sodipodi.sourceforge.net/DTD/sodipodi-0.dtd"
   xmlns:inkscape="http://www.inkscape.org/namespaces/inkscape"
   width="233.88962mm"
   height="305.83807mm"
   viewBox="0 0 233.88962 305.83808"
   version="1.1"
   id="svg1328"
   inkscape:version="0.92.2 5c3e80d, 2017-08-06"
   sodipodi:docname="esp8266icon.svg">
  <defs
     id="defs1322" />
  <sodipodi:namedview
     id="base"
     pagecolor="#ffffff"
     bordercolor="#666666"
     borderopacity="1.0"
     inkscape:pageopacity="0.0"
     inkscape:pageshadow="2"
     inkscape:zoom="0.35"
     inkscape:cx="-120.19037"
     inkscape:cy="557.02433"
     inkscape:document-units="mm"
     inkscape:current-layer="layer1"
     showgrid="false"
     inkscape:window-width="1440"
     inkscape:window-height="818"
     inkscape:window-x="0"
     inkscape:window-y="1"
     inkscape:window-maximized="1" />
  <metadata
     id="metadata1325">
    <rdf:RDF>
      <cc:Work
         rdf:about="">
        <dc:format>image/svg+xml</dc:format>
        <dc:type
           rdf:resource="http://purl.org/dc/dcmitype/StillImage" />
        <dc:title></dc:title>
      </cc:Work>
    </rdf:RDF>
  </metadata>
  <g
     inkscape:label="Layer 1"
     inkscape:groupmode="layer"
     id="layer1"
     transform="translate(14.690702,9.6253739)">
    <path
       style="fill:#000000;stroke-width:0.17638887"
       d="m -6.7321724,296.03614 c -0.71602,-0.0831 -1.39071,-0.22236 -1.4993,-0.30953 -0.1086,-0.0872 -0.45542,-0.21366 -0.77071,-0.28107 -0.3153,-0.0674 -0.57327,-0.19565 -0.57327,-0.28496 0,-0.0893 -0.0826,-0.16237 -0.18353,-0.16237 -0.5090296,0 -2.3324296,-1.66336 -3.1098296,-2.83689 -0.7199,-1.08673 -1.06271,-2.06389 -1.37979,-3.93309 -0.22515,-1.32725 -0.26573,-4.41058 -0.26573,-20.18881 0,-16.44865 0.0339,-18.82911 0.29021,-20.39391 0.37156,-2.26822 1.0497,-3.69538 2.44381,-5.14309 1.43165,-1.48668 2.6775196,-2.12207 4.9964296,-2.5481 1.83023,-0.33627 3.72229,-0.34221 108.8876624,-0.34221 h 107.02509 l 1.87314,0.36147 c 1.21719,0.2349 2.22407,0.55069 2.87528,0.90179 1.05539,0.56901 3.10974,2.55755 3.31192,3.20582 0.0654,0.20988 0.1719,0.4213 0.23657,0.46981 0.27938,0.20957 0.72377,1.81179 0.97485,3.51474 0.23024,1.56166 0.27114,4.57383 0.27114,19.96898 0,21.47117 0.002,21.44231 -1.67485,24.06366 -0.68484,1.07059 -0.91503,1.32018 -2.03141,2.20282 -0.71972,0.56901 -1.13896,0.80359 -2.46735,1.38057 -0.24253,0.10534 -1.11358,0.27245 -1.93566,0.37136 -1.85864,0.22359 -215.3646924,0.2069 -217.2946724,-0.0169 z M 205.61899,289.62915 c 1.87879,-0.80945 3.20926,-1.9604 3.95847,-3.42436 0.91294,-1.78389 0.87625,-1.0889 0.93712,-17.7531 0.0509,-13.92518 0.0267,-15.65834 -0.23509,-16.84514 -0.48911,-2.21752 -1.36164,-3.58918 -2.95642,-4.64774 -0.51511,-0.34191 -1.16877,-0.6773 -1.4526,-0.74529 -0.28384,-0.068 -0.62748,-0.21194 -0.76366,-0.31983 -0.18044,-0.14297 -14.57716,-0.19616 -53.09305,-0.19616 -51.5112,0 -52.872177,0.008 -53.903787,0.3366 -2.555542,0.81276 -4.290307,2.73256 -4.875959,5.39603 -0.152797,0.6949 -0.242028,5.24888 -0.314514,16.05139 -0.09336,13.91269 -0.125031,15.12226 -0.408792,15.61042 -0.169176,0.29104 -0.308082,0.62838 -0.30868,0.74965 -5.29e-4,0.12127 -0.08046,0.22048 -0.177476,0.22048 -0.09701,0 -0.176388,0.12944 -0.176388,0.28764 0,0.38954 -2.146484,2.47731 -3.380767,3.2883 -0.897107,0.58943 -2.256871,1.30829 -4.027567,2.12924 -0.570704,0.2646 3.954987,0.28312 59.88402,0.24504 59.4262,-0.0405 60.5155,-0.0473 61.29514,-0.38317 z m -95.33819,-6.21503 c -0.48507,-0.0433 -0.95735,-0.15335 -1.04951,-0.24454 -0.0922,-0.0912 -0.3148,-0.16581 -0.49475,-0.16581 -0.31782,0 -1.36703,-0.41733 -2.5768,-1.02494 -0.75069,-0.37703 -3.02269,-2.45853 -3.02269,-2.76924 0,-0.12835 -0.0595,-0.25982 -0.13229,-0.29217 -0.62247,-0.27665 -1.57562,-4.16888 -1.37103,-5.59867 0.18332,-1.28118 0.66666,-3.19137 0.80752,-3.19137 0.0706,0 0.17819,-0.19843 0.23907,-0.44097 0.0609,-0.24253 0.18854,-0.44097 0.2837,-0.44097 0.0952,0 0.17303,-0.0952 0.17303,-0.21149 0,-0.36527 1.6741,-1.80206 2.71088,-2.32662 0.54631,-0.2764 0.99329,-0.55443 0.99329,-0.61781 0,-0.0634 -0.27626,-0.26401 -0.61391,-0.44585 -1.33573,-0.71933 -3.09026,-2.75885 -3.09026,-3.5922 0,-0.19874 -0.0926,-0.39222 -0.20579,-0.42995 -0.26555,-0.0885 -0.28383,-3.72579 -0.0204,-4.05244 0.10199,-0.12644 0.24058,-0.48786 0.308,-0.80315 0.0674,-0.3153 0.19565,-0.57327 0.28495,-0.57327 0.0893,0 0.16238,-0.0826 0.16238,-0.18353 0,-0.48505 2.14726,-2.80592 2.60173,-2.8121 0.12127,-0.002 0.2214,-0.0625 0.22251,-0.13527 10e-4,-0.0728 0.33846,-0.2845 0.74965,-0.47052 0.4112,-0.18603 0.98072,-0.44531 1.2656,-0.57617 0.88854,-0.40813 3.62379,-0.62089 5.61137,-0.43646 1.66323,0.15432 3.62441,0.6229 3.83664,0.91664 0.0485,0.0671 0.28293,0.18295 0.52094,0.25734 0.23801,0.0744 0.52687,0.22397 0.64191,0.33244 0.11504,0.10848 0.42975,0.35597 0.69935,0.54999 2.63819,1.89865 3.65578,5.93362 2.2514,8.92731 -0.57926,1.23477 -1.4023,2.15316 -2.61791,2.92114 -0.43423,0.27432 -0.78965,0.55413 -0.78982,0.62179 -1.8e-4,0.0676 0.39622,0.32217 0.88087,0.56561 0.48466,0.24341 0.98075,0.52698 1.10244,0.63009 0.89683,0.76013 1.18886,1.05846 1.64435,1.6799 0.28444,0.38805 0.64921,0.98336 0.81061,1.32291 0.47564,1.00067 0.90011,3.20504 0.80076,4.15846 -0.11828,1.13506 -0.47102,2.76191 -0.64727,2.98529 -0.0766,0.097 -0.19981,0.37483 -0.27392,0.61736 -0.19543,0.63961 -1.55859,2.35451 -2.42529,3.05112 -1.10451,0.88777 -2.10815,1.38279 -4.00953,1.97761 -0.98658,0.30862 -4.42403,0.48457 -6.26181,0.32051 z m 4.18764,-4.25601 c 2.36894,-0.89971 3.48486,-2.67251 3.48513,-5.53664 8e-5,-0.84314 -0.0731,-1.57827 -0.16267,-1.63362 -0.0896,-0.0553 -0.21293,-0.32879 -0.27419,-0.60766 -0.11918,-0.54265 -1.28782,-1.88072 -2.06217,-2.36116 -0.25888,-0.16064 -1.02457,-0.40755 -1.70154,-0.5487 -1.08509,-0.22625 -1.36877,-0.22517 -2.39562,0.009 -0.64062,0.14612 -1.16477,0.33858 -1.16477,0.42767 0,0.0891 -0.11612,0.162 -0.25804,0.162 -0.32275,0 -1.64133,1.35481 -1.7933,1.84257 -0.0621,0.19925 -0.19325,0.41388 -0.29149,0.47696 -0.0982,0.0631 -0.2171,0.91413 -0.26415,1.89126 -0.15511,3.22112 0.76725,4.7263 3.66531,5.98131 0.68863,0.29822 2.29656,0.24671 3.2175,-0.10305 z m -0.13952,-15.2272 c 0.0922,-0.0844 0.30316,-0.15353 0.46888,-0.15353 0.16573,0 0.6615,-0.35006 1.10172,-0.77791 2.2719,-2.20803 1.41059,-6.13253 -1.58128,-7.20497 -2.32136,-0.8321 -4.77291,0.11284 -5.75723,2.21906 -0.43195,0.92426 -0.41807,2.91761 0.0264,3.78878 0.65669,1.28723 1.99918,2.23331 3.36912,2.37432 0.822,0.0846 2.16353,-0.0543 2.37243,-0.24575 z m 48.78106,19.48286 c -0.33916,-0.0473 -0.69635,-0.15184 -0.79375,-0.23223 -0.0974,-0.0804 -0.47475,-0.20183 -0.83856,-0.26981 -0.3638,-0.068 -0.66145,-0.18554 -0.66145,-0.26125 0,-0.0757 -0.18966,-0.18522 -0.42145,-0.24341 -0.68284,-0.17138 -2.47358,-1.61744 -3.24401,-2.61961 -0.71687,-0.93248 -1.97652,-3.22403 -1.97813,-3.5986 -5.3e-4,-0.11017 -0.11943,-0.42767 -0.26436,-0.70555 -0.14492,-0.27788 -0.26398,-0.74733 -0.26458,-1.04322 -5.3e-4,-0.29589 -0.08,-0.61688 -0.17642,-0.71331 -0.0964,-0.0965 -0.26499,-1.42886 -0.37456,-2.96092 -0.20849,-2.91527 0.005,-7.71155 0.37444,-8.40133 0.0965,-0.18033 0.17545,-0.51441 0.17545,-0.74242 0,-0.4205 0.50312,-2.01048 0.99245,-3.13639 0.40821,-0.93927 0.84937,-1.84187 0.94833,-1.94028 0.0488,-0.0485 0.31716,-0.42497 0.59639,-0.83661 0.59541,-0.8777 2.3481,-2.51478 2.69236,-2.51478 0.1312,0 0.23853,-0.062 0.23853,-0.13772 0,-0.13695 0.21936,-0.24591 1.79453,-0.8913 1.20154,-0.49231 1.91786,-0.58966 4.29447,-0.58363 2.2084,0.006 3.01754,0.17325 4.6685,0.96735 2.06828,0.99483 3.97067,3.31802 4.06718,4.96683 0.0783,1.33773 -1.8e-4,1.60907 -0.65478,2.26365 -0.56762,0.56764 -0.75182,0.64677 -1.50549,0.64677 -1.31135,0 -2.1762,-0.64501 -2.96302,-2.20982 -0.63355,-1.26 -1.54841,-2.08384 -2.72505,-2.45394 -1.01041,-0.3178 -2.43956,-0.27063 -2.66111,0.0878 -0.0565,0.0914 -0.22031,0.16619 -0.36403,0.16619 -0.14372,0 -0.51033,0.1786 -0.81469,0.39688 -1.76546,1.26617 -2.76027,3.37421 -3.1423,6.65868 -0.0959,0.82462 -0.22191,1.79696 -0.27998,2.16076 -0.0581,0.3638 -0.0374,0.65887 0.046,0.65569 0.0834,-0.003 0.50772,-0.36036 0.94299,-0.79375 0.43526,-0.43338 0.84631,-0.78798 0.91343,-0.78798 0.0671,0 0.22816,-0.0992 0.35782,-0.22049 1.27387,-1.19124 5.06436,-1.75859 7.25281,-1.0856 1.0597,0.32588 2.12371,0.8064 2.2086,0.99741 0.0323,0.0728 0.15142,0.13573 0.26459,0.13993 0.27973,0.0104 1.87425,1.50336 2.54628,2.38411 0.30048,0.39382 0.59993,0.9296 0.66544,1.19062 0.0655,0.26102 0.18359,0.47458 0.26238,0.47458 0.0788,0 0.1984,0.25796 0.26582,0.57326 0.0674,0.3153 0.19207,0.65991 0.27702,0.76583 0.0849,0.1059 0.23318,0.95204 0.32946,1.8803 0.17279,1.66649 0.009,4.17774 -0.32511,4.98269 -0.46226,1.11386 -1.38816,2.85695 -1.69529,3.19156 -0.19598,0.2135 -0.52206,0.57492 -0.72462,0.80317 -0.68718,0.77431 -1.62608,1.50663 -2.36573,1.84517 -1.18644,0.54307 -1.77946,0.77468 -1.98351,0.77468 -0.13144,0 -0.32819,0.0892 -0.43721,0.19823 -0.20813,0.20812 -4.39129,0.36872 -5.51607,0.21177 z m 3.70612,-4.23129 c 0.58062,-0.16141 1.05567,-0.35985 1.05567,-0.44097 0,-0.0811 0.1179,-0.14746 0.26201,-0.14746 0.36273,0 1.81758,-1.89576 1.95732,-2.5505 0.063,-0.29497 0.19383,-0.63485 0.29084,-0.75529 0.097,-0.12044 0.17638,-1.13314 0.17638,-2.25046 0,-1.11732 -0.0794,-2.13002 -0.17638,-2.25046 -0.097,-0.12044 -0.23032,-0.47147 -0.29628,-0.78006 -0.066,-0.30859 -0.23385,-0.65565 -0.37315,-0.77124 -0.13927,-0.11561 -0.25324,-0.29591 -0.25324,-0.40067 0,-0.27298 -1.0838,-1.35382 -1.35752,-1.35382 -0.12649,0 -0.22998,-0.0758 -0.22998,-0.1684 0,-0.0926 -0.29765,-0.21768 -0.66146,-0.27792 -0.3638,-0.0603 -0.86922,-0.18819 -1.12315,-0.2843 -0.33989,-0.12866 -0.73547,-0.0956 -1.49931,0.12541 -2.19463,0.63488 -3.45934,1.95041 -4.00821,4.16924 -0.3602,1.45605 -0.36408,1.92667 -0.0279,3.37638 0.42623,1.83785 1.50037,3.58299 2.5862,4.20174 0.5407,0.30812 1.91639,0.80234 2.31112,0.83026 0.17124,0.0122 0.78639,-0.11005 1.36701,-0.27148 z m 22.39873,4.23312 c -0.33955,-0.0463 -0.69277,-0.15792 -0.78493,-0.24802 -0.0922,-0.0901 -0.28847,-0.16381 -0.43621,-0.16381 -0.14776,0 -0.84933,-0.29081 -1.55905,-0.64623 -1.40185,-0.70205 -2.86553,-1.98138 -3.70036,-3.23432 -0.63683,-0.95577 -1.56764,-2.9149 -1.72402,-3.62868 -0.0622,-0.28405 -0.18496,-0.67521 -0.27274,-0.86924 -0.78877,-1.74369 -0.76817,-12.3965 0.0256,-13.22035 0.0888,-0.0922 0.16145,-0.30767 0.16145,-0.47891 0,-0.72453 0.92082,-2.98319 1.79619,-4.40586 1.50634,-2.4481 3.97384,-4.21052 6.75465,-4.82452 1.09091,-0.24087 4.92077,-0.12216 5.83067,0.18073 1.18539,0.39458 2.43273,1.0044 2.60469,1.27341 0.0776,0.12135 0.21558,0.22064 0.30667,0.22064 0.54449,0 2.39342,2.36185 2.56503,3.27662 0.0627,0.33431 0.18441,0.65133 0.27044,0.7045 0.25075,0.15497 0.18079,1.02956 -0.13443,1.68033 -0.47415,0.9789 -1.07985,1.38066 -2.09044,1.38659 -1.26224,0.007 -2.1947,-0.67562 -2.87932,-2.10915 -1.09603,-2.29498 -3.17928,-3.26872 -5.35624,-2.50358 -1.05918,0.37227 -1.19911,0.46421 -2.19962,1.44525 -0.56887,0.55779 -1.04142,1.407 -1.61948,2.91041 -0.30464,0.79232 -0.98386,5.49651 -0.82212,5.69391 0.0223,0.0272 0.41888,-0.29029 0.8813,-0.70556 1.34912,-1.21154 2.83848,-2.07793 3.57205,-2.07793 0.17995,0 0.41171,-0.0845 0.515,-0.18782 0.2558,-0.2558 3.8015,-0.11601 4.81826,0.18995 1.06136,0.31939 2.57711,1.24111 3.58609,2.18073 0.45485,0.42358 0.827,0.82009 0.827,0.88114 0,0.061 0.15875,0.26975 0.35278,0.46378 0.19402,0.19402 0.35277,0.47184 0.35277,0.61736 0,0.14552 0.0731,0.26458 0.16237,0.26458 0.0893,0 0.21468,0.23813 0.27861,0.52917 0.0639,0.29104 0.17877,0.52916 0.25521,0.52916 0.1469,0 0.43858,1.15128 0.73738,2.91042 0.30799,1.81322 -0.0205,4.18354 -0.83485,6.02387 -0.13525,0.30572 -0.24594,0.64307 -0.24594,0.74966 0,0.10661 -0.074,0.19383 -0.1645,0.19383 -0.0905,0 -0.21549,0.16066 -0.27781,0.35701 -0.29418,0.92689 -3.02819,3.36965 -4.06176,3.62904 -0.23915,0.06 -0.43482,0.17108 -0.43482,0.24677 0,0.0757 -0.29765,0.19327 -0.66146,0.26125 -0.3638,0.068 -0.7611,0.20595 -0.88287,0.3066 -0.23204,0.19174 -4.44596,0.34258 -5.51122,0.19727 z m 3.81046,-4.24822 c 1.1014,-0.33914 2.62722,-1.65779 2.82359,-2.44021 0.0588,-0.23439 0.16985,-0.42618 0.2467,-0.42618 0.15337,0 0.50693,-1.55739 0.64682,-2.8491 0.11365,-1.04932 -0.40039,-3.39048 -0.92864,-4.22954 -1.31291,-2.08534 -3.12596,-2.83954 -5.4524,-2.2681 -2.35956,0.57958 -3.85144,2.83182 -3.85089,5.81364 0,3.28635 1.56536,5.74767 4.09485,6.44109 1.13173,0.31023 1.28603,0.30758 2.41997,-0.0416 z m -62.63616,3.68043 c -1.45037,-0.49668 -2.02847,-1.28342 -2.02847,-2.76061 0,-1.78036 0.82372,-3.13844 3.60362,-5.94124 2.47032,-2.49068 4.73604,-4.57581 6.07482,-5.59062 0.44918,-0.34049 0.90619,-0.70154 1.01557,-0.80233 0.10938,-0.1008 0.37523,-0.30233 0.59077,-0.44785 0.89479,-0.60411 3.00272,-2.89791 3.00272,-3.26748 0,-0.0794 0.10675,-0.26964 0.23722,-0.4228 0.86808,-1.01902 1.1359,-3.82062 0.48686,-5.09286 -0.31456,-0.61659 -1.06236,-1.46953 -1.84814,-2.10799 -0.14866,-0.12079 -0.82895,-0.31542 -1.51177,-0.4325 -1.31285,-0.22513 -3.07922,-0.0123 -3.67335,0.44247 -1.26726,0.97015 -2.51026,2.72351 -2.51026,3.54093 0,0.14512 -0.0733,0.30914 -0.16282,0.36449 -0.0896,0.0553 -0.21114,0.318 -0.2702,0.58367 -0.15919,0.71607 -1.01624,1.59645 -1.8356,1.88553 -0.63564,0.22428 -0.81678,0.22223 -1.51932,-0.0171 -1.24007,-0.42252 -1.59334,-1.05479 -1.58569,-2.83796 0.004,-0.89646 0.0883,-1.53465 0.22049,-1.66687 0.11783,-0.11783 0.21425,-0.3574 0.21425,-0.53238 0,-0.32071 0.3384,-1.01764 0.96752,-1.99256 0.46927,-0.72721 2.38397,-2.55763 2.6754,-2.55763 0.1307,0 0.23763,-0.0794 0.23763,-0.17639 0,-0.097 0.0905,-0.17639 0.20117,-0.17639 0.11064,0 0.52736,-0.15159 0.92604,-0.33689 1.5859,-0.73702 2.61799,-0.91606 5.27127,-0.9144 2.65062,0.002 2.964,0.0387 4.45081,0.52561 2.14678,0.7031 4.64831,2.86859 5.11721,4.42984 0.0728,0.24254 0.18329,0.48066 0.24544,0.52917 0.0621,0.0485 0.25808,0.68351 0.4354,1.41111 0.67875,2.78508 -0.0939,5.68734 -2.25405,8.46667 -0.4901,0.63059 -0.94145,1.18621 -1.00299,1.23472 -0.0615,0.0485 -0.63076,0.5485 -1.26494,1.11111 -0.63417,0.56259 -1.65728,1.42628 -2.27357,1.91932 -0.6163,0.49302 -1.16022,0.94553 -1.20873,1.00556 -0.0485,0.06 -0.48413,0.42665 -0.96805,0.8147 -0.48392,0.38806 -1.00519,0.82462 -1.15837,0.97014 -0.15319,0.14552 -0.67007,0.62211 -1.14862,1.05908 -0.91274,0.83343 -2.36941,2.58219 -2.36941,2.84451 0,0.0844 2.7717,0.15336 6.15932,0.15336 6.52142,0 6.66739,0.0166 7.58596,0.86434 1.14833,1.05972 0.83366,2.98473 -0.60537,3.7034 -0.72681,0.363 -0.93446,0.37076 -9.45506,0.35356 -4.79156,-0.01 -8.87068,-0.072 -9.06471,-0.13838 z m -87.488882,0.5041 c 1.56147,-0.2749 2.73403,-0.59044 2.73403,-0.73575 0,-0.0779 0.12222,-0.14156 0.27161,-0.14156 0.34968,0 1.53004,-0.60293 2.36629,-1.2087 1.94616,-1.40979 2.83773,-2.6479 3.63877,-5.0531 0.40736,-1.2231 0.39512,-4.08379 -0.023,-5.37986 -0.93222,-2.88967 -3.59477,-4.99713 -7.80606,-6.17867 -0.74692,-0.20955 -1.71522,-0.48645 -2.15178,-0.6153 -0.43656,-0.12887 -1.11125,-0.29048 -1.49931,-0.35913 -0.38805,-0.0687 -0.78493,-0.18489 -0.88194,-0.25828 -0.097,-0.0734 -0.53358,-0.19109 -0.97014,-0.26154 -0.43656,-0.0704 -0.87312,-0.18931 -0.97014,-0.26416 -0.097,-0.0748 -0.43435,-0.19124 -0.74965,-0.25865 -0.3153,-0.0674 -0.57326,-0.19565 -0.57326,-0.28496 0,-0.0893 -0.10716,-0.16237 -0.23812,-0.16237 -0.46602,0 -1.70087,-1.06657 -1.96401,-1.69636 -1.13634,-2.71964 1.64154,-5.03351 5.7299,-4.7728 0.82462,0.0526 1.79877,0.18452 2.16478,0.29317 0.72967,0.21663 2.28236,1.68266 2.71133,2.56002 0.52167,1.06693 0.67843,1.32292 0.81017,1.32292 0.074,0 0.13707,0.0992 0.14013,0.22049 0.009,0.34295 0.81215,1.17494 1.32183,1.36872 0.58426,0.22213 1.69352,0.22453 2.2712,0.005 0.2456,-0.0934 0.69499,-0.5101 0.99863,-0.92604 0.53307,-0.73022 0.54918,-0.80483 0.46796,-2.16736 -0.10672,-1.79037 -0.5205,-2.63762 -1.97659,-4.04723 -0.6068,-0.58743 -1.22179,-1.16043 -1.36664,-1.27331 -0.34046,-0.2654 -1.82337,-0.94132 -2.06506,-0.94132 -0.10234,0 -0.18607,-0.0719 -0.18607,-0.15984 0,-0.0879 -0.41672,-0.21585 -0.92604,-0.28433 -0.50932,-0.0685 -1.03391,-0.21187 -1.16574,-0.31868 -0.35345,-0.28633 -6.07287,-0.26894 -7.08044,0.0215 -1.40145,0.40404 -3.05591,0.96813 -3.4294,1.1693 -0.87848,0.47313 -2.04165,1.33787 -2.4608,1.82943 -0.10737,0.12593 -0.32756,0.36405 -0.48932,0.52917 -0.80384,0.82054 -1.71482,3.39644 -1.72809,4.8864 -0.009,1.02596 0.4168,2.89283 0.85678,3.75526 0.52126,1.02175 2.13728,2.706 3.05527,3.18424 0.41579,0.21663 0.87504,0.46564 1.02056,0.55335 0.512,0.30867 3.01332,1.22504 3.66363,1.3422 0.36184,0.0652 0.73727,0.18011 0.83428,0.25539 0.097,0.0753 0.57327,0.19401 1.05834,0.26385 0.48507,0.0698 0.96132,0.18448 1.05833,0.25481 0.097,0.0703 0.63211,0.21627 1.18911,0.32432 1.79524,0.34823 3.31949,1.06543 4.2713,2.00978 0.83903,0.83243 0.87721,0.91309 0.94636,1.99905 0.10921,1.71506 -0.0481,2.22414 -0.98696,3.19324 -1.20264,1.2414 -2.43392,1.76194 -4.62394,1.95486 -1.00277,0.0883 -3.88267,-0.40742 -3.88267,-0.66839 0,-0.0781 -0.17093,-0.19627 -0.37983,-0.26257 -0.72574,-0.23033 -1.6834,-1.45584 -2.62877,-3.364 -1.05031,-2.11998 -1.47347,-2.61465 -2.49969,-2.92211 -1.01981,-0.30554 -2.37073,0.18081 -2.9479,1.06129 -1.2088,1.84404 -0.28885,4.84946 2.28253,7.45683 1.7279,1.75207 3.77786,2.75561 6.43824,3.15182 1.24403,0.18526 5.29764,0.18526 6.35,-2e-5 z m 19.69721,-0.26577 c 0.25425,-0.19083 0.6492,-0.61878 0.87767,-0.95103 0.41034,-0.59671 0.4161,-0.66922 0.47312,-5.95313 l 0.0577,-5.34904 3.91103,-0.008 c 3.08846,-0.006 4.26346,-0.0775 5.58672,-0.33893 1.553162,-0.30688 3.320831,-0.84485 3.527779,-1.07365 0.04851,-0.0536 0.405694,-0.28728 0.79375,-0.51923 0.730146,-0.43644 2.38125,-2.07716 2.38125,-2.36628 0,-0.0903 0.110784,-0.28952 0.246189,-0.44268 0.764911,-0.86521 1.229348,-4.03904 0.969966,-6.62846 -0.119644,-1.19444 -0.296296,-1.87138 -0.713445,-2.73403 -0.554782,-1.14727 -1.967204,-2.99861 -2.287683,-2.99861 -0.09361,0 -0.288662,-0.0992 -0.433454,-0.22049 -0.144793,-0.12127 -0.359724,-0.30007 -0.477624,-0.39735 -0.285163,-0.23527 -1.938262,-0.87281 -3.036588,-1.1711 -0.67237,-0.18261 -2.51664,-0.23954 -7.76111,-0.23954 h -6.87917 l -0.6505,0.40783 c -0.35777,0.22432 -0.83402,0.70057 -1.05833,1.05834 l -0.40783,0.65041 v 13.68233 13.68233 l 0.42271,0.82197 c 0.23249,0.45208 0.56983,0.86866 0.74965,0.92574 0.17982,0.0571 0.32694,0.17228 0.32694,0.25599 0,0.46913 2.73225,0.39346 3.38124,-0.0936 z m 1.38126,-21.87063 v -4.70409 l 3.94184,0.0611 c 2.53714,0.0393 4.03001,0.13101 4.18924,0.25727 0.13606,0.10789 0.44748,0.24375 0.69204,0.30189 0.57959,0.13783 1.463109,1.01078 1.863781,1.84148 0.453886,0.94105 0.526341,2.6035 0.1673,3.83857 -0.367034,1.26254 -1.097441,2.01324 -2.503821,2.57336 -0.93864,0.37382 -1.35566,0.41582 -4.69031,0.4724 l -3.66007,0.0621 z m -42.2475,21.61277 c 0.25387,-0.0965 0.6956,-0.43171 0.98163,-0.74487 0.44691,-0.4893 0.51914,-0.70646 0.51369,-1.5443 -0.005,-0.74704 -0.0976,-1.08023 -0.39687,-1.4254 -0.94247,-1.08717 -0.60278,-1.04883 -9.29197,-1.04883 H 5.5939976 v -4.49791 -4.49792 h 7.0454704 c 6.78631,0 7.06802,-0.0132 7.65846,-0.36167 0.88471,-0.522 1.17107,-1.05745 1.17107,-2.18976 0,-0.537 -0.074,-0.97635 -0.1645,-0.97635 -0.0905,0 -0.21035,-0.14442 -0.26638,-0.32095 -0.056,-0.17653 -0.38157,-0.45435 -0.72342,-0.61737 -0.55004,-0.26229 -1.43271,-0.2964 -7.67113,-0.2964 H 5.5939976 v -3.88055 -3.88056 h 7.5576204 c 8.25365,0 8.26437,-0.002 9.14888,-1.04046 0.52753,-0.6198 0.54484,-1.95196 0.036,-2.77518 -0.20194,-0.32675 -0.47314,-0.59408 -0.60266,-0.59408 -0.12952,0 -0.26856,-0.0992 -0.30896,-0.22049 -0.0576,-0.17291 -2.2205,-0.22048 -10.02477,-0.22048 -9.4054704,0 -9.9846904,0.0182 -10.56004038,0.33155 -0.69561,0.37887 -0.84785,0.52222 -1.33383,1.25595 -0.34214,0.51655 -0.35049,0.85395 -0.35049,14.16164 0,9.83447 0.0548,13.66755 0.19671,13.75833 0.10819,0.0692 0.247,0.28727 0.30846,0.48456 0.11026,0.35396 0.92467,0.94379 1.61149998,1.16711 0.59454,0.19333 19.9466304,0.16909 20.4587504,-0.0256 z m 25.63456,-59.04556 c -0.0373,-0.32339 -0.17267,-0.50168 -0.40859,-0.53826 -0.64517,-0.10003 -1.14652,-0.44479 -1.14652,-0.78839 0,-0.18817 -0.15322,-0.37955 -0.34374,-0.42937 -0.24515,-0.0641 -0.4517,-0.43876 -0.72023,-1.3064 -0.20708,-0.66908 -0.44928,-1.21652 -0.53822,-1.21652 -0.0962,0 -0.1617,-4.19691 -0.1617,-10.35724 v -10.35722 l -0.46841,-0.4025 c -0.46554,-0.40002 -0.50131,-0.40248 -5.84943,-0.40248 -4.15624,0 -5.58529,-0.0579 -6.27847,-0.25452 -0.49359,-0.13998 -1.84722,-0.33106 -3.00807,-0.42462 -1.81256,-0.14608 -2.15301,-0.22246 -2.41082,-0.54084 -0.19438,-0.24005 -0.73736,-0.46946 -1.54036,-0.6508 -0.90366,-0.20407 -1.31169,-0.38924 -1.5038,-0.68244 -0.15096,-0.23039 -0.52349,-0.45111 -0.8716,-0.51643 -0.38236,-0.0717 -0.63977,-0.23574 -0.69371,-0.44199 -0.0527,-0.2017 -0.45064,-0.46364 -1.03367,-0.68046 -0.68448,-0.25454 -0.96351,-0.45579 -1.00403,-0.72411 -0.0373,-0.24716 -0.24216,-0.4198 -0.61171,-0.51557 -0.38315,-0.0993 -0.58697,-0.27781 -0.65667,-0.5752 -0.0646,-0.27559 -0.24709,-0.45226 -0.50567,-0.48955 -0.26391,-0.038 -0.49034,-0.26356 -0.65123,-0.64862 -0.13565,-0.32466 -0.4041,-0.64027 -0.59656,-0.70135 -0.23142,-0.0735 -0.45152,-0.43337 -0.64993,-1.06278 -0.22137,-0.7023 -0.39497,-0.96547 -0.6624,-1.0042 -0.27133,-0.0393 -0.39948,-0.24088 -0.50998,-0.80215 -0.0812,-0.41231 -0.24485,-0.74965 -0.36375,-0.74965 -0.32705,0 -0.8214,-0.95224 -0.8214,-1.58221 0,-0.63703 -0.25364,-1.20916 -0.70614,-1.59279 -0.5116,-0.43374 -0.91635,-5.13413 -0.99789,-11.58857 l -0.0695,-5.50314 -0.45993,-0.36179 c -0.45146,-0.35511 -0.64549,-0.36183 -10.53440038,-0.36444 -10.26180002,-0.003 -10.98613962,-0.0447 -11.61472962,-0.67328 -0.1133,-0.1133 -0.38583,-0.206 -0.60561,-0.206 -0.21979,0 -0.64322,-0.23813 -0.94095,-0.52917 -0.29773,-0.29104 -0.60592,-0.52916 -0.68488,-0.52916 -0.0789,0 -0.26827,-0.3175 -0.4207,-0.70556 -0.19964,-0.50825 -0.37977,-0.70556 -0.64412,-0.70556 -0.35287,0 -0.36696,-0.088 -0.36696,-2.29305 v -2.29306 h 0.52916 c 0.40406,0 0.52917,-0.08 0.52917,-0.33835 0,-0.555 0.19528,-0.89637 0.51276,-0.89637 0.38329,0 0.72196,-0.33954 0.72196,-0.72381 0,-0.47888 1.04155,-0.53424 12.40409962,-0.65933 l 10.55201038,-0.11616 0.51165,-0.61736 0.51164,-0.61737 0.005,-4.28296 c 0.004,-3.64735 -0.0345,-4.29803 -0.25984,-4.3845 -0.14552,-0.0558 -0.26458,-0.20284 -0.26458,-0.32667 0,-0.12382 -0.17859,-0.273 -0.39688,-0.33149 -0.21828,-0.0585 -4.7518704,-0.10745 -10.07464038,-0.10877 -9.38333002,-0.002 -9.72784002,-0.0143 -11.32365962,-0.39424 -1.404,-0.33424 -1.66073,-0.4509 -1.74678,-0.79375 -0.0705,-0.28106 -0.23042,-0.40192 -0.53169,-0.40192 -0.35335,0 -0.46497,-0.12685 -0.6208,-0.70556 -0.15633,-0.58059 -0.26688,-0.70555 -0.62416,-0.70555 h -0.43417 v -2.29306 -2.29305 h 0.43417 c 0.35728,0 0.46783,-0.12496 0.62416,-0.70556 0.15333,-0.56942 0.27007,-0.70555 0.60504,-0.70555 0.28784,0 0.44675,-0.12629 0.51847,-0.41203 0.0838,-0.33395 0.29636,-0.45508 1.12155,-0.63921 0.55998,-0.12494 1.17471,-0.33641 1.36607,-0.46991 0.2855596,-0.19923 2.1698796,-0.24274 10.51179962,-0.24274 H 10.654728 l 0.4684,-0.40249 0.46841,-0.40249 v -4.45387 c 0,-3.49025 -0.0553,-4.58621 -0.25558,-5.06557 l -0.25559,-0.61169 H -0.12932238 c -7.35554002,0 -11.20968962,-0.0607 -11.20968962,-0.17639 0,-0.097 -0.11724,-0.17639 -0.26052,-0.17639 -0.14329,0 -0.39054,-0.19844 -0.54945,-0.44097 -0.19769,-0.3017 -0.44966,-0.44097 -0.79782,-0.44097 -0.43613,0 -0.50972,-0.0694 -0.51475,-0.48507 -0.007,-0.5608 -0.53931,-1.27882 -0.94845,-1.27882 -0.24133,0 -0.2804,-0.30728 -0.2804,-2.20486 0,-1.79569 0.0469,-2.20486 0.25257,-2.20486 0.32476,0 0.92854,-0.8462 1.0085,-1.41343 0.0441,-0.31292 0.18824,-0.4556 0.50282,-0.49775 0.24253,-0.0325 0.66021,-0.26655 0.92816,-0.52011 0.35439,-0.33534 0.7631,-0.49548 1.49931,-0.58748 0.5566596,-0.0695 5.6233996,-0.13316 11.25941962,-0.14135 9.69278038,-0.0141 10.26312038,-0.0323 10.53924038,-0.33745 0.25636,-0.28327 0.29192,-0.89873 0.29192,-5.05174 0,-4.29711 -0.0282,-4.75057 -0.30868,-4.96348 -0.24824,-0.18845 -2.3290304,-0.23581 -10.62743038,-0.24188 -5.67531002,-0.004 -10.62700002,-0.0585 -11.00375962,-0.1207 -0.45728,-0.0755 -0.71333,-0.22149 -0.77022,-0.43903 -0.0469,-0.17924 -0.23788,-0.32588 -0.42445,-0.32588 -0.6636,0 -1.64894,-0.659391 -1.95996,-1.311611 -0.16803,-0.35235 -0.3055,-0.75701 -0.3055,-0.89924 0,-0.15824 -0.17112,-0.25859 -0.44097,-0.25859 h -0.44097 v -2.29306 -2.293055 h 0.43389 c 0.35338,0 0.47311,-0.130916 0.64528,-0.705556 0.18217,-0.608031 0.28067,-0.705555 0.71264,-0.705555 0.41109,0 0.50124,-0.07592 0.50124,-0.4221 0,-0.232156 0.13891,-0.489959 0.30868,-0.572899 0.16978,-0.08294 5.4283696,-0.190648 11.68576962,-0.239358 l 11.37708038,-0.08856 0.0611,-0.440972 c 0.0336,-0.242535 0.17249,-0.504447 0.30868,-0.582028 0.20102,-0.114512 0.24761,-0.886252 0.24761,-4.101042 0,-2.444693 -0.0656,-3.959985 -0.17134,-3.959985 -0.0942,0 -0.23818,-0.257968 -0.31985,-0.573263 l -0.14851,-0.573264 -11.45411038,-0.08819 C -6.8020024,80.284452 -12.055562,80.180552 -12.176832,80.102066 c -0.12127,-0.07849 -0.22049,-0.298752 -0.22049,-0.489479 0,-0.242055 -0.15548,-0.377873 -0.51486,-0.44975 -0.36706,-0.07341 -0.54835,-0.236426 -0.63154,-0.567866 -0.15564,-0.620129 -0.41408,-0.907842 -0.81547,-0.907842 -0.30632,0 -0.33118,-0.165523 -0.33118,-2.204861 0,-2.098623 0.0173,-2.20486 0.35831,-2.20486 0.19707,0 0.40271,-0.138907 0.45697,-0.308681 0.1188,-0.371738 0.41128,-1.091572 0.59103,-1.454633 0.0719,-0.145205 0.5191,-0.372708 0.9938,-0.505564 0.47469,-0.132855 0.89001,-0.313126 0.92293,-0.4006 0.25905,-0.688444 0.15044,-0.681911 11.33603962,-0.681911 9.60179998,0 10.79988038,-0.03051 11.18809038,-0.28487 l 0.43477,-0.28487 V 65.10099 c 0,-3.641288 -0.0443,-4.362353 -0.30689,-4.997277 l -0.30689,-0.741987 -11.11429038,-0.071 C -6.2493624,59.251676 -11.469922,59.1586 -11.737752,59.083893 c -0.29887,-0.08336 -0.52667,-0.294063 -0.58978,-0.545492 -0.0678,-0.270014 -0.27757,-0.448042 -0.61547,-0.522255 -0.32046,-0.07039 -0.51265,-0.224884 -0.51265,-0.412114 0,-0.462962 -0.51086,-1.083565 -0.89195,-1.083565 -0.32186,0 -0.34277,-0.139896 -0.34277,-2.293056 0,-2.16552 0.0194,-2.293055 0.34824,-2.293055 0.37928,0 0.88648,-0.802366 0.88648,-1.402351 0,-0.281145 0.11347,-0.361538 0.51029,-0.361538 0.29088,0 0.55395,-0.113765 0.61183,-0.264583 0.0558,-0.145521 0.25309,-0.264583 0.43833,-0.264583 0.18524,0 0.45533,-0.178594 0.60021,-0.396875 l 0.26341,-0.396875 11.00288962,-0.0882 C 6.0229076,48.710841 11.113118,48.603134 11.282888,48.519993 c 0.28383,-0.138994 0.30903,-0.586242 0.31299,-5.556249 0.002,-2.972796 0.076,-5.722586 0.16363,-6.110641 0.0876,-0.388056 0.25179,-1.816806 0.36482,-3.175 0.1921,-2.308294 0.23897,-2.511935 0.71832,-3.120559 0.32929,-0.4181 0.51367,-0.859973 0.51522,-1.234722 0.004,-0.944959 0.18747,-1.374022 0.63603,-1.486604 0.29882,-0.075 0.41989,-0.229549 0.41989,-0.535996 0,-0.576372 0.45056,-1.416939 0.88377,-1.64879 0.20958,-0.112164 0.35096,-0.369131 0.35096,-0.637912 0,-0.340542 0.13199,-0.499909 0.5423,-0.654784 0.37838,-0.142824 0.57221,-0.354236 0.64125,-0.69942 0.0727,-0.363291 0.2283,-0.520596 0.58585,-0.592106 0.35766,-0.07153 0.51319,-0.228803 0.58593,-0.592503 0.0742,-0.371014 0.23067,-0.524035 0.62424,-0.610478 0.39672,-0.08713 0.55304,-0.242013 0.63892,-0.633033 0.0941,-0.428518 0.20242,-0.517675 0.62885,-0.517675 0.39938,0 0.51516,-0.08013 0.51516,-0.35656 0,-0.382314 0.33768,-0.574618 1.5434,-0.878938 0.62766,-0.15842 0.74965,-0.259865 0.74965,-0.623383 0,-0.388082 0.074,-0.434174 0.69726,-0.434174 0.84868,0 1.53875,-0.291979 1.64434,-0.695747 0.062,-0.236925 0.44169,-0.344606 1.80694,-0.512385 1.04567,-0.128504 1.8045,-0.309545 1.92088,-0.458279 0.41593,-0.531548 1.62126,-0.62468 8.09738,-0.62566 4.13718,-7.06e-4 6.61771,-0.06725 6.83507,-0.183579 0.33133,-0.177324 0.34119,-0.479711 0.34119,-10.4735405 0,-8.9323209 0.0349,-10.319935 0.26458,-10.5105297 0.14552,-0.1207715 0.26458,-0.4036186 0.26458,-0.628549 0,-0.2249304 0.0794,-0.4580207 0.17639,-0.5179786 0.097,-0.059958 0.17639,-0.3009376 0.17639,-0.5355103 0,-0.2602868 0.17185,-0.5390968 0.44097,-0.715432 0.24254,-0.1589149 0.44098,-0.4310248 0.44098,-0.6046888 0,-0.216671 0.23524,-0.390194 0.74965,-0.552978 0.55275,-0.174917 0.76445,-0.341463 0.80602,-0.634099 0.055,-0.387135 0.10988,-0.396875 2.23724,-0.396875 h 2.18088 l 0.0558,0.484232 c 0.0442,0.383165 0.16625,0.502815 0.58498,0.573264 0.3857,0.06489 0.59757,0.244444 0.78148,0.662296 0.13878,0.3152947 0.38362,0.5732634 0.54411,0.5732634 0.6359,0 0.75557,1.8282019 0.82193,12.557107 l 0.0629,10.1758575 0.46196,0.363378 c 0.43917,0.345453 0.68506,0.363377 4.98503,0.363377 3.80826,0 4.58503,-0.0434 4.9151,-0.274584 l 0.39203,-0.274587 v -9.85917 c 0,-8.1946445 0.0447,-10.0306669 0.26458,-10.8749727 0.14552,-0.5586922 0.26459,-1.2769397 0.26459,-1.5961059 0,-0.4412166 0.0761,-0.5803019 0.3175,-0.5803019 0.39953,0 0.74083,-0.33261 0.74083,-0.7219614 0,-0.314717 0.34079,-0.512761 0.88236,-0.512761 0.21695,0 0.36281,-0.175199 0.44056,-0.529166 l 0.11622,-0.529167 h 2.15218 2.15217 l 0.19457,0.515473 c 0.14259,0.377752 0.32964,0.530914 0.70013,0.573264 0.363498,0.04155 0.521033,0.166521 0.560624,0.444736 0.03242,0.227832 0.268149,0.4812649 0.573263,0.6163218 0.395612,0.175115 0.518201,0.3463891 0.518201,0.7240065 0,0.2720458 0.176985,0.8281382 0.3933,1.2357607 0.390507,0.7358677 0.393952,0.8140514 0.485069,11.0071589 0.06179,6.912598 0.153169,10.327363 0.279737,10.453799 0.126464,0.126333 1.857913,0.172441 5.291667,0.140917 l 5.103699,-0.04686 0.09151,-11.1124989 c 0.05033,-6.1118744 0.109862,-11.1205703 0.132291,-11.1304352 0.312487,-0.137438 1.134663,-1.2622347 1.214528,-1.6615628 0.06775,-0.338729 0.212937,-0.525362 0.408702,-0.525362 0.505724,0 1.456371,-0.556624 1.547805,-0.906275 0.07742,-0.296071 0.283817,-0.328447 2.093791,-0.328447 1.793923,0 2.008115,0.03289 2.009923,0.308681 0.0018,0.278463 0.681433,0.692784 1.629574,0.993467 0.175828,0.05576 0.308681,0.272044 0.308681,0.502534 0,0.2252619 0.19467,0.5508285 0.43912,0.7344066 0.24152,0.1813704 0.51889,0.6169287 0.61638,0.9679073 0.10957,0.3944635 0.17763,4.6497463 0.17824,11.1436645 7.1e-4,8.1248945 0.051,10.5737825 0.22147,10.8067485 0.20042,0.273812 0.67797,0.296945 5.247567,0.254199 l 5.02708,-0.04703 0.0882,-10.8206443 0.0882,-10.8206441 0.48507,-0.3866751 c 0.26679,-0.2126714 0.48507,-0.5620586 0.48507,-0.776416 0,-0.5362261 1.14075,-1.7531974 1.7737,-1.8922174 0.40043,-0.08795 0.51936,-0.211842 0.51936,-0.541027 v -0.426957 h 2.29305 2.29306 v 0.434174 c 0,0.356095 0.12484,0.467789 0.6942,0.621102 0.5681,0.152974 0.70427,0.274359 0.74965,0.668257 0.0426,0.3701679 0.16206,0.4936951 0.51707,0.5348786 0.41489,0.048129 0.47277,0.1463466 0.57173,0.9701388 0.0606,0.5041234 0.11081,5.64952494 0.11165,11.4342253 10e-4,9.5671182 0.0279,10.5395142 0.29322,10.7597222 0.23081,0.191549 1.25258,0.242083 4.8948,0.242083 2.5317,0 4.742,-0.05704 4.91178,-0.126757 0.28905,-0.118694 0.30979,-0.82533 0.32626,-11.1124976 0.01,-6.0421588 0.0726,-11.1835459 0.13991,-11.4253048 0.0673,-0.241759 0.31734,-0.5366572 0.55568,-0.6553293 0.23835,-0.1186721 0.47613,-0.3950336 0.52841,-0.6141372 0.063,-0.263937 0.29563,-0.455894 0.68944,-0.568837 0.40737,-0.116833 0.65325,-0.326407 0.78146,-0.666093 l 0.18708,-0.495625 h 2.03617 c 1.91586,0 2.04646,0.02254 2.21029,0.38142 0.1034,0.226516 0.54279,0.519837 1.08191,0.722243 0.83696,0.314231 0.92525,0.403199 1.13163,1.1403057 0.12311,0.4397159 0.40914,0.9994221 0.63561,1.2437916 l 0.41177,0.4443084 V 4.8758734 c 0,6.9482816 0.0626,10.6860566 0.18259,10.9103526 0.1738,0.324745 0.41863,0.341182 5.08157,0.341182 3.64359,0 4.97488,-0.0565 5.19521,-0.220486 0.27108,-0.201766 0.30015,-1.169328 0.34239,-11.3964801 l 0.0462,-11.1759945 0.57326,-0.4785167 c 0.3247,-0.2710317 0.57326,-0.6450326 0.57326,-0.8625466 0,-0.268649 0.10786,-0.384029 0.35899,-0.384029 0.52383,0 1.22852,-0.517528 1.22852,-0.902231 0,-0.307897 0.16218,-0.332491 2.19259,-0.332491 2.13951,0 2.19396,0.0096 2.24896,0.396875 0.0427,0.300446 0.25971,0.461161 0.89328,0.661458 0.6525,0.20628 0.83713,0.34728 0.83785,0.639861 5.3e-4,0.2064021 0.11999,0.4740899 0.26551,0.5948614 0.14552,0.1207715 0.26458,0.3150919 0.26458,0.4318231 0,0.116731 0.19844,0.3986607 0.44098,0.6265101 l 0.44097,0.4142719 V 4.8355545 c 0,8.2834625 0.0497,10.7608635 0.22048,10.9861755 0.19735,0.260373 0.97363,0.296317 7.39433,0.342394 7.08193,0.05082 7.17912,0.05638 7.58472,0.434161 0.29995,0.27936 0.8157,0.439225 1.91019,0.592106 1.38121,0.192929 2.64114,0.715925 2.64463,1.097781 0,0.07276 0.26136,0.132292 0.57932,0.132292 0.5698,0 1.1222,0.289212 1.74833,0.915331 0.17566,0.175666 0.51006,0.319391 0.74311,0.319391 0.31221,0 0.47226,0.139255 0.60819,0.529166 0.1406,0.403331 0.29254,0.529167 0.63897,0.529167 0.31822,0 0.50307,0.127709 0.61644,0.425879 0.089,0.234233 0.34112,0.482753 0.56012,0.552268 0.4595,0.145836 1.68806,1.406742 1.8414,1.889876 0.0571,0.179952 0.29548,0.400048 0.52973,0.489103 0.30019,0.114136 0.42587,0.297865 0.42587,0.622579 0,0.349866 0.12727,0.5087 0.52917,0.660398 0.378,0.142683 0.52916,0.316357 0.52916,0.607984 0,0.224536 0.24354,0.646314 0.5412,0.937287 0.33447,0.326956 0.58037,0.779483 0.64375,1.18468 0.0564,0.360601 0.32415,0.97314 0.59499,1.361195 0.37229,0.533393 0.54318,1.071402 0.70027,2.204861 0.12851,0.927225 0.32563,1.633913 0.51657,1.852083 0.49428,0.564739 0.57425,1.559138 0.68802,8.55486 l 0.10756,6.614583 10.90772,0.08819 10.90771,0.0882 0.32126,0.396875 c 0.17669,0.218281 0.44993,0.396875 0.6072,0.396875 0.15727,0 0.33163,0.119062 0.38747,0.264583 0.0559,0.145521 0.31131,0.264987 0.56773,0.265483 0.40019,7.06e-4 0.50452,0.119382 0.73693,0.837847 0.19669,0.608046 0.37268,0.851718 0.64347,0.890956 0.46872,0.06791 0.57967,0.481662 0.58268,2.172901 0.003,1.792538 -0.13785,2.447396 -0.52721,2.447396 -0.37556,0 -0.62002,0.288082 -0.76667,0.903536 -0.0786,0.329939 -0.25651,0.491816 -0.6204,0.564594 -0.34852,0.06971 -0.54424,0.23785 -0.61775,0.530747 -0.0679,0.27068 -0.2871,0.478762 -0.59457,0.564475 -0.26783,0.07467 -5.46892,0.167823 -11.55797,0.207018 l -11.07101,0.07126 0.0467,5.237864 0.0467,5.237863 10.88869,0.08819 c 10.88841,0.08819 10.88868,0.0882 11.15381,0.466808 0.15776,0.225307 0.61845,0.463373 1.13772,0.587945 0.90055,0.216041 1.12413,0.494007 1.41533,1.759604 0.063,0.273653 0.26185,0.47121 0.54024,0.536605 0.41815,0.09822 0.44341,0.175052 0.49548,1.50717 0.0769,1.965671 -0.0797,2.902978 -0.48505,2.902978 -0.38633,0 -0.6301,0.283127 -0.77793,0.903536 -0.08,0.335496 -0.25622,0.49176 -0.64169,0.568855 -0.37475,0.07495 -0.53146,0.208539 -0.53146,0.453067 0,0.190727 -0.0992,0.410993 -0.22048,0.489479 -0.12127,0.07849 -5.34018,0.182389 -11.59757,0.230896 l -11.37709,0.08819 v 5.115277 5.115277 l 11.28889,0.08819 c 6.20889,0.04851 11.42316,0.154437 11.58725,0.2354 0.16412,0.08096 0.32287,0.319087 0.35278,0.529166 0.0381,0.267566 0.19858,0.398568 0.53575,0.437415 0.39389,0.04538 0.51528,0.18155 0.66825,0.749652 0.15137,0.562175 0.26709,0.6942 0.60842,0.6942 0.37655,0 0.43347,0.09869 0.53405,0.926041 0.0619,0.509323 0.0875,1.521354 0.0568,2.248959 -0.0547,1.296261 -0.0656,1.324031 -0.54087,1.378721 -0.30464,0.0351 -0.48507,0.16119 -0.48507,0.33909 0,0.1558 -0.1389,0.57441 -0.30868,0.93024 -0.30517,0.63958 -1.28188,1.232501 -2.03032,1.232501 -0.18179,0 -0.30683,0.13401 -0.30683,0.3288 0,0.25745 -0.1776,0.35315 -0.81837,0.44097 -0.45009,0.0617 -5.41103,0.11217 -11.02431,0.11217 H 193.4485 v 5.27985 5.27983 l 11.10283,0.0559 11.10284,0.0559 0.59132,0.57326 c 0.32523,0.3153 0.76864,0.57327 0.98535,0.57327 0.22126,0 0.43589,0.13533 0.48955,0.30868 0.25682,0.82979 0.62859,1.47721 0.90736,1.58007 0.50585,0.18664 0.56801,0.41634 0.57083,2.10967 0.003,1.74449 -0.0842,2.17519 -0.43972,2.17519 -0.2825,0 -0.96869,1.13168 -0.96869,1.59758 0,0.2402 -0.12159,0.3427 -0.40651,0.3427 -0.22357,0 -0.70981,0.27781 -1.0805,0.61736 l -0.674,0.61736 H 204.53883 193.4485 v 5.36099 c 0,4.7258 0.0331,5.37367 0.27901,5.46805 0.15346,0.0589 4.81048,0.10707 10.34895,0.10707 8.14081,0 10.12331,0.0451 10.34844,0.23546 0.15315,0.1295 0.74326,0.34263 1.31136,0.47362 0.7769,0.17913 1.07899,0.33935 1.21894,0.64648 0.10232,0.22458 0.31931,0.40833 0.48219,0.40833 0.29586,0 0.70555,0.67057 0.70555,1.15482 0,0.15244 0.17036,0.25629 0.42041,0.25629 0.53472,0 0.63311,0.35636 0.63311,2.29305 0,1.90727 -0.10183,2.29306 -0.60519,2.29306 -0.30508,0 -0.43956,0.15714 -0.60388,0.70555 -0.15418,0.51462 -0.30597,0.70556 -0.56087,0.70556 -0.19263,0 -0.43173,0.18053 -0.53274,0.40224 -0.14856,0.32606 -0.49474,0.47639 -1.82783,0.79375 -1.5959,0.37993 -1.93375,0.39151 -11.41933,0.39151 -7.36743,0 -9.82691,0.0521 -9.98645,0.21167 -0.15443,0.15442 -0.21167,1.53046 -0.21167,5.08794 0,4.46619 0.0266,4.90036 0.31655,5.16274 0.28248,0.25565 1.43497,0.29467 10.71562,0.3628 5.7195,0.042 10.79932,0.13036 11.2885,0.1964 0.75481,0.10188 0.92317,0.19629 1.11237,0.6237 0.12758,0.28821 0.38593,0.5272 0.60399,0.55871 0.25708,0.0372 0.43432,0.24157 0.54476,0.62833 0.12177,0.42648 0.26442,0.57326 0.5571,0.57326 0.49285,0 0.61491,0.52405 0.61119,2.62379 -0.003,1.63991 -0.0779,1.88663 -0.60352,1.98629 -0.21145,0.0401 -0.3978,0.28155 -0.48905,0.63369 -0.0811,0.31291 -0.30263,0.65198 -0.49232,0.7535 -0.18969,0.10152 -0.54148,0.38117 -0.78174,0.62144 -0.24027,0.24027 -0.60489,0.43685 -0.81026,0.43685 -0.20537,0 -0.49246,0.11906 -0.63798,0.26458 -0.14552,0.14552 -0.41298,0.26459 -0.59434,0.26459 -0.18138,0 -0.37883,0.0794 -0.43879,0.17638 -0.0706,0.11429 -3.6718,0.17639 -10.22653,0.17639 -5.56465,0 -10.24308,0.0482 -10.39654,0.10707 -0.2456,0.0943 -0.2795,0.73307 -0.28319,5.33576 -0.005,6.55973 -0.19607,9.35221 -0.66507,9.7324 -0.24915,0.20197 -0.39095,0.70408 -0.56041,1.98438 -0.16649,1.25804 -0.29358,1.714 -0.47773,1.714 -0.31427,0 -0.76205,1.04285 -0.76205,1.77474 0,0.40658 -0.0945,0.57605 -0.35977,0.64542 -0.37082,0.097 -0.87496,1.06132 -0.87496,1.67365 0,0.22308 -0.18852,0.41773 -0.52916,0.5463 -0.40808,0.15402 -0.52917,0.30876 -0.52917,0.67622 0,0.38181 -0.10114,0.49868 -0.50904,0.58827 -0.38056,0.0836 -0.53463,0.23982 -0.61046,0.619 -0.0787,0.39319 -0.21204,0.51989 -0.59341,0.56367 -0.39024,0.0448 -0.50363,0.15819 -0.54843,0.54843 -0.0438,0.38119 -0.17052,0.51477 -0.56298,0.59327 -0.35396,0.0708 -0.55995,0.25463 -0.684,0.61046 -0.13365,0.38343 -0.2896,0.50918 -0.63142,0.50918 -0.31235,0 -0.51626,0.13679 -0.65375,0.43856 -0.14771,0.32418 -0.4687,0.51837 -1.23095,0.74464 -0.72385,0.21488 -1.03112,0.39395 -1.03112,0.60091 0,0.34963 -0.20111,0.43998 -1.34447,0.60397 -0.47321,0.0679 -1.01914,0.2609 -1.21316,0.42892 -0.64848,0.56161 -0.8705,0.61922 -3.175,0.82379 -1.26118,0.11197 -2.61056,0.28919 -2.99862,0.39384 -0.43194,0.11649 -2.83931,0.19191 -6.2077,0.19449 -5.48356,0.004 -5.50309,0.005 -5.77674,0.39624 -0.24132,0.34454 -0.27458,1.71147 -0.27458,11.28483 v 10.89279 l -0.42418,0.27794 c -0.23329,0.15285 -0.47294,0.47219 -0.53254,0.70961 -0.0596,0.23743 -0.1862,0.43169 -0.28137,0.43169 -0.0952,0 -0.17302,0.19844 -0.17302,0.44097 0,0.31892 -0.0948,0.44098 -0.34237,0.44098 -0.1883,0 -0.39143,0.0794 -0.45138,0.17639 -0.06,0.097 -0.29501,0.17638 -0.52232,0.17638 -0.30065,0 -0.4636,0.14425 -0.59778,0.52917 l -0.18447,0.52917 -1.72897,-0.003 c -1.81246,-0.003 -1.96246,-0.0434 -2.27431,-0.61466 -0.10592,-0.19403 -0.52264,-0.45953 -0.92605,-0.59 -0.57096,-0.18467 -0.73347,-0.32461 -0.73347,-0.63165 0,-0.23534 -0.17,-0.48542 -0.42148,-0.62001 -0.23182,-0.12405 -0.50963,-0.41903 -0.61736,-0.65546 -0.13692,-0.30057 -0.19588,-3.75934 -0.19588,-11.49172 v -11.06177 l -0.39687,-0.26292 c -0.32061,-0.21239 -1.30123,-0.27423 -5.10309,-0.32182 l -4.70622,-0.0589 -0.27677,0.53522 c -0.24248,0.46891 -0.27677,1.8567 -0.27677,11.20289 0,9.46272 -0.0313,10.699 -0.27718,10.94488 -0.15245,0.15245 -0.33443,0.27718 -0.40439,0.27718 -0.07,0 -0.22208,0.35472 -0.33804,0.78828 -0.22917,0.85684 -0.72423,1.29732 -1.67474,1.49013 -0.45186,0.0917 -0.58032,0.21386 -0.62466,0.59419 l -0.0558,0.47879 -1.70808,-0.002 c -1.91424,-0.003 -2.50182,-0.10751 -2.50182,-0.44648 0,-0.36763 -0.51664,-0.78577 -0.97085,-0.78577 -0.27985,0 -0.45466,-0.13022 -0.53284,-0.39688 -0.064,-0.21828 -0.367,-0.60942 -0.67335,-0.86923 l -0.55699,-0.47233 -0.049,-11.35015 -0.049,-11.35016 -0.85659,-0.30424 c -1.18966,-0.42252 -7.95385,-0.45457 -8.36877,-0.0396 -0.14552,0.14552 -0.42051,0.26458 -0.61109,0.26458 -0.19058,0 -0.39469,0.12556 -0.45357,0.27901 -0.0589,0.15346 -0.10776,4.97549 -0.1086,10.71563 -8.8e-4,5.74013 -0.0521,10.85763 -0.1139,11.37219 -0.10173,0.84713 -0.15905,0.94494 -0.60605,1.03435 -0.3684,0.0737 -0.50736,0.2153 -0.54756,0.55806 -0.0433,0.36925 -0.18357,0.48979 -0.71533,0.61478 -0.52591,0.12362 -0.66146,0.23802 -0.66146,0.55834 0,0.52518 -0.36666,0.615 -2.52272,0.618 l -1.72897,0.002 -0.18446,-0.52917 c -0.13003,-0.37297 -0.29969,-0.52916 -0.57482,-0.52916 -0.53096,-6e-5 -1.8682,-1.45853 -1.8682,-2.03761 0,-0.30053 -0.13215,-0.49086 -0.41562,-0.59865 -0.30139,-0.11458 -0.44629,-0.34366 -0.52722,-0.83347 -0.0614,-0.37151 -0.11248,-5.33596 -0.11355,-11.0321 -0.002,-10.29291 -0.004,-10.35786 -0.36718,-10.55211 -0.5503,-0.29452 -9.593767,-0.15965 -9.900867,0.14763 -0.1809,0.18101 -0.24879,2.57175 -0.32307,11.37709 -0.0517,6.13136 -0.11126,11.16499 -0.13229,11.18587 -0.51395,0.51005 -1.069896,1.27734 -1.121782,1.5482 -0.04591,0.23966 -0.361174,0.45708 -0.991203,0.68356 -0.663027,0.23834 -0.923883,0.42454 -0.923883,0.65943 0,0.44043 -0.481,0.53621 -2.38125,0.47412 -1.487031,-0.0486 -1.591022,-0.0767 -1.643161,-0.44339 -0.04303,-0.30265 -0.273191,-0.46008 -1.014236,-0.69367 -0.531984,-0.16769 -0.958575,-0.40714 -0.958575,-0.53804 0,-0.29619 -0.738085,-1.47738 -1.122537,-1.79645 -0.261453,-0.21699 -0.288828,-1.26947 -0.291275,-11.1981 -0.0016,-6.59154 -0.0693,-11.06406 -0.169816,-11.2232 -0.1396,-0.22101 -0.897448,-0.27448 -4.602667,-0.32469 -5.0832,-0.0689 -5.495693,-0.0261 -5.781173,0.60051 -0.145827,0.32006 -0.203366,3.24139 -0.203366,10.32549 0,9.78129 -0.0038,9.88735 -0.384654,10.70733 -0.211561,0.45549 -0.429842,1.14217 -0.48507,1.52598 -0.08047,0.5592 -0.18781,0.7184 -0.540461,0.80147 -0.247179,0.0582 -0.468097,0.2549 -0.50405,0.44872 -0.09625,0.51888 -0.376346,0.78602 -0.824136,0.78602 -0.28821,0 -0.45437,0.1499 -0.58659,0.52917 l -0.18447,0.52917 -1.90535,-0.003 c -2.03514,-0.003 -2.23436,-0.0552 -2.41492,-0.63443 -0.0681,-0.21832 -0.3489,-0.43932 -0.67837,-0.53381 -0.38148,-0.1094 -0.59487,-0.29946 -0.66373,-0.59115 -0.0623,-0.26382 -0.26594,-0.46872 -0.52716,-0.5304 -0.81839,-0.19318 -0.91992,-1.45165 -1.04596,-12.96515 -0.0627,-5.72382 -0.13131,-10.42678 -0.15256,-10.45104 -0.0213,-0.0242 -0.12367,-0.0441 -0.22762,-0.0441 -0.10394,0 -0.30805,-0.11906 -0.45357,-0.26458 -0.21987,-0.21987 -0.95108,-0.26458 -4.32637,-0.26458 -4.36744,0 -4.98127,0.1059 -5.41357,0.93401 -0.1441,0.27605 -0.21974,3.30647 -0.26068,10.44307 -0.0616,10.74018 -0.16975,12.33597 -0.85306,12.58873 -0.1875,0.0694 -0.43698,0.32122 -0.5544,0.55967 -0.11929,0.24227 -0.46306,0.50738 -0.77916,0.6009 -0.38291,0.11328 -0.62134,0.32699 -0.73794,0.66146 l -0.17224,0.4941 h -2.02593 -2.02594 l -0.0558,-0.48355 z m 33.959811,-102.22448 0.468408,-0.40249 v -20.35341 c 0,-18.691533 -0.02384,-20.379749 -0.291922,-20.67598 -0.266522,-0.294504 -0.641272,-0.322569 -4.307101,-0.322569 -2.208348,0 -4.140736,0.04818 -4.294186,0.107066 -0.25223,0.09679 -0.27901,2.09381 -0.27901,20.803883 v 20.69682 l 0.39202,0.27459 c 0.32478,0.22748 1.031156,0.27458 4.117706,0.27458 3.624624,0 3.738383,-0.0109 4.194085,-0.40249 z m 21.694811,0.13791 c 0.55869,-0.14552 1.28408,-0.26458 1.61196,-0.26458 0.32789,0 0.71522,-0.11907 0.86074,-0.26459 0.14552,-0.14552 0.50271,-0.26458 0.79375,-0.26458 0.29104,0 0.64823,-0.11906 0.79375,-0.26458 0.14552,-0.14553 0.46869,-0.26459 0.71816,-0.26459 0.24946,0 0.45357,-0.0716 0.45357,-0.15913 0,-0.0875 0.23812,-0.24215 0.52916,-0.3436 0.29105,-0.10146 0.52917,-0.26798 0.52917,-0.37004 0,-0.10206 0.10676,-0.18556 0.23725,-0.18556 0.13048,0 0.38091,-0.15875 0.5565,-0.35278 0.17559,-0.19403 0.38653,-0.35278 0.46876,-0.35278 0.2155,0 2.44166,-2.24595 2.44166,-2.46337 0,-0.10035 0.075,-0.18246 0.16676,-0.18246 0.16462,0 0.59955,-0.67866 0.81956,-1.27882 0.0622,-0.16977 0.17619,-0.30868 0.25324,-0.30868 0.077,0 0.31084,-0.37703 0.51954,-0.83785 0.2087,-0.46081 0.49346,-1.07597 0.63278,-1.36701 0.49168,-1.02707 0.68965,-2.49546 0.68965,-5.11528 0,-2.73849 -0.19291,-4.04955 -0.77772,-5.2855 -0.18521,-0.39144 -0.46025,-0.98953 -0.61118,-1.32908 -0.35075,-0.789051 -0.6561,-1.266371 -1.34313,-2.099561 -0.19222,-0.23312 -0.3495,-0.53078 -0.3495,-0.66146 0,-0.13067 -0.074,-0.23759 -0.16435,-0.23759 -0.0904,0 -0.63666,-0.46793 -1.21393,-1.039847 -0.57727,-0.571916 -1.21768,-1.093202 -1.42315,-1.158415 -0.20547,-0.06521 -0.3757,-0.212437 -0.3783,-0.327167 -0.006,-0.264157 -2.86201,-1.625634 -4.19282,-1.998735 -2.42457,-0.679745 -6.690457,-0.62125 -8.414257,0.115378 -0.19403,0.08291 -0.868714,0.370695 -1.499304,0.639517 -1.066359,0.454589 -1.728731,0.832211 -2.818128,1.606624 -0.832078,0.591494 -3.355483,3.220605 -3.355483,3.496055 0,0.0521 -0.266146,0.5107 -0.591437,1.01921 -0.325291,0.508511 -0.693981,1.238921 -0.819313,1.623131 -0.125329,0.3842 -0.301764,0.74665 -0.392075,0.80542 -0.09031,0.0588 -0.205292,0.45566 -0.255512,0.88195 -0.05022,0.42629 -0.211486,1.10653 -0.358369,1.51164 -0.332793,0.91787 -0.272674,4.84676 0.07955,5.19894 0.121268,0.12126 0.220486,0.49 0.220486,0.81943 0,0.32943 0.11173,0.80965 0.248289,1.06715 0.136558,0.25751 0.468732,0.94444 0.738163,1.52652 0.801077,1.73067 1.640466,2.92783 2.93728,4.18924 0.673222,0.65484 1.278465,1.19062 1.344982,1.19062 0.06652,0 0.256866,0.15875 0.422998,0.35278 0.166132,0.19403 0.421897,0.35278 0.568367,0.35278 0.146472,0 0.26631,0.0723 0.26631,0.16065 0,0.16894 1.38801,0.89768 1.709787,0.89768 0.103013,0 0.286108,0.11906 0.40688,0.26459 0.124583,0.15011 0.509139,0.26458 0.888849,0.26458 0.36809,0 0.6979,0.0859 0.73292,0.19099 0.035,0.10505 0.53772,0.25817 1.11713,0.34027 0.57941,0.0821 1.331277,0.22616 1.670827,0.32013 0.90123,0.24938 1.39351,0.23816 2.52918,-0.0576 z m -2.5487,-9.24011 c -0.806687,-0.16868 -1.806077,-0.63972 -2.094447,-0.98719 -0.12226,-0.14731 -0.29103,-0.26784 -0.37506,-0.26784 -0.24001,0 -0.86236,-0.58554 -0.86236,-0.81135 0,-0.11208 -0.11907,-0.3026 -0.26459,-0.42337 -0.14552,-0.12077 -0.2671,-0.38846 -0.27019,-0.59486 -0.003,-0.20641 -0.12215,-0.52936 -0.264582,-0.71767 -0.35484,-0.46914 -0.346775,-2.87808 0.01122,-3.35139 0.142432,-0.18832 0.258972,-0.47626 0.258972,-0.63986 0,-0.16361 0.11906,-0.39628 0.26458,-0.51705 0.14552,-0.12078 0.26459,-0.36862 0.26459,-0.55077 0,-0.18215 0.11906,-0.33118 0.26458,-0.33118 0.14552,0 0.26458,-0.0819 0.26458,-0.18192 0,-0.10006 0.13891,-0.23231 0.30868,-0.29389 0.16978,-0.0616 0.5865,-0.32517 0.92605,-0.58575 0.53439,-0.41012 1.909307,-0.77091 2.734017,-0.71742 1.21963,0.0791 2.23637,0.28149 2.39913,0.4776 0.11094,0.13368 0.29121,0.24316 0.4006,0.24329 0.2471,3.5e-4 1.69819,1.27304 1.69819,1.48947 0,0.087 0.10561,0.28352 0.23469,0.43668 0.43255,0.51323 0.82364,1.86875 0.82364,2.85468 0,1.61181 -0.64939,3.12307 -1.82089,4.23758 -0.99515,0.94673 -3.38878,1.54849 -4.9014,1.23221 z m 30.1719,9.03652 c 0.3674,-0.46707 0.36824,-0.50552 0.36008,-16.42357 -0.006,-11.672883 0.0457,-16.020276 0.19244,-16.197123 0.15589,-0.18784 1.03201,-0.252326 3.93015,-0.289276 l 3.72953,-0.04755 0.0472,-4.366792 0.0472,-4.366794 -12.65899,0.04527 -12.65898,0.04527 -0.0472,4.25605 -0.0472,4.25605 0.39996,0.120525 c 0.21998,0.06629 1.9968,0.110351 3.94849,0.09792 3.14608,-0.02004 3.56118,0.01035 3.66007,0.26806 0.0613,0.159866 0.11154,7.48234 0.11154,16.27216 v 15.9815 l 0.38353,0.40824 c 0.37861,0.40301 0.43382,0.40824 4.30872,0.40824 h 3.9252 z"
       id="path1395"
       inkscape:connector-curvature="0" />
  </g>
</svg>
