<?xml version="1.0" encoding="UTF-8" standalone="no"?>
<svg
   xmlns:dc="http://purl.org/dc/elements/1.1/"
   xmlns:cc="http://creativecommons.org/ns#"
   xmlns:rdf="http://www.w3.org/1999/02/22-rdf-syntax-ns#"
   xmlns:svg="http://www.w3.org/2000/svg"
   xmlns="http://www.w3.org/2000/svg"
   xmlns:sodipodi="http://sodipodi.sourceforge.net/DTD/sodipodi-0.dtd"
   xmlns:inkscape="http://www.inkscape.org/namespaces/inkscape"
   version="1.0"
   width="132.04395pt"
   height="166.91501pt"
   viewBox="0 0 132.04394 166.91501"
   preserveAspectRatio="xMidYMid meet"
   id="svg170"
   sodipodi:docname="nodered.svg"
   inkscape:version="0.92.2 5c3e80d, 2017-08-06">
  <defs
     id="defs174" />
  <sodipodi:namedview
     pagecolor="#ffffff"
     bordercolor="#666666"
     borderopacity="1"
     objecttolerance="10"
     gridtolerance="10"
     guidetolerance="10"
     inkscape:pageopacity="0"
     inkscape:pageshadow="2"
     inkscape:window-width="1418"
     inkscape:window-height="801"
     id="namedview172"
     showgrid="false"
     inkscape:zoom="1.2604167"
     inkscape:cx="88.409992"
     inkscape:cy="110.32489"
     inkscape:window-x="0"
     inkscape:window-y="0"
     inkscape:window-maximized="0"
     inkscape:current-layer="svg170" />
  <metadata
     id="metadata162">
Created by potrace 1.15, written by Peter Selinger 2001-2017
<rdf:RDF>
  <cc:Work
     rdf:about="">
    <dc:format>image/svg+xml</dc:format>
    <dc:type
       rdf:resource="http://purl.org/dc/dcmitype/StillImage" />
    <dc:title></dc:title>
  </cc:Work>
</rdf:RDF>
</metadata>
  <path
     style="fill:#000000;stroke-width:0.06843191"
     d="m 31.074258,138.17696 c -2.558788,-0.50771 -4.047899,-2.12158 -4.438284,-4.81011 -0.113588,-0.78234 -0.04279,-2.11578 0.149964,-2.82392 0.505083,-1.85569 1.95342,-3.34031 3.598626,-3.68878 0.778362,-0.16487 3.031453,-0.16389 3.896534,0.002 1.496897,0.28651 2.453946,0.99425 3.180699,2.35211 0.465014,0.86886 0.646602,1.63824 0.691296,2.9291 0.0453,1.3077 -0.04874,2.16439 -0.318323,2.8999 -0.551059,1.50351 -2.079878,2.69073 -3.999183,3.10564 -0.70803,0.15305 -2.077226,0.1701 -2.761329,0.0344 z m 2.249127,-2.17829 c 0.02543,-0.0876 0.09945,-0.13064 0.227462,-0.13203 0.250208,-0.003 0.557876,-0.25391 0.619173,-0.50554 0.02696,-0.11073 0.108138,-0.21824 0.180377,-0.23891 0.07224,-0.0207 0.151563,-0.0878 0.176298,-0.14915 0.02472,-0.0615 0.0926,-0.18469 0.150842,-0.27403 0.05824,-0.0894 0.106369,-0.25436 0.106942,-0.36669 0,-0.12093 0.04515,-0.21951 0.109164,-0.24165 0.159205,-0.0551 0.161323,-3.13735 0.0026,-3.32695 -0.0582,-0.0694 -0.106839,-0.22393 -0.108094,-0.34342 -0.0016,-0.16162 -0.03924,-0.22599 -0.146419,-0.25128 -0.101244,-0.0239 -0.144127,-0.0886 -0.144127,-0.21767 0,-0.1098 -0.05777,-0.22017 -0.143609,-0.27439 -0.07898,-0.0499 -0.164121,-0.18313 -0.189167,-0.29609 -0.03182,-0.14338 -0.08657,-0.20542 -0.181385,-0.20542 -0.0747,0 -0.191359,-0.0584 -0.259228,-0.12996 -0.07609,-0.0802 -0.212588,-0.12997 -0.356039,-0.12997 -0.146624,0 -0.258723,-0.042 -0.303204,-0.11372 -0.0582,-0.0938 -0.173442,-0.11371 -0.65722,-0.11371 -0.483782,0 -0.599026,0.0199 -0.657222,0.11371 -0.04864,0.0784 -0.159061,0.11372 -0.355262,0.11372 -0.195134,0 -0.284667,0.0286 -0.284667,0.0904 0,0.0497 -0.08886,0.11054 -0.197454,0.13512 -0.225503,0.051 -0.304312,0.13746 -0.305898,0.33548 -0.0016,0.0835 -0.05845,0.15214 -0.145221,0.17261 -0.110403,0.026 -0.144128,0.0886 -0.144128,0.26752 0,0.19019 -0.02672,0.23352 -0.144132,0.23352 -0.125433,0 -0.144125,0.0434 -0.144125,0.334 0,0.24313 -0.03429,0.35657 -0.126111,0.41702 -0.110301,0.0726 -0.129049,0.2283 -0.149575,1.24183 -0.02606,1.28789 0.01927,1.79559 0.17278,1.93402 0.05659,0.051 0.102906,0.1955 0.102906,0.32104 0,0.12554 0.03574,0.24817 0.07942,0.27251 0.04367,0.0244 0.12519,0.14303 0.181128,0.26376 0.05594,0.12073 0.149921,0.21951 0.208839,0.21951 0.06882,0 0.10713,0.0637 0.10713,0.1787 0,0.2072 0.399695,0.53611 0.651473,0.53611 0.09411,0 0.16948,0.0509 0.192409,0.12997 0.03517,0.12121 0.0983,0.12996 0.936831,0.12996 0.838534,0 0.901677,-0.009 0.936831,-0.12996 z m 10.912747,2.18306 c -0.212371,-0.0484 -0.68259,-0.22143 -1.044926,-0.38431 -1.211349,-0.54453 -1.834904,-1.30409 -2.158773,-2.62965 -0.140106,-0.5734 -0.154376,-0.82766 -0.15586,-2.77566 -0.0016,-2.04792 0.0059,-2.1677 0.16435,-2.66137 0.316197,-0.98485 1.076732,-2.01003 1.842484,-2.48366 0.616692,-0.38144 1.222262,-0.5085 2.423466,-0.5085 1.215932,0 1.600022,0.081 2.289237,0.48268 0.962814,0.56115 1.112084,0.57125 1.232117,0.0834 0.201417,-0.81862 0.143602,-2.83293 -0.102787,-3.58108 -0.102191,-0.31029 -0.143905,-0.35501 -0.442359,-0.47406 -0.18124,-0.0724 -0.518641,-0.14691 -0.749771,-0.16581 -0.610858,-0.0498 -0.671366,-0.13322 -0.701641,-0.96558 l -0.02456,-0.67569 h 2.456423 2.45642 l 0.01833,7.34626 0.01832,7.34627 0.574467,0.20801 c 0.719277,0.26046 0.90284,0.46733 0.90284,1.0175 0,0.57028 -0.05169,0.60313 -1.034419,0.65736 -0.841122,0.0464 -2.497991,-0.0147 -2.728173,-0.10063 -0.126562,-0.0473 -0.154961,-0.10407 -0.238313,-0.47684 -0.105623,-0.47241 -0.5555,-0.43873 -1.579676,0.11815 -1.030837,0.56054 -1.368488,0.66287 -2.274382,0.68928 -0.478919,0.0139 -0.898405,-0.0103 -1.142802,-0.0661 z m 2.923518,-2.18306 c 0.02726,-0.094 0.0983,-0.12997 0.25672,-0.12997 0.160395,0 0.294668,-0.0696 0.501587,-0.25993 0.155414,-0.14295 0.327568,-0.25995 0.382575,-0.25995 0.227461,0 0.249212,-0.25822 0.249212,-2.95852 0,-2.6525 -0.0029,-2.70784 -0.144125,-2.74115 -0.07926,-0.0187 -0.144688,-0.067 -0.145374,-0.10761 -0.0016,-0.0908 -0.278359,-0.32808 -0.449156,-0.385 -0.06937,-0.0231 -0.12611,-0.0867 -0.12611,-0.14151 0,-0.0755 -0.08317,-0.0995 -0.344303,-0.0995 -0.255124,0 -0.376268,-0.0337 -0.46771,-0.12996 -0.09208,-0.097 -0.212586,-0.12998 -0.474709,-0.12998 -0.242192,0 -0.408222,0.0404 -0.534536,0.12998 -0.114631,0.0813 -0.292351,0.12996 -0.474673,0.12996 -0.263632,0 -0.312403,0.0275 -0.511101,0.28788 -0.120807,0.15834 -0.219649,0.31214 -0.219649,0.34178 0,0.0296 -0.06486,0.0904 -0.144127,0.13506 -0.08983,0.0506 -0.14413,0.15154 -0.14413,0.26798 0,0.13216 -0.04216,0.19675 -0.144128,0.2208 -0.120661,0.0286 -0.144127,0.0886 -0.144127,0.36963 0,0.2117 -0.03993,0.37163 -0.108095,0.43313 -0.08993,0.081 -0.108098,0.35327 -0.108098,1.61992 0,1.30997 0.01509,1.52245 0.108098,1.52245 0.0832,0 0.108095,0.0839 0.108095,0.36349 0,0.30884 0.02164,0.36861 0.144127,0.3975 0.0988,0.0233 0.144128,0.0886 0.144128,0.20777 0,0.11962 0.08988,0.24832 0.288257,0.41279 0.158541,0.13144 0.288255,0.26914 0.288255,0.306 0,0.0368 0.125925,0.0669 0.279855,0.0669 0.219238,0 0.288007,0.0283 0.317535,0.12998 0.03471,0.11973 0.0983,0.12996 0.807856,0.12996 0.709555,0 0.773126,-0.0102 0.807851,-0.12996 z m 12.379835,2.1019 c -0.58314,-0.11202 -1.444999,-0.48235 -2.093019,-0.89934 -0.961736,-0.61884 -1.594703,-1.49742 -1.91976,-2.66468 -0.143504,-0.51532 -0.163109,-0.75095 -0.164894,-1.98198 -0.0026,-1.76109 0.14174,-2.4171 0.779016,-3.54157 0.348267,-0.61453 1.295705,-1.5146 1.902137,-1.80705 1.526532,-0.73616 4.588626,-0.71018 5.924524,0.0502 0.935929,0.53278 1.670158,1.52167 2.028084,2.73152 0.122901,0.41544 0.161236,0.77613 0.190818,1.79562 l 0.03702,1.27578 -2.152912,0.0393 c -3.071588,0.0561 -4.909441,0.14541 -5.251657,0.2554 l -0.288259,0.0926 0.01217,0.3911 c 0.0145,0.46636 0.165372,0.76068 0.670297,1.3078 0.45923,0.4976 1.133729,0.93161 1.731673,1.11429 0.395577,0.12084 0.574872,0.13806 1.15302,0.11083 0.692244,-0.0326 1.008687,-0.11414 2.542688,-0.6549 l 0.488863,-0.17232 0.145664,0.30643 c 0.308947,0.64992 0.434742,1.09449 0.359921,1.27195 -0.139323,0.33043 -1.515463,0.80601 -2.86181,0.98901 -0.906634,0.12323 -2.56671,0.11806 -3.233592,-0.0102 z m 3.390539,-7.00675 c 0.0266,-0.16007 0.03616,-0.50978 0.02119,-0.77712 -0.02116,-0.37778 -0.05906,-0.51396 -0.170095,-0.61117 -0.07859,-0.0688 -0.223592,-0.21622 -0.322246,-0.32758 -0.09866,-0.11137 -0.220262,-0.2025 -0.270241,-0.2025 -0.04998,0 -0.09087,-0.0584 -0.09087,-0.12996 0,-0.10766 -0.04803,-0.12997 -0.279849,-0.12997 -0.22406,0 -0.287777,-0.0273 -0.319595,-0.13704 -0.03706,-0.12786 -0.07903,-0.13544 -0.626452,-0.11301 -0.46415,0.019 -0.601367,0.0477 -0.656857,0.13703 -0.04474,0.072 -0.157076,0.11302 -0.310372,0.11302 -0.179632,0 -0.249746,0.0328 -0.277928,0.12997 -0.02075,0.0714 -0.08678,0.12996 -0.146804,0.12996 -0.06452,0 -0.130143,0.0862 -0.160557,0.2112 -0.0283,0.11615 -0.11194,0.2494 -0.185887,0.2961 -0.07394,0.0468 -0.134443,0.15728 -0.134443,0.24574 0,0.0884 -0.04866,0.17763 -0.1081,0.19821 -0.07716,0.0267 -0.108094,0.1354 -0.108094,0.37992 0,0.28142 -0.02894,0.3609 -0.162145,0.44545 l -0.162141,0.10291 0.155482,0.041 c 0.08551,0.0225 0.171658,0.0968 0.191429,0.16494 0.03425,0.11825 0.129188,0.12396 2.056064,0.12396 h 2.02012 z m -55.4914773,6.61064 c 0.1303334,-1.02203 0.3564129,-1.24847 1.4137073,-1.41601 l 0.2619078,-0.0415 0.043872,-2.54476 c 0.1434509,-8.32145 0.1433651,-9.0058 -0.00164,-9.05135 -0.6646756,-0.20968 -1.2551496,-0.47314 -1.4494357,-0.64672 -0.2084941,-0.18628 -0.234209,-0.24904 -0.234209,-0.57166 0,-0.60318 -0.047457,-0.59285 2.7233529,-0.59285 h 2.333627 l 1.924438,2.92423 c 2.379292,3.6154 3.163232,4.76424 4.001333,5.86373 0.360566,0.47301 0.704208,0.94585 0.763661,1.05075 0.117983,0.20818 0.414697,0.30464 0.554314,0.18024 0.193766,-0.17266 0.26785,-1.49577 0.271136,-4.84317 l 0.0033,-3.33697 -0.561552,-0.18475 c -1.000316,-0.3291 -1.276076,-0.56547 -1.276076,-1.09383 0,-0.28637 0.123114,-0.43648 0.41941,-0.5114 0.106222,-0.0268 1.475525,-0.0487 3.042885,-0.0487 2.600481,0 2.866698,0.0103 3.043558,0.11454 0.228762,0.13522 0.302729,0.34873 0.234482,0.67681 -0.07807,0.37521 -0.362987,0.56016 -1.20567,0.78258 l -0.742419,0.196 -0.05395,2.98152 c -0.02968,1.63984 -0.07408,4.67029 -0.09869,6.73431 l -0.04474,3.75276 h -1.148526 c -1.373538,0 -1.682995,-0.0579 -2.025961,-0.37948 -0.139545,-0.13082 -0.788996,-1.05777 -1.443235,-2.05986 -1.933648,-2.96176 -4.58505,-6.78395 -5.120586,-7.38167 -0.08428,-0.0942 -0.233963,-0.26221 -0.332617,-0.37366 -0.09864,-0.11143 -0.217131,-0.20261 -0.263294,-0.20261 -0.151923,0 -0.205899,1.30297 -0.205899,4.9699 v 3.57279 l 0.68459,0.16724 c 0.376532,0.092 0.757247,0.20309 0.846016,0.2469 0.266708,0.13164 0.379071,0.41319 0.379071,0.94985 v 0.4906 h -3.392206 -3.39219 z m 72.2067543,0.31538 c -1.335017,-0.0516 -1.477307,-0.10977 -1.477307,-0.60329 0,-0.50414 0.345833,-0.80171 1.387227,-1.1936 l 0.630558,-0.23727 v -5.67678 -5.67675 l -0.522464,-0.13535 c -1.340975,-0.34733 -1.44724,-0.43184 -1.484975,-1.18111 l -0.02624,-0.52123 4.674078,0.0317 c 5.067518,0.0344 5.26103,0.047 6.247921,0.40529 2.173772,0.78941 3.107458,2.29694 2.783011,4.49344 -0.123111,0.83346 -0.356303,1.18048 -1.365633,2.03226 -0.512996,0.43293 -0.86533,0.7801 -0.86533,0.85269 0,0.0805 0.179403,0.22803 0.522469,0.42991 1.05333,0.6199 1.702868,1.43132 1.966891,2.45707 0.0644,0.25019 0.142998,0.85268 0.174683,1.33888 0.06748,1.03561 0.162276,1.27207 0.625086,1.5592 0.390953,0.24257 0.602325,0.59993 0.602325,1.01838 0,0.47129 -0.104834,0.55787 -0.731956,0.60458 -0.677661,0.0505 -1.750247,-0.0341 -2.099057,-0.16552 -0.149024,-0.0561 -0.396058,-0.20401 -0.548978,-0.32859 -0.493953,-0.40241 -0.701804,-1.02769 -0.906573,-2.72727 -0.1885,-1.56461 -0.285558,-1.80732 -0.951701,-2.37998 -0.766901,-0.6593 -0.82639,-0.67477 -2.580663,-0.67075 -0.83234,0.002 -1.72893,0.0258 -1.992422,0.0531 l -0.479076,0.0496 -0.04418,0.98653 c -0.02428,0.54258 -0.05192,1.50875 -0.06137,2.14701 l -0.0172,1.1605 0.612549,0.19519 c 0.336895,0.10735 0.705385,0.25474 0.818867,0.32754 0.344881,0.2212 0.516002,0.78136 0.332924,1.08982 -0.04027,0.0678 -0.194343,0.15136 -0.342299,0.18541 -0.353074,0.0812 -3.505683,0.1324 -4.881106,0.0792 z m 7.438828,-8.73067 c 0.07768,-0.0634 0.252503,-0.11372 0.395388,-0.11372 0.195552,0 0.265081,-0.0306 0.293847,-0.12996 0.02079,-0.0714 0.08937,-0.12997 0.152536,-0.12997 0.06317,0 0.114845,-0.0466 0.114845,-0.10355 0,-0.0569 0.06488,-0.11886 0.144122,-0.13755 0.0798,-0.0188 0.144134,-0.0886 0.144134,-0.15638 0,-0.0766 0.05086,-0.1224 0.136102,-0.1224 0.09795,0 0.149103,-0.0624 0.182443,-0.2227 0.02551,-0.12249 0.0846,-0.23421 0.131392,-0.24827 0.05868,-0.0176 0.08396,-0.2433 0.08154,-0.72728 -0.0033,-0.58459 -0.02355,-0.71178 -0.12337,-0.76217 -0.07084,-0.0358 -0.119849,-0.14142 -0.119849,-0.2583 0,-0.14315 -0.03986,-0.2072 -0.144132,-0.2318 -0.0798,-0.0188 -0.144122,-0.0886 -0.144122,-0.15636 0,-0.0791 -0.05103,-0.12239 -0.144134,-0.12239 -0.09608,0 -0.144123,-0.0434 -0.144123,-0.12996 0,-0.0714 -0.04083,-0.12998 -0.09076,-0.12998 -0.04989,0 -0.131269,-0.0585 -0.180765,-0.12996 -0.05461,-0.0789 -0.168063,-0.12996 -0.288254,-0.12996 -0.120761,0 -0.233733,-0.0512 -0.289014,-0.13106 -0.08774,-0.12667 -0.152895,-0.13047 -1.945046,-0.11372 l -1.854272,0.0173 -0.019,2.17648 c -0.01044,1.19706 -0.0026,2.21552 0.01793,2.26325 0.02976,0.0699 0.378589,0.0826 1.795152,0.0654 1.552658,-0.0188 1.774504,-0.0345 1.897451,-0.13503 z m 8.317748,8.23784 c 0.02388,-0.51736 0.03928,-0.56366 0.251795,-0.75526 0.153138,-0.13807 0.444564,-0.27251 0.900793,-0.4155 l 0.674418,-0.21139 v -5.73336 -5.73336 l -0.561554,-0.1846 c -1.068777,-0.35137 -1.276074,-0.56165 -1.276074,-1.29445 v -0.39197 h 6.593855 6.59382 v 1.79234 1.79231 l -0.90731,-0.0214 c -0.84772,-0.0202 -0.91623,-0.0314 -1.04263,-0.17241 -0.0744,-0.0828 -0.15481,-0.2584 -0.17867,-0.38988 -0.0239,-0.13149 -0.0757,-0.39257 -0.11551,-0.58021 l -0.0722,-0.34118 h -2.91349 -2.91348 v 2.07199 2.07197 l 1.27913,0.0395 c 0.70354,0.0216 1.98447,0.0579 2.84653,0.0805 l 1.56739,0.041 v 0.95642 0.9564 l -1.7412,0.043 c -0.95766,0.0236 -2.13726,0.043 -2.62132,0.043 -0.48407,0 -0.98146,0.0183 -1.10532,0.0406 l -0.22521,0.0407 v 2.36376 2.36376 h 2.91287 2.91286 l 0.0396,-0.17871 c 0.0218,-0.0983 0.0752,-0.42726 0.11875,-0.73105 0.12495,-0.87267 0.18398,-0.90977 1.44748,-0.90977 h 0.71163 v 1.94949 1.94948 h -6.60123 -6.601243 z m 15.987563,0.0617 c 0,-0.80564 0.1529,-0.99748 1.03276,-1.29574 l 0.44455,-0.15069 0.0181,-5.70905 0.0182,-5.70908 -0.57031,-0.24189 c -0.7591,-0.32197 -0.89859,-0.49795 -0.93318,-1.17741 l -0.0258,-0.50956 4.42184,0.0306 c 5.09461,0.0354 5.02349,0.0287 6.31327,0.59493 1.65071,0.72477 2.29136,1.27596 3.02538,2.60291 0.58945,1.06559 0.6667,1.54793 0.66754,4.16828 8.1e-4,3.59595 -0.2835,4.59816 -1.68025,5.91564 -1.80579,1.70328 -3.09923,1.96619 -9.68723,1.96909 l -3.04468,8.5e-4 z m 8.43147,-1.81744 c 0,-0.0678 0.0757,-0.0975 0.2497,-0.0975 0.17593,0 0.27245,-0.0383 0.32681,-0.12998 0.0424,-0.0714 0.14907,-0.12995 0.23697,-0.12995 0.16162,0 0.55573,-0.31845 0.55573,-0.44905 0,-0.0389 0.0547,-0.0707 0.12147,-0.0707 0.16141,0 0.45505,-0.254 0.45505,-0.39366 0,-0.0612 0.0649,-0.12635 0.14413,-0.14504 0.0792,-0.0188 0.14412,-0.0807 0.14412,-0.13755 0,-0.0569 0.0451,-0.10355 0.10006,-0.10355 0.0583,0 0.12092,-0.10023 0.15005,-0.24023 0.0275,-0.13213 0.11216,-0.31153 0.18818,-0.39866 0.10701,-0.12268 0.13821,-0.26348 0.13821,-0.62405 0,-0.28584 0.0348,-0.49696 0.0901,-0.54683 0.0679,-0.0613 0.0901,-0.53698 0.0901,-1.92676 0,-1.38976 -0.0222,-1.86558 -0.0901,-1.92674 -0.0526,-0.0475 -0.0901,-0.24814 -0.0901,-0.4825 0,-0.51248 -0.0658,-0.80741 -0.18016,-0.80741 -0.0497,0 -0.10962,-0.088 -0.13347,-0.19563 -0.024,-0.1076 -0.15765,-0.29864 -0.29726,-0.42455 -0.15825,-0.14271 -0.25389,-0.29161 -0.25389,-0.39531 0,-0.11173 -0.0473,-0.17755 -0.14412,-0.20037 -0.0797,-0.0188 -0.14413,-0.0886 -0.14413,-0.15636 0,-0.0756 -0.0508,-0.1224 -0.13295,-0.1224 -0.0732,0 -0.19165,-0.0585 -0.26341,-0.12996 -0.0718,-0.0714 -0.18305,-0.12997 -0.24736,-0.12997 -0.0643,0 -0.17248,-0.0585 -0.24036,-0.12996 -0.0679,-0.0714 -0.2048,-0.12997 -0.30426,-0.12997 -0.10932,0 -0.18087,-0.037 -0.18087,-0.0935 0,-0.14402 -0.44591,-0.17463 -2.23398,-0.15328 l -1.62144,0.0193 -0.0185,5.47481 -0.0184,5.47482 h 1.80201 c 1.55375,0 1.80202,-0.0134 1.80202,-0.0974 z m -50.588837,-4.25641 v -0.97475 h 3.242875 3.242874 v 0.97475 0.97475 H 72.474948 69.232073 Z M 2.5009326,72.932666 V 28.581765 H 66.781905 131.06288 V 72.932666 117.28357 H 66.781905 2.5009326 Z M 120.85363,111.88389 c 0.0475,-0.0585 0.23537,-0.11888 0.43149,-0.13873 0.22339,-0.0226 0.39791,-0.0843 0.48926,-0.17262 0.078,-0.0756 0.17317,-0.13745 0.21125,-0.13745 0.0382,0 0.0692,-0.0439 0.0692,-0.0975 0,-0.0676 0.0756,-0.0975 0.24736,-0.0975 0.18407,0 0.25908,-0.0333 0.29311,-0.12996 0.0252,-0.0714 0.0922,-0.12997 0.14899,-0.12997 0.0568,0 0.10324,-0.0585 0.10324,-0.12996 0,-0.0865 0.0479,-0.12997 0.14414,-0.12997 0.0792,0 0.14412,-0.0419 0.14412,-0.0931 0,-0.0511 0.0614,-0.11068 0.13656,-0.13217 0.0835,-0.024 0.15425,-0.12406 0.18212,-0.25802 0.0251,-0.12044 0.0934,-0.23549 0.15168,-0.2557 0.0583,-0.0202 0.10615,-0.0801 0.10615,-0.133 0,-0.053 0.0495,-0.12122 0.1098,-0.15171 0.0654,-0.0329 0.12779,-0.19218 0.15417,-0.39312 0.0266,-0.20318 0.0798,-0.33771 0.13341,-0.33771 0.049,0 0.10931,-0.0914 0.13408,-0.20307 0.0579,-0.2614 0.0592,-5.27662 8.1e-4,-5.41264 -0.0242,-0.0565 -0.089,-0.10279 -0.14412,-0.10279 -0.0723,0 -0.10037,-0.0899 -0.10037,-0.32124 0,-0.24718 -0.0331,-0.34215 -0.14361,-0.41193 -0.0789,-0.0498 -0.16411,-0.18314 -0.18916,-0.29611 -0.0251,-0.11296 -0.0901,-0.2054 -0.14466,-0.2054 -0.0544,0 -0.0991,-0.0564 -0.0991,-0.12534 0,-0.15271 -0.40865,-0.55443 -0.62688,-0.61624 -0.0871,-0.0248 -0.17852,-0.10186 -0.20303,-0.17151 -0.0246,-0.0696 -0.091,-0.12664 -0.14781,-0.12664 -0.0568,0 -0.10325,-0.0299 -0.10325,-0.0666 0,-0.0366 -0.0812,-0.0944 -0.18014,-0.12837 -0.0991,-0.0339 -0.18016,-0.10634 -0.18016,-0.16083 0,-0.0723 -0.0781,-0.0991 -0.28825,-0.0991 -0.19218,0 -0.33631,-0.0433 -0.43239,-0.12996 -0.10848,-0.0978 -0.24022,-0.12997 -0.53277,-0.12997 -0.27898,0 -0.40035,-0.0274 -0.43012,-0.0975 -0.0366,-0.0859 -1.11558,-0.0975 -9.11003,-0.0975 -7.86205,0 -9.08714,0.0127 -9.20841,0.0955 -0.0796,0.0543 -0.29947,0.0963 -0.50981,0.0975 -0.30828,0.002 -0.37623,0.0237 -0.40762,0.13204 -0.0316,0.1089 -0.0983,0.12997 -0.41152,0.12997 -0.3132,0 -0.37992,0.0211 -0.4115,0.12996 -0.0209,0.0718 -0.0983,0.12997 -0.1734,0.12997 -0.07466,0 -0.135734,0.0439 -0.135734,0.0974 0,0.0536 -0.04961,0.0975 -0.110358,0.0975 -0.06066,0 -0.130863,0.0481 -0.155935,0.10707 -0.05375,0.12648 -0.448729,0.47777 -0.537092,0.47777 -0.03383,0 -0.06135,0.0438 -0.06135,0.0975 0,0.0536 -0.04537,0.0976 -0.10082,0.0976 -0.104726,0 -0.403637,0.45541 -0.403637,0.61497 0,0.0501 -0.06488,0.10965 -0.144121,0.13234 -0.119751,0.0343 -0.144132,0.0983 -0.144132,0.37864 0,0.26702 -0.03008,0.35432 -0.144125,0.41855 -0.129247,0.0728 -0.14413,0.15155 -0.14413,0.76294 v 0.68177 h -0.345177 c -0.189845,0 -0.529347,-0.0433 -0.754438,-0.0962 -0.240586,-0.0565 -0.952199,-0.11362 -1.726656,-0.13856 -1.024793,-0.033 -1.345361,-0.0643 -1.443275,-0.14118 -0.08809,-0.0691 -0.347727,-0.10824 -0.864765,-0.13033 -0.573692,-0.0246 -0.77732,-0.0586 -0.910757,-0.15256 -0.112725,-0.0794 -0.289853,-0.12105 -0.514756,-0.12105 -0.238305,0 -0.355537,-0.0297 -0.384368,-0.0975 -0.02999,-0.0705 -0.152324,-0.0975 -0.4408,-0.0975 -0.310141,0 -0.426877,-0.029 -0.522721,-0.12996 -0.06789,-0.0714 -0.212343,-0.12996 -0.321048,-0.12996 -0.123883,0 -0.226428,-0.0485 -0.274773,-0.12997 -0.05452,-0.0919 -0.150889,-0.12996 -0.329085,-0.12996 -0.149626,0 -0.26769,-0.037 -0.290717,-0.0911 -0.02135,-0.0501 -0.14688,-0.10938 -0.279029,-0.13174 -0.132157,-0.0224 -0.257427,-0.081 -0.2784,-0.13022 -0.02095,-0.0492 -0.137596,-0.10927 -0.25918,-0.13337 -0.121586,-0.0241 -0.221064,-0.0821 -0.221064,-0.12914 0,-0.0989 -0.156815,-0.16424 -0.394534,-0.16424 -0.0916,0 -0.185214,-0.0438 -0.208029,-0.0976 -0.02282,-0.0535 -0.09114,-0.0975 -0.151842,-0.0975 -0.06228,0 -0.110362,-0.0566 -0.110362,-0.12999 0,-0.084 -0.048,-0.12995 -0.13572,-0.12995 -0.07516,0 -0.152552,-0.0581 -0.173412,-0.12997 -0.02747,-0.0947 -0.09831,-0.12995 -0.260629,-0.12995 -0.150124,0 -0.22294,-0.0318 -0.22294,-0.0976 0,-0.0535 -0.02666,-0.0975 -0.05934,-0.0975 -0.0952,0 -0.805449,-0.62086 -0.805449,-0.70408 0,-0.0416 -0.06105,-0.0757 -0.135729,-0.0757 -0.07508,0 -0.15255,-0.0581 -0.173403,-0.12997 -0.02747,-0.0947 -0.09831,-0.12996 -0.260629,-0.12996 -0.131343,0 -0.222941,-0.0336 -0.222941,-0.0819 0,-0.045 -0.09947,-0.15473 -0.221046,-0.24369 -0.379591,-0.277757 -0.643719,-0.517662 -0.643719,-0.584693 0,-0.03548 -0.04997,-0.06434 -0.11099,-0.06434 -0.06105,0 -0.234366,-0.116973 -0.38519,-0.259929 -0.154369,-0.146341 -0.342062,-0.259936 -0.429494,-0.259936 -0.09111,0 -0.155283,-0.04101 -0.155283,-0.09908 0,-0.05453 -0.0811,-0.126873 -0.18016,-0.160839 -0.09908,-0.03398 -0.180161,-0.09041 -0.180161,-0.125419 0,-0.03501 -0.113499,-0.08287 -0.252226,-0.106312 -0.153539,-0.02603 -0.252228,-0.08038 -0.252228,-0.138995 0,-0.05299 -0.06488,-0.111618 -0.144122,-0.130314 -0.07922,-0.01866 -0.144124,-0.0713 -0.144124,-0.116927 0,-0.09291 -0.156922,-0.161833 -0.368482,-0.161833 -0.07728,0 -0.159154,-0.04383 -0.181977,-0.09748 -0.02282,-0.05359 -0.09784,-0.09746 -0.16672,-0.09746 -0.06886,0 -0.183947,-0.05847 -0.255686,-0.129972 -0.07173,-0.07148 -0.186479,-0.129964 -0.254992,-0.129964 -0.0685,0 -0.141511,-0.05847 -0.162237,-0.129964 -0.02775,-0.09565 -0.0983,-0.129964 -0.267282,-0.129964 -0.126271,0 -0.312037,-0.05847 -0.412809,-0.129964 -0.100786,-0.07148 -0.2305,-0.129972 -0.288259,-0.129972 -0.05778,0 -0.187481,-0.05847 -0.288254,-0.129965 -0.100786,-0.07147 -0.252721,-0.129963 -0.337655,-0.129963 -0.08495,0 -0.209957,-0.05847 -0.277839,-0.129971 -0.07853,-0.0827 -0.212579,-0.129965 -0.368615,-0.129965 -0.151494,0 -0.261076,-0.03724 -0.2867,-0.09747 -0.02927,-0.06875 -0.148251,-0.09746 -0.404065,-0.09746 -0.314533,0 -0.362582,-0.01722 -0.362582,-0.129964 0,-0.114119 -0.04803,-0.129972 -0.393815,-0.129972 -0.32006,0 -0.40826,-0.02431 -0.470952,-0.129963 -0.05857,-0.0987 -0.150886,-0.129965 -0.383643,-0.129965 -0.168589,0 -0.433729,-0.05847 -0.589216,-0.129972 -0.176158,-0.08098 -0.424975,-0.129965 -0.660236,-0.129965 -0.282654,0 -0.395026,-0.02817 -0.447147,-0.112174 -0.05395,-0.08693 -0.192716,-0.117791 -0.616129,-0.137068 -0.466055,-0.02124 -0.546501,-0.04194 -0.546501,-0.140802 0,-0.06378 0.04559,-0.131693 0.101306,-0.150963 0.05572,-0.01926 0.123148,-0.124758 0.149854,-0.234391 0.02669,-0.109643 0.09463,-0.199346 0.150923,-0.199346 0.0563,0 0.102368,-0.05847 0.102368,-0.129964 0,-0.08664 0.04803,-0.129973 0.144128,-0.129973 0.07926,0 0.144126,-0.04049 0.144126,-0.08989 0,-0.04948 0.06486,-0.105191 0.144132,-0.123877 0.110393,-0.02603 0.144126,-0.08864 0.144126,-0.267512 0,-0.159377 0.0328,-0.233527 0.103237,-0.233527 0.05678,0 0.123828,-0.05847 0.148986,-0.129965 0.02517,-0.07148 0.08935,-0.129972 0.142649,-0.129972 0.05649,0 0.116716,-0.105746 0.144411,-0.253559 0.03255,-0.173716 0.09126,-0.26389 0.186493,-0.286345 0.09988,-0.02354 0.138991,-0.08992 0.138991,-0.235847 0,-0.120556 0.04393,-0.218272 0.108094,-0.240469 0.05945,-0.02054 0.108099,-0.08575 0.108099,-0.144792 0,-0.05906 0.06485,-0.143907 0.144126,-0.188542 0.07927,-0.04469 0.144128,-0.150618 0.144128,-0.235494 0,-0.09968 0.05104,-0.166363 0.144127,-0.188312 0.103539,-0.0244 0.144126,-0.08864 0.144126,-0.228075 0,-0.110712 0.04545,-0.209806 0.105819,-0.230694 0.0582,-0.02012 0.157286,-0.132926 0.220195,-0.250639 0.231618,-0.433448 0.286748,-0.50645 0.382427,-0.50645 0.05375,0 0.114719,-0.05847 0.135453,-0.129963 0.02075,-0.07148 0.08254,-0.129964 0.137371,-0.129964 0.05483,0 0.09969,-0.05847 0.09969,-0.129963 0,-0.08665 0.04803,-0.129974 0.144128,-0.129974 0.08007,0 0.144126,-0.0433 0.144126,-0.09746 0,-0.05359 0.05168,-0.09748 0.114843,-0.09748 0.06316,0 0.131595,-0.05779 0.152072,-0.128363 0.02422,-0.08356 0.122492,-0.142788 0.28151,-0.169693 0.134354,-0.02278 0.24428,-0.07935 0.24428,-0.125856 0,-0.04794 0.124648,-0.103521 0.288254,-0.128449 0.177221,-0.02697 0.288255,-0.07927 0.288255,-0.135673 0,-0.06746 0.100826,-0.09176 0.38034,-0.09176 0.291152,0 0.409265,-0.03048 0.503742,-0.129963 0.11069,-0.116575 0.212581,-0.129963 0.988871,-0.129963 h 0.865476 v 0.55299 c 0,0.472577 0.02095,0.569174 0.144123,0.66427 0.09691,0.07482 0.144132,0.191702 0.144132,0.35677 0,0.158848 0.05086,0.291362 0.144124,0.37546 0.0793,0.07148 0.144132,0.215722 0.144132,0.320535 0,0.133498 0.0432,0.202924 0.144124,0.231815 0.0793,0.0227 0.144122,0.08312 0.144122,0.134355 0,0.05119 0.06488,0.09308 0.144133,0.09308 0.09609,0 0.144132,0.04331 0.144132,0.129971 0,0.07148 0.04156,0.129964 0.0923,0.129964 0.05079,0 0.129231,0.08824 0.174373,0.196084 0.05323,0.127242 0.170346,0.229343 0.333478,0.290815 0.138279,0.05213 0.26249,0.117379 0.276029,0.145072 0.05306,0.108494 0.617732,0.407757 0.769403,0.407757 0.08829,0 0.179209,0.04383 0.202016,0.09747 0.0366,0.08601 1.227549,0.09704 10.140728,0.09375 l 10.099267,-0.0035 0.36032,-0.189168 c 0.19816,-0.104051 0.44948,-0.222202 0.55849,-0.262563 0.10899,-0.04041 0.19818,-0.114394 0.19818,-0.164506 0,-0.05007 0.0363,-0.09111 0.0808,-0.09111 0.0444,0 0.21993,-0.08038 0.39009,-0.178706 0.22802,-0.13171 0.32135,-0.234239 0.35491,-0.389893 0.0263,-0.12266 0.0895,-0.211201 0.15039,-0.211201 0.0576,0 0.10482,-0.04186 0.10482,-0.0931 0,-0.05119 0.0649,-0.111652 0.14413,-0.134345 0.10045,-0.02876 0.14414,-0.09833 0.14414,-0.229531 0,-0.121779 0.051,-0.212853 0.14412,-0.257837 0.10311,-0.04974 0.14413,-0.136068 0.14413,-0.303287 0,-0.128552 0.0658,-0.329874 0.14644,-0.447391 0.14197,-0.207152 0.14582,-0.296052 0.1261,-2.92094 -0.0186,-2.490868 -0.0303,-2.713925 -0.14644,-2.790395 -0.091,-0.0601 -0.1261,-0.173639 -0.1261,-0.40953 0,-0.271765 -0.0243,-0.332107 -0.14413,-0.360399 -0.0792,-0.01874 -0.14412,-0.08817 -0.14412,-0.154412 0,-0.06626 -0.0649,-0.156939 -0.14414,-0.20158 -0.0815,-0.04589 -0.14413,-0.151537 -0.14413,-0.243074 0,-0.100596 -0.0408,-0.161901 -0.10808,-0.161901 -0.0595,0 -0.10811,-0.04477 -0.10811,-0.09951 0,-0.05469 -0.0538,-0.118168 -0.11974,-0.140947 -0.0659,-0.02277 -0.22509,-0.142146 -0.35383,-0.265236 -0.2384,-0.227919 -0.39272,-0.324061 -0.80064,-0.498822 -0.12609,-0.05403 -0.24962,-0.127909 -0.27448,-0.164197 -0.0249,-0.03628 -0.13556,-0.066 -0.24599,-0.066 -0.11042,0 -0.25947,-0.05847 -0.3312,-0.129965 -0.12922,-0.128747 -0.22195,-0.129963 -9.917428,-0.129963 -9.713224,0 -9.787564,8.38e-4 -9.864122,0.129963 -0.0569,0.09591 -0.150881,0.129965 -0.358602,0.129965 -0.154809,0 -0.30274,0.03108 -0.328742,0.06899 -0.026,0.03793 -0.125212,0.09571 -0.220445,0.128364 -0.09525,0.03261 -0.173159,0.103949 -0.173159,0.158452 0,0.06516 -0.06896,0.09908 -0.201142,0.09908 -0.142453,0 -0.278481,0.07584 -0.466183,0.259935 -0.145762,0.142959 -0.29846,0.259927 -0.339331,0.259927 -0.04082,0 -0.07433,0.05847 -0.07433,0.129973 0,0.08664 -0.048,0.129963 -0.144124,0.129963 -0.09609,0 -0.144131,0.04332 -0.144131,0.129964 0,0.07148 -0.06488,0.188449 -0.144123,0.259928 -0.07931,0.07148 -0.144134,0.203361 -0.144134,0.293065 0,0.08969 -0.06488,0.21317 -0.144122,0.274377 -0.08299,0.06403 -0.144133,0.191694 -0.144133,0.300864 0,0.105618 -0.05584,0.226362 -0.126108,0.272604 -0.106082,0.06986 -0.129899,0.212854 -0.15001,0.900682 l -0.02388,0.817661 h -0.806825 c -0.570162,0 -0.848549,0.02638 -0.949092,0.08987 -0.08348,0.05273 -0.390522,0.100018 -0.743087,0.114461 -0.46593,0.0191 -0.621379,0.04999 -0.69242,0.137582 -0.05345,0.06591 -0.186161,0.112971 -0.318579,0.112971 -0.137789,0 -0.275458,0.0511 -0.350372,0.129972 -0.06788,0.07148 -0.19231,0.129965 -0.276525,0.129965 -0.08421,0 -0.2279,0.05847 -0.319303,0.129963 -0.104175,0.0815 -0.269618,0.129963 -0.443408,0.129963 -0.20562,0 -0.277227,0.02669 -0.277227,0.103564 0,0.05692 -0.06486,0.118853 -0.144132,0.13754 -0.07975,0.01884 -0.144127,0.08864 -0.144127,0.15638 0,0.0791 -0.05102,0.122381 -0.144127,0.122381 -0.07926,0 -0.144127,0.04066 -0.144127,0.09024 0,0.05154 -0.107114,0.108367 -0.249471,0.132447 -0.214359,0.0362 -0.256066,0.07387 -0.296276,0.267162 -0.02574,0.123731 -0.08966,0.224966 -0.142023,0.224966 -0.05236,0 -0.115806,0.05847 -0.140963,0.129963 -0.02517,0.07148 -0.09511,0.129964 -0.155449,0.129964 -0.138458,0 -0.379467,0.255819 -0.382632,0.406148 -0.0016,0.06737 -0.05784,0.113716 -0.138507,0.113716 -0.0985,0 -0.149182,0.06283 -0.183424,0.22744 -0.02834,0.136146 -0.0894,0.227441 -0.152149,0.227441 -0.05765,0 -0.104831,0.05145 -0.104831,0.114334 0,0.06292 -0.06486,0.15086 -0.144127,0.195501 -0.09195,0.05179 -0.144127,0.151545 -0.144127,0.275568 0,0.134553 -0.03534,0.19439 -0.114841,0.19439 -0.06317,0 -0.131805,0.05847 -0.152534,0.129971 -0.02075,0.07148 -0.07894,0.129964 -0.129362,0.129964 -0.05042,0 -0.113285,0.103889 -0.1397,0.230856 -0.02639,0.126977 -0.09489,0.24707 -0.152147,0.266888 -0.06248,0.02157 -0.10412,0.12422 -0.10412,0.256511 0,0.177176 -0.02834,0.220491 -0.144128,0.220491 -0.08952,0 -0.144127,0.04331 -0.144127,0.114333 0,0.06292 -0.06486,0.150859 -0.144127,0.1955 -0.08226,0.04631 -0.144126,0.151546 -0.144126,0.24511 0,0.09018 -0.045,0.179521 -0.100011,0.198558 -0.05501,0.019 -0.118482,0.117886 -0.141058,0.219678 -0.04099,0.18481 -0.352706,0.521429 -0.482847,0.521429 -0.03785,0 -0.0688,0.03356 -0.0688,0.07456 0,0.135709 -0.510637,0.639205 -0.689263,0.679634 -0.09652,0.02182 -0.175504,0.06446 -0.175504,0.09471 0,0.118441 -0.376392,0.385808 -0.543144,0.385808 -0.09824,0 -0.216124,0.05753 -0.266282,0.129963 -0.06298,0.09093 -0.168055,0.129972 -0.349761,0.129972 -0.168233,0 -0.305707,0.04579 -0.390186,0.129965 -0.115834,0.115411 -0.221955,0.129964 -0.947998,0.129964 l -0.817564,-2.6e-5 v -0.456852 c 0,-0.33197 -0.02764,-0.466489 -0.101009,-0.49188 -0.05556,-0.01926 -0.122201,-0.13681 -0.148104,-0.261304 -0.0259,-0.124496 -0.09394,-0.242568 -0.151211,-0.262386 -0.05726,-0.01977 -0.104123,-0.07252 -0.104123,-0.117063 0,-0.0446 -0.08107,-0.159908 -0.180156,-0.256322 -0.09908,-0.09642 -0.180159,-0.217657 -0.180159,-0.269422 0,-0.0518 -0.04487,-0.09413 -0.0997,-0.09413 -0.05484,0 -0.115505,-0.05453 -0.13483,-0.121162 -0.02259,-0.0779 -0.128476,-0.136951 -0.296662,-0.165396 -0.14591,-0.02465 -0.261522,-0.0827 -0.261522,-0.131196 0,-0.04785 -0.06486,-0.102246 -0.144128,-0.120933 -0.07926,-0.01866 -0.144125,-0.08055 -0.144125,-0.137549 0,-0.07463 -0.06907,-0.103554 -0.24737,-0.103554 -0.184079,0 -0.259069,-0.0333 -0.293111,-0.129972 -0.03805,-0.10805 -0.109033,-0.129964 -0.421206,-0.129964 -0.241658,0 -0.438952,-0.04058 -0.553639,-0.113716 -0.167444,-0.106877 -0.731631,-0.113726 -9.366317,-0.113726 -8.634694,0 -9.198884,0.0069 -9.366332,0.113726 -0.116323,0.07422 -0.312526,0.113716 -0.565239,0.113716 -0.326447,0 -0.392963,0.02037 -0.424745,0.129964 -0.02812,0.097 -0.09828,0.129972 -0.276654,0.129972 -0.175674,0 -0.251084,0.0344 -0.284707,0.129963 -0.02516,0.07148 -0.09323,0.129963 -0.151249,0.129963 -0.05802,0 -0.123403,0.04203 -0.145294,0.0935 -0.0219,0.05144 -0.138306,0.113014 -0.25871,0.136864 -0.12787,0.02534 -0.233762,0.09453 -0.254603,0.166422 -0.01963,0.06771 -0.07878,0.123073 -0.131445,0.123073 -0.09292,0 -0.22432,0.1728 -0.404448,0.53183 -0.04814,0.09593 -0.146073,0.188243 -0.217636,0.205115 -0.0871,0.02055 -0.13012,0.09198 -0.13012,0.216082 0,0.115026 -0.05472,0.21621 -0.144126,0.26657 -0.112173,0.06318 -0.144128,0.151545 -0.144128,0.398581 0,0.222192 -0.03243,0.328634 -0.108093,0.354812 -0.1633,0.05649 -0.1633,5.355078 0,5.411577 0.07792,0.02694 0.108093,0.136959 0.108093,0.393938 0,0.29516 0.02348,0.36208 0.136389,0.38871 0.07961,0.0187 0.153945,0.11122 0.178516,0.22204 0.02316,0.10442 0.151395,0.28841 0.284971,0.40885 0.133578,0.12044 0.263018,0.26636 0.287651,0.32424 0.02463,0.0579 0.09444,0.10525 0.155137,0.10525 0.0607,0 0.110357,0.0439 0.110357,0.0975 0,0.0542 0.06405,0.0975 0.144131,0.0975 0.09609,0 0.144127,0.0434 0.144127,0.12996 0,0.0723 0.04803,0.12997 0.108095,0.12997 0.05945,0 0.108098,0.0445 0.108098,0.0991 0,0.0545 0.07767,0.12572 0.172604,0.15825 0.09493,0.0325 0.184354,0.091 0.198739,0.1299 0.01442,0.0388 0.155601,0.0882 0.313826,0.10957 0.158236,0.0214 0.324488,0.0802 0.369457,0.1306 0.04498,0.0505 0.247408,0.10944 0.449851,0.13108 0.202457,0.0216 0.404739,0.0791 0.449521,0.12779 0.122405,0.133 18.454476,0.13195 18.576902,-8.6e-4 0.04532,-0.0491 0.264942,-0.10319 0.488035,-0.11987 0.244131,-0.0182 0.437196,-0.0691 0.484911,-0.12773 0.0436,-0.0536 0.197759,-0.11743 0.342563,-0.14184 0.144807,-0.0245 0.281607,-0.0875 0.304005,-0.14012 0.02242,-0.0525 0.08887,-0.0956 0.147695,-0.0956 0.05882,0 0.211204,-0.11696 0.33861,-0.25993 0.150844,-0.16927 0.290283,-0.25993 0.399746,-0.25993 0.09958,0 0.1681,-0.0388 0.1681,-0.0951 0,-0.0524 0.06223,-0.12521 0.13827,-0.16191 0.07604,-0.0367 0.160179,-0.15668 0.186955,-0.26661 0.02676,-0.10993 0.09338,-0.21535 0.148022,-0.23424 0.05464,-0.0189 0.120048,-0.13393 0.145354,-0.25556 0.02612,-0.12547 0.08932,-0.22117 0.14609,-0.22117 0.07346,0 0.100073,-0.0966 0.100073,-0.36349 0,-0.308833 0.02168,-0.368595 0.144127,-0.397476 0.136948,-0.03233 0.144126,-0.08864 0.144126,-1.131115 v -1.09712 l 1.495324,8.39e-4 c 1.252952,8.48e-4 1.530368,0.01772 1.711517,0.107518 0.15711,0.07782 0.487795,0.117808 1.210001,0.146255 0.68448,0.02696 1.011381,0.0648 1.05026,0.121488 0.03846,0.05607 0.359321,0.09543 1.005962,0.123321 0.697166,0.03006 0.949515,0.06292 0.949515,0.123716 0,0.05223 0.152912,0.09936 0.414369,0.127703 0.227899,0.02474 0.469793,0.08875 0.537551,0.142325 0.06776,0.05358 0.270435,0.112355 0.450399,0.130649 0.21106,0.0214 0.327213,0.06489 0.327213,0.122276 0,0.06455 0.108803,0.08903 0.396353,0.08903 0.348304,0 0.396349,0.01576 0.396349,0.129973 0,0.105207 0.04804,0.129965 0.252224,0.129965 0.156142,0 0.307128,0.04948 0.396352,0.129962 0.07927,0.07148 0.220825,0.129973 0.314564,0.129973 0.09375,0 0.252894,0.05846 0.353674,0.12996 0.100776,0.07146 0.218648,0.129965 0.261939,0.129965 0.0433,0 0.07872,0.04127 0.07872,0.09179 0,0.05642 0.111032,0.108689 0.288253,0.135689 0.163607,0.0249 0.288255,0.0805 0.288255,0.128441 0,0.04646 0.110372,0.103193 0.245264,0.126013 0.134896,0.0229 0.263592,0.0846 0.285999,0.13721 0.02239,0.0526 0.0904,0.0957 0.151078,0.0957 0.06232,0 0.110361,0.0566 0.110361,0.12996 0,0.10832 0.04803,0.12997 0.288255,0.12997 0.24021,0 0.288254,0.0217 0.288254,0.12997 0,0.0714 0.03344,0.12997 0.0743,0.12997 0.04087,0 0.193572,0.11696 0.339332,0.25992 0.145772,0.14297 0.295527,0.25994 0.332787,0.25994 0.03725,0 0.177976,0.10234 0.312701,0.22745 0.148665,0.13802 0.314422,0.22743 0.421644,0.22743 0.128652,0 0.176696,0.0354 0.176696,0.12997 0,0.0723 0.048,0.12996 0.108096,0.12996 0.05943,0 0.108101,0.0447 0.108101,0.0995 0,0.0547 0.05673,0.1186 0.126111,0.14193 0.06936,0.0234 0.168479,0.0956 0.220274,0.16041 0.05176,0.0649 0.140976,0.118 0.198175,0.118 0.05722,0 0.10401,0.0408 0.10401,0.0904 0,0.0498 0.04866,0.10735 0.108095,0.12793 0.05942,0.0206 0.108103,0.082 0.108103,0.13692 0,0.0547 0.04425,0.0995 0.09836,0.0995 0.05412,0 0.180829,0.0585 0.281613,0.12996 0.100775,0.0715 0.234864,0.12998 0.297971,0.12998 0.06308,0 0.114746,0.0446 0.114746,0.0991 0,0.0545 0.0811,0.12687 0.180161,0.16084 0.09909,0.0339 0.180153,0.10635 0.180153,0.16084 0,0.0692 0.07336,0.0991 0.243823,0.0991 0.183209,0 0.253179,0.0323 0.281507,0.12996 0.0207,0.0714 0.08937,0.12997 0.152536,0.12997 0.06316,0 0.114834,0.0423 0.114834,0.0939 0,0.087 0.107126,0.1563 0.57652,0.37263 0.09908,0.0457 0.20609,0.12024 0.237782,0.16565 0.0317,0.0454 0.09746,0.0826 0.14613,0.0826 0.04866,0 0.144033,0.0584 0.21191,0.12995 0.06789,0.0715 0.199773,0.12998 0.293097,0.12998 0.09333,0 0.228392,0.0585 0.300131,0.12996 0.07172,0.0715 0.191287,0.12997 0.265661,0.12997 0.07433,0 0.152951,0.0417 0.174625,0.0926 0.02168,0.0509 0.166598,0.11201 0.322027,0.13569 0.157663,0.0242 0.282615,0.0801 0.282615,0.12669 0,0.0839 0.303824,0.16488 0.617969,0.16488 0.09215,0 0.197221,0.0478 0.233454,0.10615 0.04263,0.0686 0.196651,0.1175 0.435972,0.13824 0.248397,0.0214 0.370072,0.0615 0.370072,0.12126 0,0.0579 0.08475,0.0893 0.241051,0.0893 0.149536,0 0.290579,0.0492 0.371489,0.12996 0.103676,0.10332 0.221961,0.12997 0.576518,0.12997 0.35455,0 0.472834,0.0265 0.576512,0.12997 0.10772,0.10734 0.221952,0.12997 0.656157,0.12997 0.424668,0 0.539228,0.0218 0.59592,0.11311 0.0591,0.0953 0.204524,0.11678 0.922396,0.13646 0.663282,0.0181 0.88182,0.0472 0.985823,0.13058 0.113482,0.0911 0.390293,0.11212 1.837627,0.13972 l 1.704012,0.0325 0.0207,0.67976 c 0.01761,0.57699 0.04206,0.69772 0.162147,0.79857 0.09972,0.0839 0.141435,0.20434 0.141435,0.40872 0,0.24658 0.02152,0.28988 0.144132,0.28988 0.116921,0 0.144129,0.0434 0.144129,0.22949 0,0.14214 0.04032,0.24346 0.106138,0.26619 0.05839,0.0202 0.126286,0.13357 0.150904,0.25193 0.02811,0.13544 0.09567,0.22718 0.182112,0.24757 0.07565,0.0178 0.137353,0.079 0.137353,0.13594 0,0.057 0.04862,0.10357 0.108108,0.10357 0.05948,0 0.10809,0.0446 0.10809,0.0991 0,0.0545 0.07427,0.12455 0.165107,0.15567 0.09074,0.0311 0.208268,0.10352 0.261045,0.16086 0.05267,0.0573 0.173047,0.10424 0.267269,0.10424 0.10548,0 0.17135,0.0381 0.17135,0.0991 0,0.0545 0.0835,0.1277 0.18558,0.1627 0.10207,0.0349 0.23411,0.10738 0.29339,0.16086 0.065,0.0586 0.24184,0.0972 0.44567,0.0972 0.2604,0 0.35858,0.0299 0.42834,0.13069 0.09,0.12998 0.14113,0.13058 9.64368,0.11372 8.64432,-0.0153 9.56118,-0.0268 9.63743,-0.12053 z m -18.90456,-2.7882 c -0.0913,-0.0714 -0.20986,-0.12995 -0.26324,-0.12995 -0.0534,0 -0.0971,-0.0419 -0.0971,-0.0931 0,-0.0512 -0.0649,-0.11167 -0.14412,-0.13433 -0.0792,-0.0227 -0.14413,-0.0947 -0.14413,-0.1599 0,-0.0653 -0.0487,-0.13546 -0.1081,-0.15603 -0.0933,-0.0323 -0.1081,-0.35082 -0.1081,-2.3185 0,-1.94099 0.0163,-2.2956 0.1081,-2.37855 0.0595,-0.0536 0.1081,-0.18312 0.1081,-0.28778 0,-0.14538 0.0332,-0.19031 0.14053,-0.19031 0.0773,0 0.17231,-0.0512 0.21112,-0.11372 0.0666,-0.1074 0.59213,-0.11373 9.44977,-0.11373 8.84937,0 9.38438,0.007 9.47141,0.11373 0.0508,0.0626 0.14538,0.11372 0.21038,0.11372 0.065,0 0.11816,0.0429 0.11816,0.0951 0,0.0524 0.0649,0.1265 0.14412,0.16475 0.14018,0.0675 0.14412,0.13606 0.14412,2.4885 0,2.34858 -0.004,2.4213 -0.14412,2.50013 -0.0792,0.0446 -0.14412,0.12477 -0.14412,0.17808 0,0.0534 -0.0486,0.0969 -0.10809,0.0969 -0.0595,0 -0.1081,0.0408 -0.1081,0.0904 0,0.0496 -0.0812,0.10876 -0.18016,0.13119 -0.0991,0.0225 -0.18017,0.0841 -0.18017,0.13703 0,0.0845 -1.11176,0.0963 -9.10504,0.0963 -9.00162,0 -9.10695,-0.002 -9.27124,-0.12999 z m -57.111,-8.92428 c -0.07906,-0.0487 -0.246274,-0.10642 -0.371607,-0.12821 -0.24813,-0.0431 -0.60087,-0.319283 -0.60087,-0.470462 0,-0.05195 -0.04516,-0.09454 -0.100378,-0.09454 -0.05521,0 -0.120073,-0.04626 -0.144129,-0.102792 -0.02407,-0.05649 -0.04374,-1.167739 -0.04374,-2.469354 0,-2.323236 0.0026,-2.366561 0.144128,-2.366561 0.09609,0 0.144126,-0.04331 0.144126,-0.129965 0,-0.07148 0.04516,-0.129971 0.100388,-0.129971 0.05521,0 0.119047,-0.04383 0.141865,-0.09746 0.02283,-0.05359 0.08999,-0.09748 0.1493,-0.09748 0.05931,0 0.142528,-0.05847 0.184961,-0.129963 0.07651,-0.128921 0.150887,-0.129964 9.245407,-0.129964 9.090226,0 9.16904,8.38e-4 9.25828,0.129964 0.04951,0.07148 0.133353,0.129963 0.186325,0.129963 0.129915,0 0.334848,0.21193 0.334848,0.346276 0,0.06531 0.05749,0.108606 0.144126,0.108606 0.141598,0 0.144127,0.04331 0.144127,2.464971 0,2.407912 -0.0033,2.465927 -0.144127,2.506222 -0.07926,0.02268 -0.144126,0.08112 -0.144126,0.129976 0,0.04879 -0.06486,0.107275 -0.144128,0.129966 -0.07926,0.02267 -0.144128,0.08082 -0.144128,0.129171 0,0.04839 -0.105397,0.108257 -0.234208,0.133097 -0.128817,0.0248 -0.279719,0.0783 -0.335347,0.11888 -0.07388,0.0539 -2.462432,0.0783 -8.864247,0.091 -7.305341,0.0144 -8.787014,0.003 -8.90684,-0.0714 z M 84.509612,89.952132 c 0,-0.05692 -0.06488,-0.118852 -0.144133,-0.137549 -0.07931,-0.01866 -0.144121,-0.07344 -0.144121,-0.121599 0,-0.04819 -0.06488,-0.118904 -0.144125,-0.15716 -0.140154,-0.06762 -0.144132,-0.13606 -0.144132,-2.48044 v -2.410871 l 0.183869,-0.153667 c 0.101133,-0.08449 0.214633,-0.153658 0.252227,-0.153658 0.03757,0 0.0683,-0.04281 0.0683,-0.09519 0,-0.05239 0.06488,-0.126488 0.144133,-0.164744 0.07922,-0.03826 0.144122,-0.11239 0.144122,-0.164744 0,-0.08312 1.174788,-0.09518 9.251803,-0.09518 9.191195,0 9.252065,8.46e-4 9.289495,0.129971 0.0228,0.07858 0.0983,0.129964 0.191,0.129964 0.0989,0 0.20619,0.08082 0.30212,0.227442 0.0819,0.125092 0.17805,0.227439 0.21375,0.227439 0.0374,0 0.065,1.045668 0.065,2.466402 v 2.466401 l -0.18344,0.165413 c -0.10086,0.09099 -0.21438,0.165403 -0.25222,0.165403 -0.0379,0 -0.0687,0.05847 -0.0687,0.129973 0,0.129304 -0.0479,0.129962 -9.512436,0.129962 -8.655816,0 -9.512431,-0.0094 -9.512431,-0.103554 z"
     id="path527"
     inkscape:connector-curvature="0" />
</svg>
