<?xml version="1.0" encoding="UTF-8" standalone="no"?>
<svg
   xmlns:dc="http://purl.org/dc/elements/1.1/"
   xmlns:cc="http://creativecommons.org/ns#"
   xmlns:rdf="http://www.w3.org/1999/02/22-rdf-syntax-ns#"
   xmlns:svg="http://www.w3.org/2000/svg"
   xmlns="http://www.w3.org/2000/svg"
   xmlns:sodipodi="http://sodipodi.sourceforge.net/DTD/sodipodi-0.dtd"
   xmlns:inkscape="http://www.inkscape.org/namespaces/inkscape"
   aria-hidden="true"
   focusable="false"
   data-prefix="fab"
   data-icon="raspberry-pi"
   class="svg-inline--fa fa-raspberry-pi fa-w-13"
   role="img"
   viewBox="0 0 407 512"
   version="1.1"
   id="svg1086"
   sodipodi:docname="raspberry-pi.svg"
   inkscape:version="0.92.2 5c3e80d, 2017-08-06">
  <metadata
     id="metadata1092">
    <rdf:RDF>
      <cc:Work
         rdf:about="">
        <dc:format>image/svg+xml</dc:format>
        <dc:type
           rdf:resource="http://purl.org/dc/dcmitype/StillImage" />
        <dc:title></dc:title>
      </cc:Work>
    </rdf:RDF>
  </metadata>
  <defs
     id="defs1090" />
  <sodipodi:namedview
     pagecolor="#ffffff"
     bordercolor="#666666"
     borderopacity="1"
     objecttolerance="10"
     gridtolerance="10"
     guidetolerance="10"
     inkscape:pageopacity="0"
     inkscape:pageshadow="2"
     inkscape:window-width="1244"
     inkscape:window-height="856"
     id="namedview1088"
     showgrid="false"
     inkscape:zoom="1.1816406"
     inkscape:cx="134.5281"
     inkscape:cy="256"
     inkscape:window-x="0"
     inkscape:window-y="0"
     inkscape:window-maximized="0"
     inkscape:current-layer="svg1086" />
  <path
     d="m 346.84392,191.82847 -3.13835,-5.33998 c 0.0848,-38.1193 -18.15155,-53.64634 -39.44146,-65.47646 6.44635,-1.64308 13.06233,-2.95753 14.92838,-10.84429 11.11147,-2.71107 13.40161,-7.72244 14.50428,-12.980272 2.88389,-1.889534 12.55341,-7.147367 11.53557,-16.184269 5.4285,-3.614761 8.48203,-8.297519 6.87044,-14.869811 5.85261,-6.161524 7.37937,-11.255051 4.91958,-15.937809 7.04009,-8.461826 3.90174,-12.815969 0.93303,-17.170113 5.25886,-9.201209 0.59374,-19.059647 -14.08018,-17.416574 C 338.02261,7.3113728 325.29955,9.2009068 323.34869,9.2009068 321.14336,6.57199 318.25947,4.2716877 309.35333,5.3396852 303.58555,0.32831238 297.1392,1.2320026 290.43839,3.6144585 282.5501,-2.3827581 277.29124,2.4643073 271.269,4.2716877 261.6843,1.3141562 259.47897,5.3396852 254.81385,7.0649119 244.38095,4.9289169 241.15777,9.5295214 236.15337,14.376587 l -5.8526,-0.08215 C 214.52419,23.167028 206.72071,41.240831 203.92164,50.524194 201.12257,41.240831 193.3191,23.167028 177.54252,14.294433 l -5.85261,0.08215 C 166.68551,9.5295214 163.46234,4.9289169 153.02944,7.0649119 148.2795,5.4218388 146.15899,1.3141562 136.57429,4.2716877 132.67255,3.1215366 129.02527,0.65692699 124.78426,0.73908064 122.57893,0.82123429 120.11914,1.5606172 117.40489,3.6144585 110.70408,1.1498489 104.25773,0.32831238 98.489951,5.3396852 89.583815,4.2716877 86.615103,6.4898363 84.494595,9.2009068 c -1.950868,0 -14.67392,-1.889534 -20.526524,6.4079852 -14.673919,-1.643073 -19.254218,8.215365 -13.995357,17.416574 -2.968712,4.436297 -6.107064,8.790441 0.933024,17.170113 -2.45979,4.682758 -0.933024,9.776285 4.91958,15.937809 -1.526766,6.572292 1.526766,11.25505 6.870448,14.869811 -1.017844,9.036902 8.651675,14.294735 11.535567,16.184269 1.102664,5.257832 3.392814,10.187052 14.504279,12.980272 1.866047,7.8046 8.482034,9.20121 14.928378,10.84429 -21.289904,11.83012 -39.526278,27.35716 -39.441458,65.47646 l -3.138352,5.33998 c -24.42826,14.13043 -46.396729,59.72571 -12.044489,96.69485 2.205329,11.58367 6.022244,19.88119 9.330238,29.0824 5.0044,37.13345 37.745053,54.46787 46.311911,56.52171 12.63823,9.20121 26.12466,17.9095 44.27622,23.98887 17.21853,16.92365 35.879,23.33163 54.53948,23.33163 h 0.8482 c 18.7453,0 37.32096,-6.40798 54.45467,-23.33163 18.23637,-6.07937 31.63798,-14.78766 44.27621,-23.98887 8.65168,-2.05384 41.30751,-19.38826 46.31191,-56.52171 3.308,-9.20121 7.12491,-17.49873 9.33024,-29.0824 34.43706,-37.05129 12.46859,-82.56442 -11.87485,-96.69485 z m -18.83011,-6.57229 c -1.27231,15.36274 -83.88732,-53.48202 -69.63751,-55.78233 38.7629,-6.16152 70.90981,15.7735 69.63751,55.78233 z m -36.47275,76.48505 c -20.78099,12.98028 -50.72257,4.60061 -66.83843,-18.73103 -16.11587,-23.33164 -12.38377,-52.74264 8.39721,-65.72292 20.78099,-12.98028 50.72257,-4.60061 66.83843,18.73103 16.11587,23.33164 12.38377,52.74265 -8.39721,65.72292 z M 233.94804,24.892254 c 0.67857,3.450454 1.52677,5.586449 2.45979,6.243678 4.5803,-4.764912 8.3124,-9.611977 14.24982,-14.212582 0,2.711071 -1.44194,5.586449 2.12051,7.722443 3.13835,-4.107682 7.46419,-7.804597 13.14715,-10.926435 -2.71425,4.600604 -0.50892,5.997216 1.01785,7.88675 4.32584,-3.61476 8.48203,-7.229521 16.45514,-10.104899 -2.20532,2.546763 -5.25886,5.093527 -2.03568,8.051058 4.49547,-2.711071 8.99095,-5.422141 19.5935,-7.311675 -2.37497,2.546763 -7.37937,5.17568 -4.32584,7.722443 5.59814,-2.053841 11.87485,-3.61476 18.74529,-4.436297 -3.30799,2.628917 -6.02224,5.17568 -3.30799,7.229521 6.02225,-1.80738 14.33464,-4.189836 22.39257,-2.135995 l -5.08922,5.011373 c -0.59374,0.65723 11.95967,0.492922 20.27206,0.65723 -3.05353,4.107682 -6.10706,7.968904 -7.88829,14.951964 0.84821,0.821537 4.91958,0.328615 8.82132,0 -3.98656,8.133212 -10.85701,10.104899 -12.46859,13.637506 2.45979,1.807381 5.76778,1.314459 9.49988,0.08215 -2.8839,5.668602 -8.82132,9.611977 -13.57126,14.212582 1.18749,0.821537 3.30799,1.314458 8.22757,0.739383 -4.41065,4.518451 -9.66952,8.626133 -15.94622,12.323048 1.10266,1.232304 4.91958,1.232304 8.48203,1.314458 -5.68296,5.339988 -12.97751,8.133212 -19.84796,11.665819 3.39282,2.218148 5.85261,1.725226 8.48204,1.725226 -4.83476,3.861217 -13.06234,5.832917 -20.69617,8.215367 1.44195,2.21815 2.8839,2.79323 6.02225,3.3683 -8.05793,4.35414 -19.67832,2.38246 -22.9015,4.60061 0.76339,2.21814 3.05354,3.61476 5.68297,4.76491 -13.06234,0.73938 -48.60206,-0.49292 -55.47251,-26.535635 13.3168,-14.212582 37.66024,-30.80762 79.47667,-51.428186 -32.57102,10.515667 -61.91886,24.646095 -86.51676,43.952204 -29.09337,-13.062431 -9.16059,-45.923892 4.91958,-58.986323 z m -29.17819,94.148086 c 20.52652,-0.24646 45.8878,14.62335 45.80298,28.50732 -0.0848,12.32304 -17.81227,22.26364 -45.63334,22.09933 -27.22733,-0.32862 -45.54853,-12.48736 -45.46371,-24.48179 0,-9.77628 22.22293,-26.69994 45.29407,-26.12486 z M 100.44082,108.52467 c 3.13835,-0.57507 4.5803,-1.2323 6.02224,-3.3683 -7.633827,-2.3003 -15.861401,-4.35414 -20.69616,-8.215363 2.62943,0 5.08922,0.575076 8.482034,-1.725226 -6.870448,-3.532607 -14.164997,-6.325831 -19.84796,-11.665819 3.562454,-0.08215 7.37937,0 8.482034,-1.314458 -6.276705,-3.696915 -11.535567,-7.804597 -15.946225,-12.323048 4.91958,0.575075 7.040089,0.08215 8.227574,-0.739383 -4.74994,-4.600605 -10.772184,-8.54398 -13.571255,-14.212582 3.647274,1.232305 7.040088,1.643073 9.499878,-0.08215 -1.611586,-3.450453 -8.482034,-5.504294 -12.46859,-13.637506 3.901735,0.328615 7.973112,0.821537 8.821315,0 -1.781227,-6.98306 -4.91958,-10.926436 -7.888292,-14.951964 8.312394,-0.08215 20.865805,0 20.272063,-0.65723 l -5.089221,-5.011373 c 8.057933,-2.053841 16.370326,0.328615 22.392571,2.135995 2.714251,-2.053841 -0.08482,-4.600604 -3.307994,-7.229521 6.870448,0.90369 13.062328,2.382456 18.745298,4.436297 2.96871,-2.546763 -1.95087,-5.17568 -4.32584,-7.722443 10.60254,1.889534 15.09802,4.600604 19.5935,7.311675 3.22317,-2.957531 0.16964,-5.504295 -2.03569,-8.051058 7.97312,2.793224 12.12931,6.490139 16.45515,10.104899 1.44195,-1.889534 3.7321,-3.286146 1.01785,-7.88675 5.68296,3.121838 10.0088,6.818753 13.14715,10.926435 3.47763,-2.135994 2.12051,-5.093526 2.12051,-7.722443 5.93742,4.600605 9.66952,9.44767 14.24982,14.212582 0.93302,-0.657229 1.6964,-2.793224 2.45979,-6.243678 14.08017,13.062431 34.01295,45.923892 5.08922,58.986323 C 155.74369,64.572468 126.39584,50.44204 93.824832,39.926373 135.64127,60.464786 159.9847,77.141977 173.3015,91.354559 c -6.78563,26.124861 -42.41018,27.275011 -55.47251,26.535631 2.62943,-1.15015 4.91958,-2.62892 5.68296,-4.76491 -3.39281,-2.30031 -14.92838,-0.32862 -23.07113,-4.60061 z m 50.97703,19.79903 C 165.66767,130.624 83.052649,199.38661 81.780344,184.10603 80.508038,144.0972 112.73977,122.08002 151.41785,128.3237 Z M 63.71361,281.78672 c -20.102421,-15.44488 -26.548768,-60.54724 10.687364,-80.75704 22.477391,-5.75075 7.633831,88.56164 -10.687364,80.75704 z m 77.18652,80.67489 c -11.28111,6.49014 -38.84772,3.86122 -58.356403,-22.92087 -13.147154,-22.5101 -11.450747,-45.34881 -2.205329,-52.08541 13.825716,-8.05106 35.200442,2.79322 51.655592,21.03133 14.33464,16.43073 20.86581,45.43097 8.90614,53.97495 z m -22.39258,-98.33792 c -20.780982,-12.98028 -24.513077,-42.39129 -8.39721,-65.72292 16.11586,-23.33164 46.05745,-31.71131 66.83843,-18.73104 20.78099,12.98028 24.51308,42.39129 8.39722,65.72293 -16.20069,23.33163 -46.14227,31.71131 -66.83844,18.73103 z m 86.6864,144.17966 c -24.93718,0.98584 -49.36544,-19.47042 -49.02616,-26.53563 -0.33928,-10.43351 30.36568,-18.56673 50.29846,-18.0738 20.10242,-0.82154 47.16011,6.16152 47.24493,15.52704 0.42411,9.0369 -24.42825,29.49316 -48.51723,29.08239 z m 49.95918,-102.60991 c 0.16964,24.39963 -22.22293,44.19866 -49.87436,44.36297 -27.65143,0.16431 -50.21365,-19.55257 -50.38329,-43.87005 v -0.49292 c -0.16964,-24.39964 22.22293,-44.19867 49.87437,-44.36298 27.65143,-0.1643 50.21364,19.55257 50.38328,43.87005 z m 69.72232,35.07961 c -21.45954,28.42516 -50.55292,29.49316 -61.32511,21.60641 -11.2811,-10.18706 -2.71425,-41.81621 12.80788,-59.15063 17.72745,-19.1418 36.72721,-31.62916 49.95918,-21.85287 8.90614,8.46182 14.165,40.33744 -1.44195,59.39709 z m 19.42386,-60.13648 c -18.23637,7.72245 -33.07993,-86.50779 -10.68736,-80.75704 37.23613,20.29195 30.78978,65.39431 10.68736,80.75704 z"
     id="path1084"
     inkscape:connector-curvature="0"
     style="fill:currentColor;stroke-width:0.83476353" />
  <g
     aria-label="Raspberry Pi"
     transform="translate(5.077686,13.540496)"
     style="font-style:normal;font-weight:normal;font-size:61.33333206px;line-height:1.25;font-family:sans-serif;letter-spacing:0px;word-spacing:0px;fill:#000000;fill-opacity:1;stroke:none"
     id="flowRoot1094">
    <path
       d="m 33.992187,460.67318 q 1.946614,0.65885 3.773437,2.8151 1.856771,2.15625 3.713542,5.92969 l 6.139323,12.21875 h -6.498698 l -5.720052,-11.47005 q -2.216146,-4.49219 -4.3125,-5.95964 -2.066406,-1.46745 -5.660156,-1.46745 h -6.588542 v 18.89714 h -6.049479 v -44.71224 h 13.65625 q 7.666667,0 11.440104,3.20443 3.773437,3.20442 3.773437,9.67317 0,4.22266 -1.976562,7.00782 -1.946615,2.78515 -5.690104,3.86328 z M 18.838541,441.89583 v 15.8724 h 7.606771 q 4.372396,0 6.588542,-2.00651 2.246093,-2.03646 2.246093,-5.95964 0,-3.92317 -2.246093,-5.89974 -2.216146,-2.00651 -6.588542,-2.00651 z"
       style="font-size:61.33333206px"
       id="path1102" />
    <path
       d="m 69.180988,464.77604 q -6.678385,0 -9.253906,1.52734 -2.575521,1.52735 -2.575521,5.21094 0,2.9349 1.916667,4.67188 1.946614,1.70703 5.270833,1.70703 4.582031,0 7.337239,-3.23438 2.785157,-3.26432 2.785157,-8.65494 v -1.22787 z M 80.171873,462.5 v 19.13672 h -5.510416 v -5.09115 q -1.886719,3.05469 -4.701823,4.52214 -2.815104,1.4375 -6.888021,1.4375 -5.151042,0 -8.205729,-2.875 -3.02474,-2.90495 -3.02474,-7.75651 0,-5.66016 3.773438,-8.53516 3.803385,-2.875 11.320312,-2.875 h 7.726563 v -0.53906 q 0,-3.80339 -2.515625,-5.86979 -2.485677,-2.09636 -7.007813,-2.09636 -2.875,0 -5.60026,0.6888 -2.72526,0.68881 -5.240885,2.06641 v -5.09114 q 3.024739,-1.16797 5.869791,-1.73698 2.845052,-0.59896 5.540365,-0.59896 7.277343,0 10.871093,3.77344 3.59375,3.77343 3.59375,11.4401 z"
       style="font-size:61.33333206px"
       id="path1104" />
    <path
       d="m 112.99479,449.08333 v 5.21094 q -2.33594,-1.19792 -4.85156,-1.79687 -2.51563,-0.59896 -5.21094,-0.59896 -4.102863,0 -6.169269,1.25781 -2.036459,1.25781 -2.036459,3.77344 0,1.91666 1.467448,3.02474 1.467448,1.07812 5.89974,2.0664 l 1.88672,0.41927 q 5.86979,1.25782 8.32552,3.56381 2.48568,2.27604 2.48568,6.3789 0,4.67188 -3.71355,7.39714 -3.68359,2.72526 -10.15234,2.72526 -2.695312,0 -5.630207,-0.53907 -2.904948,-0.50911 -6.139323,-1.55729 v -5.6901 q 3.054687,1.58724 6.019531,2.39583 2.964844,0.77865 5.869789,0.77865 3.89323,0 5.98959,-1.31771 2.09635,-1.34766 2.09635,-3.77344 0,-2.24609 -1.52734,-3.44401 -1.4974,-1.19791 -6.61849,-2.30599 l -1.91667,-0.44922 q -5.121094,-1.07812 -7.397135,-3.29427 -2.276042,-2.24609 -2.276042,-6.13932 0,-4.73177 3.354167,-7.30729 3.354166,-2.57552 9.52344,-2.57552 3.05468,0 5.75,0.44922 2.69531,0.44922 4.97135,1.34765 z"
       style="font-size:61.33333206px"
       id="path1106" />
    <path
       d="m 128.92708,476.60547 v 17.78906 h -5.54036 v -46.29948 h 5.54036 v 5.09115 q 1.73698,-2.99479 4.3724,-4.43229 2.66536,-1.46745 6.34896,-1.46745 6.10937,0 9.91276,4.85156 3.83333,4.85156 3.83333,12.75781 0,7.90625 -3.83333,12.75781 -3.80339,4.85157 -9.91276,4.85157 -3.6836,0 -6.34896,-1.4375 -2.63542,-1.46745 -4.3724,-4.46224 z m 18.7474,-11.70964 q 0,-6.07942 -2.51563,-9.52343 -2.48567,-3.47396 -6.85807,-3.47396 -4.37239,0 -6.88802,3.47396 -2.48568,3.44401 -2.48568,9.52343 0,6.07943 2.48568,9.55339 2.51563,3.44401 6.88802,3.44401 4.3724,0 6.85807,-3.44401 2.51563,-3.47396 2.51563,-9.55339 z"
       style="font-size:61.33333206px"
       id="path1108" />
    <path
       d="m 186.60676,464.89583 q 0,-6.07942 -2.51562,-9.52343 -2.48568,-3.47396 -6.85808,-3.47396 -4.37239,0 -6.88802,3.47396 -2.48568,3.44401 -2.48568,9.52343 0,6.07943 2.48568,9.55339 2.51563,3.44401 6.88802,3.44401 4.3724,0 6.85808,-3.44401 2.51562,-3.47396 2.51562,-9.55339 z m -18.7474,-11.70963 q 1.73698,-2.99479 4.3724,-4.43229 2.66536,-1.46745 6.34896,-1.46745 6.10937,0 9.91276,4.85156 3.83333,4.85156 3.83333,12.75781 0,7.90625 -3.83333,12.75781 -3.80339,4.85157 -9.91276,4.85157 -3.6836,0 -6.34896,-1.4375 -2.63542,-1.46745 -4.3724,-4.46224 v 5.03125 H 162.319 v -46.59896 h 5.54036 z"
       style="font-size:61.33333206px"
       id="path1110" />
    <path
       d="m 230.15104,463.48828 v 2.69531 H 204.8151 q 0.35937,5.69011 3.41406,8.6849 3.08464,2.96484 8.56511,2.96484 3.17447,0 6.13932,-0.77864 2.99479,-0.77865 5.92969,-2.33594 v 5.21094 q -2.96485,1.25781 -6.07943,1.91666 -3.11458,0.65886 -6.31901,0.65886 -8.02604,0 -12.72787,-4.67188 -4.67187,-4.67187 -4.67187,-12.63802 0,-8.23568 4.43229,-13.05729 4.46224,-4.85156 12.00911,-4.85156 6.76823,0 10.69141,4.37239 3.95313,4.34245 3.95313,11.82943 z m -5.51042,-1.61719 q -0.0599,-4.52213 -2.54557,-7.21744 -2.45573,-2.69532 -6.52865,-2.69532 -4.61198,0 -7.39713,2.60547 -2.75521,2.60547 -3.17448,7.33724 z"
       style="font-size:61.33333206px"
       id="path1112" />
    <path
       d="m 258.6315,453.24609 q -0.92838,-0.53906 -2.03645,-0.77864 -1.07813,-0.26953 -2.39584,-0.26953 -4.67187,0 -7.1875,3.05468 -2.48567,3.02474 -2.48567,8.71485 v 17.66927 h -5.54037 v -33.54167 h 5.54037 v 5.21094 q 1.73698,-3.05469 4.52213,-4.52214 2.78516,-1.49739 6.76823,-1.49739 0.56901,0 1.25781,0.0898 0.68881,0.0599 1.52735,0.20964 z"
       style="font-size:61.33333206px"
       id="path1114" />
    <path
       d="m 282.88932,453.24609 q -0.92839,-0.53906 -2.03646,-0.77864 -1.07813,-0.26953 -2.39583,-0.26953 -4.67188,0 -7.1875,3.05468 -2.48568,3.02474 -2.48568,8.71485 v 17.66927 h -5.54037 v -33.54167 h 5.54037 v 5.21094 q 1.73698,-3.05469 4.52213,-4.52214 2.78516,-1.49739 6.76823,-1.49739 0.56901,0 1.25782,0.0898 0.6888,0.0599 1.52734,0.20964 z"
       style="font-size:61.33333206px"
       id="path1116" />
    <path
       d="m 302.74477,484.7513 q -2.33594,5.98958 -4.55208,7.81641 -2.21615,1.82682 -5.92969,1.82682 h -4.40234 v -4.61198 h 3.23437 q 2.27604,0 3.53386,-1.07812 1.25781,-1.07813 2.78515,-5.09115 l 0.98828,-2.51562 -13.5664,-33.00261 h 5.83984 l 10.48177,26.23438 10.48177,-26.23438 h 5.83985 z"
       style="font-size:61.33333206px"
       id="path1118" />
    <path
       d="m 350.90104,441.89583 v 16.80078 h 7.60677 q 4.22266,0 6.52865,-2.18619 2.30599,-2.1862 2.30599,-6.22917 0,-4.01302 -2.30599,-6.19922 -2.30599,-2.1862 -6.52865,-2.1862 z m -6.04948,-4.97135 h 13.65625 q 7.51693,0 11.35026,3.41406 3.86328,3.38412 3.86328,9.94271 0,6.61849 -3.86328,10.0026 -3.83333,3.38412 -11.35026,3.38412 h -7.60677 v 17.96875 h -6.04948 z"
       style="font-size:61.33333206px"
       id="path1120" />
    <path
       d="m 380.36979,448.09505 h 5.51042 v 33.54167 h -5.51042 z m 0,-13.05729 h 5.51042 v 6.97786 h -5.51042 z"
       style="font-size:61.33333206px"
       id="path1122" />
  </g>
</svg>
