<?xml version="1.0" encoding="UTF-8" standalone="no"?>
<svg
   xmlns:dc="http://purl.org/dc/elements/1.1/"
   xmlns:cc="http://creativecommons.org/ns#"
   xmlns:rdf="http://www.w3.org/1999/02/22-rdf-syntax-ns#"
   xmlns:svg="http://www.w3.org/2000/svg"
   xmlns="http://www.w3.org/2000/svg"
   xmlns:sodipodi="http://sodipodi.sourceforge.net/DTD/sodipodi-0.dtd"
   xmlns:inkscape="http://www.inkscape.org/namespaces/inkscape"
   aria-hidden="true"
   focusable="false"
   data-prefix="fab"
   data-icon="raspberry-pi"
   class="svg-inline--fa fa-raspberry-pi fa-w-13"
   role="img"
   viewBox="0 0 658.21887 518.54187"
   version="1.1"
   id="svg1086"
   sodipodi:docname="restapi.svg"
   inkscape:version="0.92.2 5c3e80d, 2017-08-06"
   width="658.21887"
   height="518.54187">
  <metadata
     id="metadata1092">
    <rdf:RDF>
      <cc:Work
         rdf:about="">
        <dc:format>image/svg+xml</dc:format>
        <dc:type
           rdf:resource="http://purl.org/dc/dcmitype/StillImage" />
        <dc:title></dc:title>
      </cc:Work>
    </rdf:RDF>
  </metadata>
  <defs
     id="defs1090" />
  <sodipodi:namedview
     pagecolor="#ffffff"
     bordercolor="#666666"
     borderopacity="1"
     objecttolerance="10"
     gridtolerance="10"
     guidetolerance="10"
     inkscape:pageopacity="0"
     inkscape:pageshadow="2"
     inkscape:window-width="1244"
     inkscape:window-height="856"
     id="namedview1088"
     showgrid="false"
     inkscape:zoom="0.29541015"
     inkscape:cx="313.48666"
     inkscape:cy="241.37813"
     inkscape:window-x="0"
     inkscape:window-y="0"
     inkscape:window-maximized="0"
     inkscape:current-layer="svg1086" />
  <path
     style="fill:#000000;stroke-width:0.36517906"
     d="m 294.62438,518.15154 c -0.31513,-0.25201 -0.7486,-1.27988 -0.96325,-2.28412 -0.21465,-1.00424 -0.87547,-3.79786 -1.46849,-6.20804 -0.59302,-2.41019 -1.28028,-5.20381 -1.52725,-6.20805 -0.24697,-1.00424 -0.67545,-2.48869 -0.95217,-3.29881 -0.27673,-0.81011 -0.50314,-1.78167 -0.50314,-2.15897 0,-0.37734 -0.24759,-1.52218 -0.5502,-2.54406 -0.30261,-1.02188 -0.97447,-3.58346 -1.49303,-5.69237 -1.67857,-6.82655 -1.8446,-7.47803 -2.04758,-8.03394 -0.11,-0.30127 -0.37232,-1.36942 -0.58293,-2.37367 -0.21062,-1.00424 -0.62659,-2.81187 -0.92439,-4.01696 -0.2978,-1.2051 -0.98375,-3.99872 -1.52434,-6.20805 -1.15694,-4.72834 -1.86651,-7.40141 -2.58184,-9.72625 -0.28639,-0.93077 -0.52322,-1.91675 -0.5263,-2.19107 -0.0108,-0.96221 -0.63272,-1.46854 -2.22364,-1.81031 -0.88283,-0.18963 -1.93381,-0.49222 -2.3355,-0.67236 -0.4017,-0.18018 -2.70233,-0.92376 -5.11251,-1.65244 -2.41018,-0.72868 -4.79199,-1.4969 -5.29291,-1.70717 -0.50091,-0.21027 -2.08484,-0.76557 -3.51983,-1.23398 -1.43498,-0.46845 -2.91495,-1.01516 -3.2888,-1.21499 -0.37385,-0.19979 -2.1587,-0.96133 -3.96634,-1.69231 -4.40773,-1.78237 -4.19623,-1.68936 -8.7643,-3.85483 -6.58133,-3.11991 -10.86005,-5.28246 -12.50012,-6.31782 -0.84962,-0.53634 -1.6465,-0.97517 -1.77086,-0.97517 -0.26901,0 -4.63756,-2.63378 -4.90092,-2.95474 -0.10042,-0.12241 -0.59341,-0.43796 -1.09553,-0.70121 -0.50213,-0.26326 -2.55152,-1.56144 -4.55421,-2.88481 -2.00269,-1.32337 -3.82365,-2.48829 -4.04656,-2.58872 -1.15516,-0.52038 -12.89361,-9.49925 -14.95328,-11.43792 -0.4017,-0.3781 -1.30552,-1.11365 -2.00849,-1.63457 -1.29979,-0.9632 -1.81883,-1.43706 -7.30358,-6.66763 -3.81013,-3.63356 -4.7239,-4.16391 -6.31557,-3.66548 -3.27336,1.02506 -5.01591,1.49486 -5.54473,1.49486 -0.3218,0 -2.26289,0.55182 -4.31353,1.22631 -2.05064,0.67445 -4.79658,1.50698 -6.10209,1.85003 -1.30552,0.34305 -3.11315,0.84225 -4.01697,1.10934 -0.90382,0.26713 -2.62929,0.75359 -3.83438,1.08104 -1.20509,0.32742 -2.68407,0.77111 -3.28661,0.98591 -0.60255,0.2148 -1.76238,0.52831 -2.5774,0.69662 -0.81502,0.16835 -1.88316,0.46469 -2.37366,0.65856 -0.4905,0.19388 -1.95996,0.63428 -3.26547,0.97864 -1.30552,0.34441 -3.11315,0.84927 -4.01697,1.12194 -0.90382,0.27268 -2.87579,0.84616 -4.38215,1.27433 -1.50637,0.42821 -3.44299,1.00804 -4.30362,1.28854 -0.86062,0.28049 -1.80775,0.51001 -2.10473,0.51001 -0.29698,0 -0.82531,0.15768 -1.17407,0.35042 -0.34876,0.19274 -1.3736,0.51355 -2.27742,0.7129 -0.90381,0.19939 -2.54712,0.62128 -3.65179,0.9376 -2.37301,0.67945 -3.50845,0.49336 -3.85795,-0.63234 -0.14016,-0.45144 -0.5427,-1.23164 -0.89453,-1.73376 -0.64378,-0.91879 -1.61888,-2.59478 -3.08071,-5.2951 -0.43493,-0.80339 -1.23317,-2.15587 -1.77389,-3.00546 -0.54071,-0.84962 -0.98311,-1.63038 -0.98311,-1.73504 0,-0.16243 -5.21193,-9.18169 -6.22917,-10.77961 -0.19178,-0.30127 -0.45497,-0.79426 -0.58486,-1.09553 -0.34542,-0.80121 -2.81758,-4.89866 -3.08457,-5.11251 -0.12539,-0.10043 -0.3519,-0.59342 -0.50336,-1.09554 -0.15146,-0.50212 -0.88463,-1.81676 -1.62927,-2.92143 -0.74464,-1.10467 -2.06204,-3.32313 -2.92755,-4.92992 -0.86551,-1.60679 -1.75853,-3.16793 -1.98448,-3.4692 -0.378771,-0.50504 -1.427641,-2.34255 -2.084491,-3.65179 -0.65556,-1.30668 -3.04258,-5.31127 -3.26511,-5.47768 -0.13428,-0.10043 -0.64206,-1.00425 -1.12841,-2.00849 -0.48636,-1.00424 -1.33143,-2.52105 -1.87795,-3.37064 -0.54652,-0.84962 -0.99367,-1.62194 -0.99367,-1.7163 0,-0.0944 -0.49299,-0.90203 -1.09554,-1.79482 -0.60254,-0.89279 -1.09554,-1.97843 -1.09554,-2.41252 0,-0.7247 4.79505,-5.63435 15.458961,-15.82844 1.43958,-1.37615 6.21464,-5.98201 10.61125,-10.23525 4.39661,-4.25324 9.18429,-8.88347 10.63928,-10.28941 7.44671,-7.19566 8.60659,-8.40691 8.80419,-9.19421 0.19239,-0.76658 -0.42883,-3.82239 -1.84279,-9.06474 -0.27086,-1.00424 -0.76751,-3.4692 -1.10368,-5.47769 -0.33615,-2.00848 -0.78305,-4.47344 -0.99308,-5.47768 -0.21004,-1.00425 -0.51668,-2.97621 -0.68143,-4.38215 -0.16475,-1.40594 -0.47401,-3.46007 -0.68724,-4.56474 -1.76384,-9.13759 -1.75271,-35.05601 0.0202,-47.1081 0.2216,-1.50636 0.46865,-3.314 0.54901,-4.01696 0.24031,-2.10211 1.23429,-8.05006 1.76977,-10.5902 0.27521,-1.30551 0.61328,-3.10683 0.75126,-4.00292 0.13798,-0.8961 0.37784,-1.88208 0.53301,-2.19108 0.6364,-1.26731 1.85968,-7.57476 1.63933,-8.4527 -0.2358,-0.9395 -2.09726,-2.89787 -10.10804,-10.63428 -2.34405,-2.26376 -8.25533,-7.9777 -13.13617,-12.69764 -4.88085,-4.71994 -10.44003,-10.08347 -12.353741,-11.91896 -10.27642,-9.85637 -10.55624,-10.18696 -9.55454,-11.28817 0.17356,-0.1908 0.93667,-1.49723 1.6958,-2.90317 2.71636,-5.03082 3.59487,-6.58123 4.035,-7.12099 0.24567,-0.30127 1.26471,-2.02674 2.26454,-3.83438 2.71107,-4.90148 3.246541,-5.83678 4.268151,-7.4551 0.51291,-0.8125 0.93256,-1.56597 0.93256,-1.67438 0,-0.1084 0.44443,-0.89224 0.98763,-1.74185 0.54319,-0.84962 1.25868,-2.03775 1.58997,-2.64029 3.5719,-6.49646 4.50156,-8.11609 4.94233,-8.61047 0.2827,-0.31708 0.51401,-0.67344 0.51401,-0.79189 0,-0.11846 1.00645,-1.91316 2.23655,-3.98822 1.2301,-2.07506 2.81622,-4.84099 3.52469,-6.1465 0.70847,-1.30552 1.71058,-3.03099 2.22691,-3.83438 0.51632,-0.8034 1.43625,-2.37271 2.04429,-3.48736 2.51433,-4.60928 3.34187,-5.983799 4.20954,-6.991949 0.909,-1.05617 0.92006,-1.05847 2.55626,-0.53153 3.58265,1.15378 5.35475,1.657859 6.66855,1.896869 0.7554,0.13744 1.4635,0.39558 1.57356,0.57366 0.11006,0.17808 0.56015,0.33099 1.00021,0.33981 0.44005,0.009 1.45742,0.25935 2.26082,0.55676 0.80339,0.29739 2.11803,0.69118 2.92143,0.87507 0.80339,0.18389 2.61103,0.67748 4.01697,1.09687 1.40594,0.41938 3.95306,1.15375 5.66027,1.63192 1.70722,0.47817 3.59702,1.03454 4.19956,1.23637 0.60255,0.20184 1.99936,0.6204 3.10402,0.93015 1.10467,0.30974 3.07664,0.88494 4.38215,1.27821 1.30552,0.39328 2.78449,0.79672 3.28661,0.89654 0.50213,0.0998 2.63842,0.68323 4.74733,1.29648 11.6669,3.39261 14.15947,4.06031 15.15493,4.05965 1.10752,-7.4e-4 1.20888,-0.0764 6.05515,-4.51933 3.07859,-2.82237 6.89599,-6.18258 8.73461,-7.68852 0.90381,-0.74028 1.97196,-1.62342 2.37366,-1.96255 3.85102,-3.251179 15.79156,-11.812399 18.38297,-13.180359 0.53434,-0.28207 1.05369,-0.62449 1.15411,-0.76094 0.10042,-0.13645 1.30936,-0.86307 2.68652,-1.61472 1.37715,-0.75164 3.59155,-2.03233 4.92089,-2.845973 5.64861,-3.457336 18.58882,-9.599775 26.53683,-12.596471 0.8034,-0.302912 1.76523,-0.710171 2.1374,-0.905027 0.37218,-0.194856 1.93332,-0.762899 3.4692,-1.262322 1.53589,-0.499422 3.12118,-1.038039 3.52288,-1.196925 1.55703,-0.615871 3.361,-1.207355 5.11251,-1.676285 7.1528,-1.915024 7.6498,-2.147077 7.97205,-3.722303 0.38947,-1.903799 1.27942,-5.400158 1.65516,-6.502659 0.20534,-0.602545 0.8919,-3.396165 1.52568,-6.208044 0.63377,-2.811878 1.367,-5.769829 1.6294,-6.573222 0.2624,-0.803394 0.83486,-3.104022 1.27214,-5.112507 0.43727,-2.008485 0.94586,-4.062617 1.1302,-4.564738 0.18434,-0.502121 0.49472,-1.652435 0.68974,-2.556253 0.82308,-3.814624 1.40335,-6.167305 1.59934,-6.484426 0.11508,-0.186204 0.36804,-1.227259 0.56213,-2.313455 0.19409,-1.086195 0.7542,-3.371711 1.24467,-5.078923 0.49047,-1.707212 1.51284,-5.733311 2.27194,-8.9468857 0.7591,-3.213576 1.54012,-6.04827796 1.7356,-6.29933896 0.54746,-0.703106 72.67432,-0.66479 73.25835,0.03892 0.22612,0.272465 0.55595,1.21736596 0.73295,2.09977996 0.177,0.882413 0.93523,3.905016 1.68494,6.716895 0.74971,2.8118787 1.48975,5.7698287 1.64447,6.5732227 0.15473,0.803394 0.86581,3.679179 1.58013,6.390633 1.45141,5.509252 1.86271,7.15003 2.65471,10.590192 0.30054,1.305515 0.77911,3.277482 1.06347,4.382149 0.2844,1.104666 0.94151,3.65179 1.46032,5.660275 0.87668,3.394061 1.52568,6.119528 2.37092,9.956351 0.18869,0.856476 0.51191,1.872736 0.71831,2.258358 0.20636,0.385622 0.37522,1.095088 0.37522,1.576588 0,0.481499 0.33735,1.950246 0.74968,3.263875 0.82519,2.628927 1.07501,2.816922 5.45836,4.107683 5.23236,1.540771 7.1784,2.14209 7.85135,2.426064 0.4017,0.169509 2.12717,0.789692 3.83438,1.378185 3.36444,1.159758 9.10516,3.430985 12.59868,4.984461 1.20509,0.535871 2.93056,1.299055 3.83438,1.695964 3.85082,1.691068 16.27691,8.117868 17.16342,8.876952 0.30127,0.25796 1.66777,1.06784 3.03672,1.79972 1.36891,0.73188 2.68355,1.49482 2.92143,1.69543 0.23784,0.20061 2.20181,1.49684 4.36433,2.88052 2.16252,1.38369 4.46314,2.93902 5.11251,3.45629 0.64936,0.51728 3.31695,2.53258 5.92798,4.47845 2.61103,1.94587 4.91166,3.723239 5.11251,3.949709 0.20085,0.22647 1.18683,1.05491 2.19107,1.84097 1.00425,0.78607 2.72972,2.27598 3.83439,3.31092 1.10466,1.03494 2.83831,2.60884 3.85252,3.49754 1.01422,0.8887 2.51507,2.30725 3.33518,3.15233 2.14163,2.20681 2.39554,2.18151 13.99268,-1.39404 1.30552,-0.40251 2.538,-0.72872 2.73884,-0.72491 0.20085,0.004 1.67983,-0.39416 3.28662,-0.88437 1.60678,-0.4902 5.05773,-1.49251 7.66876,-2.22735 2.61103,-0.73485 5.40465,-1.54635 6.20804,-1.80334 1.52389,-0.48747 8.40273,-2.43974 11.86832,-3.36833 1.10467,-0.296 3.07663,-0.85869 4.38215,-1.25044 10.75145,-3.226219 13.47803,-3.900059 14.01462,-3.463579 0.46743,0.38023 4.60951,7.271679 4.60951,7.669129 0,0.10248 1.16894,2.12187 2.59763,4.48751 1.42869,2.36565 2.74578,4.63264 2.92687,5.03776 0.18106,0.40513 0.65298,1.22958 1.04872,1.83213 0.39575,0.60254 0.88589,1.42419 1.08926,1.82589 0.20333,0.4017 0.57552,1.05279 0.82706,1.44688 1.32698,2.079 2.35715,3.86093 3.22102,5.57151 0.5294,1.04824 1.13074,2.11639 1.33634,2.37367 0.20559,0.25728 0.99478,1.61809 1.7537,3.02403 0.75891,1.40594 1.90726,3.3779 2.55187,4.38215 0.64461,1.00424 1.64637,2.72403 2.22609,3.82176 0.57973,1.09772 1.25947,2.21869 1.51053,2.49104 0.25106,0.27235 0.45647,0.63204 0.45647,0.79932 0,0.16728 1.52927,2.90808 3.39836,6.09067 5.56153,9.4698 6.46148,11.13852 6.46148,11.98118 0,0.52537 -0.97828,1.73775 -2.83014,3.50742 -7.77251,7.42752 -20.76298,19.96029 -24.38856,23.52921 -2.24439,2.20933 -7.22773,7.05363 -11.07405,10.76511 -3.84632,3.71148 -7.0848,7.03643 -7.19666,7.38879 -0.11181,0.35235 0.0746,1.67045 0.41434,2.9291 0.33972,1.25865 0.75519,3.02795 0.9232,3.93176 0.41182,2.2148 1.29964,6.424 1.73307,8.21653 0.89038,3.68215 2.12863,12.17369 2.84891,19.53708 1.20166,12.28397 0.89126,33.24892 -0.62449,42.17818 -0.20458,1.20509 -0.52075,3.42355 -0.70268,4.92992 -0.40414,3.34667 -1.06453,6.79914 -2.75911,14.42457 -0.71415,3.21357 -1.44965,6.54285 -1.63447,7.39839 -0.19344,0.89558 -0.20132,1.90262 -0.0186,2.37366 0.17459,0.44998 2.92249,3.31243 6.10637,6.36102 3.18389,3.04858 7.18571,6.91565 8.89292,8.59348 1.70721,1.67783 7.03002,6.82491 11.82844,11.43795 4.79845,4.61304 11.00715,10.61986 13.79712,13.34848 5.25946,5.14384 5.3922,5.36634 4.12156,6.90718 -0.24843,0.30127 -1.0294,1.69808 -1.73544,3.10402 -0.70608,1.40594 -1.71032,3.1798 -2.23165,3.94189 -0.52133,0.76209 -0.94786,1.4448 -0.94786,1.51706 0,0.0723 -1.56114,2.76667 -3.4692,5.98755 -1.90806,3.22088 -3.4692,5.96531 -3.4692,6.09875 0,0.13344 -0.45359,0.92376 -1.00797,1.75629 -0.55441,0.8325 -1.56698,2.58182 -2.25019,3.88733 -0.68322,1.30552 -1.54427,2.76558 -1.91347,3.24458 -0.36919,0.47897 -0.67123,1.09521 -0.67123,1.36942 0,0.27418 -0.12829,0.49851 -0.28514,0.49851 -0.1568,0 -0.48722,0.45191 -0.73426,1.00424 -0.24701,0.55233 -0.65279,1.3329 -0.9017,1.7346 -0.24891,0.4017 -1.35639,2.2915 -2.46105,4.19956 -1.10467,1.90806 -2.2074,3.79786 -2.4505,4.19956 -0.2431,0.4017 -0.64943,1.14118 -0.90298,1.6433 -0.25351,0.50213 -1.1055,1.9811 -1.89327,3.28662 -0.78776,1.30551 -1.88118,3.19531 -2.42983,4.19956 -2.34762,4.2972 -4.83716,8.44644 -5.43558,9.05936 -0.5994,0.61383 -0.79634,0.62285 -2.80443,0.12799 -1.18789,-0.29269 -3.06359,-0.80328 -4.16826,-1.13461 -1.10467,-0.33133 -2.74797,-0.7576 -3.65179,-0.94727 -0.90382,-0.18968 -1.97197,-0.49628 -2.37367,-0.68128 -0.40169,-0.18504 -1.42876,-0.51476 -2.28236,-0.73273 -0.85361,-0.21802 -2.25042,-0.57472 -3.10403,-0.79273 -0.8536,-0.21798 -1.88067,-0.5477 -2.28237,-0.73274 -0.40169,-0.185 -1.46984,-0.49083 -2.37366,-0.67956 -0.90382,-0.18876 -3.36878,-0.86419 -5.47769,-1.50099 -4.46763,-1.34901 -6.52673,-1.94597 -10.04242,-2.91128 -6.25785,-1.71828 -8.88243,-2.47668 -10.51164,-3.03745 -0.96108,-0.33082 -2.11961,-0.60145 -2.57451,-0.60145 -0.45494,0 -0.98329,-0.14702 -1.17409,-0.32669 -0.19081,-0.17971 -1.08641,-0.49369 -1.99023,-0.69779 -0.90382,-0.20409 -2.79311,-0.7144 -4.19839,-1.13402 -1.40532,-0.41963 -2.73778,-0.76294 -2.96105,-0.76294 -0.22327,0 -1.29197,0.82823 -2.37484,1.84051 -5.50229,5.14362 -8.50651,7.81976 -11.82869,10.53698 -2.00849,1.64276 -4.39128,3.60465 -5.2951,4.3598 -0.90382,0.75512 -2.46496,1.94049 -3.4692,2.63415 -1.00424,0.69366 -1.90806,1.365 -2.00849,1.49194 -0.25982,0.32833 -7.28291,5.06434 -7.51001,5.06434 -0.19493,0 -2.39244,1.49091 -2.715,1.84203 -0.24372,0.26531 -8.3454,5.09637 -8.54654,5.09637 -0.0866,0 -1.36237,0.70531 -2.83514,1.56735 -3.32342,1.94531 -7.30168,3.88853 -16.73711,8.1753 -5.44967,2.47595 -14.436,5.74868 -22.09333,8.04617 -1.00424,0.30131 -2.48322,0.76545 -3.28661,1.03145 -0.8034,0.26596 -1.89955,0.57698 -2.43586,0.69114 -0.74317,0.15819 -1.03057,0.48999 -1.20812,1.39476 -0.1281,0.65294 -0.37157,1.51582 -0.54101,1.91752 -0.16941,0.4017 -0.6666,2.20933 -1.10481,4.01697 -1.32159,5.45165 -2.23121,9.06834 -2.57156,10.22501 -0.43529,1.4793 -2.73774,11.02633 -3.47873,14.42457 -0.32848,1.50637 -0.73576,3.14967 -0.9051,3.65179 -0.16929,0.50212 -0.40984,1.48811 -0.53451,2.19108 -0.12467,0.70297 -0.36693,1.60679 -0.53831,2.00848 -0.17141,0.4017 -1.15009,4.26347 -2.1749,8.58171 -1.81775,7.65978 -2.57622,10.54257 -3.45872,13.14645 l -0.43317,1.27812 -36.15667,0.093 c -28.56425,0.0735 -36.27697,-0.004 -36.72963,-0.36518 z M 243.57355,333.55178 c 1.86535,-4.5693 3.54994,-8.51323 3.74354,-8.76429 0.27333,-0.35446 4.45361,-0.45648 18.70412,-0.45648 14.24149,0 18.43474,0.10225 18.72102,0.45648 0.2029,0.25106 1.8856,4.19499 3.73933,8.76429 l 3.37042,8.30783 h 13.28325 13.28326 l -0.5499,-1.36943 c -0.30244,-0.75318 -8.8082,-20.1031 -18.90168,-42.99983 l -18.3518,-41.63041 h -14.55183 -14.55182 l -18.32361,41.44782 c -10.07798,22.7963 -18.60268,42.14623 -18.94376,42.99984 l -0.62016,1.55201 h 13.27903 13.27904 z m 10.40371,-24.54703 c -0.12031,-0.19466 2.18663,-6.31597 5.12652,-13.60292 6.5435,-16.21901 6.75572,-16.7182 7.10739,-16.7182 0.35238,0 12.04471,29.15888 12.04403,30.03598 -3.7e-4,0.59569 -0.81696,0.63906 -12.02985,0.63906 -7.3706,0 -12.11407,-0.13706 -12.24809,-0.35392 z m 102.06059,16.82605 c 0,-14.27931 0.063,-16.053 0.57764,-16.25047 0.3177,-0.12191 5.22607,-0.22166 10.90753,-0.22166 7.4968,0 11.18288,-0.14875 13.43998,-0.54235 14.09277,-2.45758 22.88855,-11.6741 23.54539,-24.67174 0.7304,-14.45257 -8.39875,-25.28352 -23.53571,-27.92319 -2.54936,-0.44457 -7.48435,-0.54404 -26.99116,-0.54404 h -23.87139 v 43.09113 43.09113 h 12.96386 12.96386 z m 0.16499,-33.3671 c -0.0975,-0.25406 -0.1334,-4.8964 -0.0798,-10.31631 l 0.0974,-9.85439 3.83438,-0.11302 c 8.07111,-0.2379 13.61055,1.02366 15.81784,3.60239 1.5848,1.85148 2.07593,3.56585 2.07593,7.24621 0,7.69062 -3.69835,9.85387 -16.901,9.88576 -3.43498,0.008 -4.71428,-0.1107 -4.84475,-0.45064 z m 88.9387,6.30478 v -43.09113 h -12.96386 -12.96385 v 43.09113 43.09113 h 12.96385 12.96386 z m -81.74055,-76.85082 c 5.12339,-1.08589 9.63912,-4.26442 11.30116,-7.95467 0.71013,-1.57674 0.86452,-2.51847 0.85437,-5.21114 -0.0106,-2.85636 -0.14351,-3.53924 -1.01374,-5.21635 -0.55076,-1.06136 -1.66788,-2.57659 -2.48256,-3.36719 -2.60383,-2.52694 -4.90683,-3.36164 -16.09084,-5.832 -4.98178,-1.1004 -7.26363,-2.84669 -7.34222,-5.61898 -0.10696,-3.7738 5.41765,-6.66131 10.86437,-5.6784 4.03797,0.72868 6.11722,2.33068 7.00972,5.40078 0.73032,2.51227 1.95141,3.69649 3.81156,3.69649 2.90346,0 3.94046,-2.06616 3.94046,-7.85135 0,-4.04758 -0.44705,-6.03951 -1.57279,-7.00781 -1.16748,-1.00424 -3.1099,-1.11348 -4.42911,-0.2491 -0.85718,0.56164 -1.02272,0.54265 -2.99987,-0.34411 -4.04093,-1.81232 -10.69971,-1.93285 -15.06057,-0.2726 -5.62277,2.14067 -9.23377,7.07827 -9.18852,12.56418 0.0456,5.52777 3.45815,9.89398 9.30165,11.90103 1.16467,0.40003 4.53344,1.23646 7.48617,1.85874 2.95273,0.62229 6.10784,1.49112 7.0114,1.93074 1.82181,0.88643 3.28786,2.77432 3.28578,4.23122 -0.006,4.15106 -7.95025,7.09819 -14.416,5.348 -3.70861,-1.00388 -5.46114,-2.31574 -6.75665,-5.05769 -0.7129,-1.50882 -1.42588,-2.47446 -2.03044,-2.74992 -2.29476,-1.04556 -4.59582,0.0131 -5.26492,2.42222 -0.48976,1.76343 -0.48352,7.90299 0.01,9.67963 0.73242,2.63752 4.01471,3.58163 5.99244,1.72365 l 0.79965,-0.75123 1.70108,0.75246 c 4.63763,2.05144 10.43864,2.67921 15.27858,1.6534 z m -99.58852,-1.08399 c 1.4382,-0.60092 2.09918,-1.64553 2.09918,-3.31753 0,-2.57954 -1.13223,-3.4425 -4.96635,-3.78521 l -2.59285,-0.23176 v -4.56473 -4.56474 l 3.83438,-0.0947 3.83438,-0.0948 2.43039,1.83254 c 2.60273,1.96249 6.57711,6.54893 10.28473,11.86858 l 2.29066,3.28661 h 3.51451 c 3.086,0 3.65165,-0.10151 4.63931,-0.83258 l 1.12481,-0.83259 1.12582,0.83259 1.12583,0.83258 19.09409,0.10066 19.09409,0.10065 0.23011,-1.15054 c 0.32432,-1.62158 0.25735,-8.03286 -0.11776,-11.27443 -0.37089,-3.20508 -1.32509,-4.39198 -3.53088,-4.39198 -2.65293,0 -3.78711,1.5498 -3.79499,5.18566 -0.003,1.26528 -0.10408,2.67025 -0.22519,3.12216 l -0.22019,0.82165 h -9.44511 -9.44511 l -0.2038,-0.82165 c -0.11208,-0.45191 -0.1563,-2.87578 -0.0983,-5.38639 l 0.10555,-4.56474 1.71118,-0.33071 c 1.02425,-0.19795 2.3436,-0.19736 3.28661,0.001 1.48711,0.31357 1.58679,0.41401 1.77802,1.79143 0.27935,2.01209 0.85177,2.92124 2.18765,3.47458 1.5522,0.64295 3.52601,0.10929 4.51317,-1.22023 0.70928,-0.95525 0.76535,-1.50372 0.76535,-7.48617 0,-7.1462 -0.29188,-8.48913 -2.04178,-9.39404 -2.66411,-1.37765 -5.44439,0.38693 -5.44439,3.45545 0,1.41512 -0.82534,1.85688 -3.4692,1.85688 -3.47639,0 -3.4692,0.0117 -3.4692,-5.66027 0,-4.47492 0.0618,-4.93732 0.70635,-5.28225 1.06965,-0.57246 15.79191,-0.50263 16.53986,0.0785 0.43536,0.33822 0.62008,1.24564 0.7131,3.50294 0.11986,2.90869 0.17928,3.09449 1.31389,4.10826 1.60686,1.43574 3.304,1.43466 4.91415,-0.003 l 1.1926,-1.06492 0.11874,-7.11387 0.11874,-7.11387 -4.13571,-0.25132 c -2.27464,-0.13807 -10.46244,-0.19614 -18.19511,-0.12888 -15.78739,0.13732 -15.9691,0.16623 -16.79614,2.67219 -0.8587,2.6019 0.84454,4.93627 3.60169,4.93627 2.39047,0 2.23908,-1.02412 2.23908,15.14754 v 14.70422 l -1.84932,0.1777 c -1.09189,0.10491 -2.28843,0.50234 -2.92143,0.97034 l -1.07211,0.79264 -1.05753,-0.78186 c -0.58164,-0.43003 -1.77304,-0.86385 -2.64755,-0.96405 -1.51642,-0.17375 -1.68299,-0.31833 -3.59851,-3.12352 -1.10466,-1.61774 -3.19988,-4.21081 -4.65603,-5.76238 -1.45615,-1.55156 -2.63869,-2.96242 -2.62786,-3.13523 0.0108,-0.17282 0.99091,-1.00668 2.17795,-1.85302 1.18704,-0.84635 2.72322,-2.31732 3.41373,-3.26884 3.49982,-4.82267 2.75501,-11.5065 -1.75783,-15.77455 -4.03346,-3.81469 -6.26612,-4.37462 -18.64329,-4.6756 -11.8411,-0.28795 -14.15592,-0.0818 -15.62965,1.39192 -0.96515,0.96516 -1.05711,1.25397 -0.88513,2.77981 0.13086,1.16094 0.45054,1.91216 1.00466,2.36086 0.8167,0.66133 1.20681,0.78585 3.73722,1.19289 l 1.37355,0.22096 -0.0954,14.68113 -0.0954,14.68113 -0.91295,0.0959 c -3.27807,0.34441 -5.11251,1.75134 -5.11251,3.92105 0,1.30213 1.13403,2.99212 2.33281,3.47648 0.42417,0.17138 4.18635,0.32202 8.36041,0.33475 5.7608,0.0176 7.88722,-0.10137 8.8262,-0.4937 z m -5.39916,-24.55878 c -0.1339,-0.13389 -0.24345,-2.83957 -0.24345,-6.0126 0,-7.13252 -0.41877,-6.72339 6.55678,-6.4059 5.90185,0.26863 7.28514,0.6167 9.1514,2.30275 3.40899,3.07982 2.4203,6.39843 -2.58953,8.69201 -1.11877,0.51219 -2.90727,1.09684 -3.97444,1.29923 -2.17262,0.41202 -8.52439,0.50089 -8.90076,0.12451 z m 156.17695,24.73282 c 2.57962,-0.98077 3.24611,-3.84759 1.37997,-5.93613 -1.03608,-1.1596 -1.11149,-1.18029 -4.83862,-1.32758 -2.25341,-0.0891 -3.89471,-0.31673 -4.0544,-0.56241 -0.14757,-0.22703 -0.27082,-6.7748 -0.27389,-14.55062 -0.007,-16.33174 -0.39943,-14.89726 4.07869,-14.8889 4.53662,0.008 4.31485,-0.22869 4.31485,4.61407 0,4.5374 0.42977,6.19376 1.86858,7.20154 1.73654,1.21632 4.31371,0.51354 5.23481,-1.42749 0.45826,-0.9657 0.56537,-2.74626 0.56537,-9.39841 v -8.20698 l -1.14119,-0.22824 c -1.46933,-0.29387 -36.95572,-0.30005 -37.72051,-0.007 -0.50278,0.19293 -0.57764,1.27441 -0.57764,8.34462 0,5.00317 0.15545,8.56892 0.40476,9.28409 0.73503,2.1085 3.74535,2.91403 5.55887,1.4875 1.29572,-1.01923 1.70071,-2.76346 1.70308,-7.33567 0.004,-3.71739 0.0371,-3.89248 0.8237,-4.10328 1.0626,-0.28476 5.32804,-0.28476 6.39063,0 l 0.82166,0.2202 v 14.74716 14.74716 l -3.01273,0.002 c -3.70325,0.003 -5.57932,0.4911 -6.33933,1.65102 -0.68493,1.04538 -0.75687,3.04206 -0.15038,4.1753 0.88611,1.6557 2.02496,1.81085 13.40434,1.82611 5.86174,0.008 11.06346,-0.13997 11.55938,-0.32852 z M 91.100439,461.26727 c -5.09758,-0.74281 -8.463,-1.39133 -9.49466,-1.82969 -0.4017,-0.17068 -2.094637,-0.8868 -3.762087,-1.59141 -1.66746,-0.70462 -3.84731,-1.78292 -4.84411,-2.39627 -0.99681,-0.61332 -1.93316,-1.12607 -2.08077,-1.1394 -0.14762,-0.0135 -1.00789,-0.58702 -1.91171,-1.27484 -0.90382,-0.68781 -2.05319,-1.53967 -2.55415,-1.89294 -0.95333,-0.67229 -6.08677,-5.74788 -7.68719,-7.60054 -1.56756,-1.81462 -4.36582,-5.5692 -4.36582,-5.85788 0,-0.15009 -0.22325,-0.53232 -0.49611,-0.8494 -0.27286,-0.31709 -1.11316,-1.72683 -1.86734,-3.13277 -0.75418,-1.40593 -1.51692,-2.71236 -1.69497,-2.90317 -0.17805,-0.1908 -0.32474,-0.60163 -0.32598,-0.91295 -0.001,-0.31131 -0.23232,-1.00701 -0.51351,-1.54598 -0.79899,-1.53145 -2.67378,-7.15474 -3.32577,-9.97541 -1.3055,-5.6479 -1.36884,-8.1171 -1.62046,-63.17598 -0.22034,-48.21314 -0.3185,-54.97377 -0.81923,-56.42016 -0.31289,-0.90382 -0.93667,-2.87579 -1.38619,-4.38215 -0.44951,-1.50636 -0.94192,-2.90317 -1.09423,-3.10402 -0.15232,-0.20085 -0.89789,-1.50428 -1.65684,-2.89651 -0.75893,-1.39223 -1.80645,-3.02668 -2.32781,-3.63213 -2.55293,-2.96465 -3.90494,-4.44995 -4.26366,-4.68397 -0.21686,-0.14148 -1.28501,-0.98492 -2.37366,-1.87431 -1.94934,-1.59256 -5.89537,-3.89176 -6.68681,-3.89616 -0.22278,-0.001 -0.8579,-0.23847 -1.41137,-0.52718 -1.55086,-0.80899 -5.26082,-1.69612 -8.48835,-2.02974 -5.96286,-0.61636 -8.81571,-1.67258 -11.34246,-4.19933 -0.87801,-0.878 -1.69554,-2.05824 -1.81674996,-2.62274 -0.1212,-0.5645 -0.37333,-1.40383 -0.56028,-1.86519 -0.53909,-1.3304 -0.39645,-4.60829 0.29916,-6.87468 0.73899996,-2.40775 2.96575996,-4.95984 5.12005996,-5.86808 1.65829,-0.69912 5.11842,-1.43433 9.03063,-1.91884 2.86251,-0.3545 6.21793,-1.14408 7.66876,-1.80455 0.4017,-0.18287 1.30552,-0.54322 2.00848,-0.80078 1.72475,-0.63193 4.71123,-2.32197 5.90135,-3.33956 0.53429,-0.45683 1.64557,-1.3817 2.46952,-2.05526 2.28348,-1.86671 6.10426,-6.84045 7.70922,-10.03557 0.79045,-1.57361 1.97369,-4.61373 2.62942,-6.75581 l 1.19224,-3.8947 0.2318,-54.77686 c 0.22473,-53.10773 0.33254,-57.9198 1.4048,-62.70517 1.49987,-6.693779 6.00184,-17.454399 8.06522,-19.277528 0.11366,-0.100425 0.84869,-1.168573 1.63341,-2.373664 0.78471,-1.205091 2.99235,-3.802237 4.90585,-5.771432 7.26551,-7.476964 15.31027,-12.433083 23.746537,-14.629474 8.65511,-2.253363 15.723841,-2.708036 19.595891,-1.260434 2.84676,1.064296 4.58036,2.330262 5.90875,4.314901 3.66837,5.480607 1.56281,12.672761 -4.47376,15.281395 -1.20034,0.518715 -5.517391,1.358773 -8.797381,1.711887 -3.27878,0.352985 -7.64492,1.683387 -11.11769,3.38765 -3.58011,1.75695 -8.846697,6.16235 -11.985307,10.02551 -2.14504,2.64023 -5.92874,11.386399 -5.92874,13.704539 0,0.54664 -0.19979,1.56796 -0.44398,2.26961 -0.33736,0.96935 -0.49396,14.64946 -0.6521,56.96552 -0.16465,44.05921 -0.30845,56.1474 -0.68855,57.88087 -0.26424,1.2051 -0.72367,3.42356 -1.02095,4.92992 -0.29728,1.50637 -0.77363,3.2785 -1.05854,3.93807 -0.28491,0.65957 -0.51802,1.37798 -0.51802,1.59647 0,0.7649 -3.66761,7.80546 -4.65917,8.94403 -0.55061,0.63223 -1.24761,1.51877 -1.54888,1.97007 -1.57942,2.36594 -5.49802,6.43241 -9.31033,9.66166 -3.71804,3.1494 -4.93165,4.27512 -4.93165,4.57447 0,0.15945 1.32638,1.38725 2.94751,2.72845 3.07226,2.54174 10.92929,10.23115 10.92929,10.69613 0,0.14705 0.37627,0.67652 0.83615,1.17658 1.15627,1.25732 3.546,5.26565 3.546,5.94777 0,0.30847 0.13856,0.61564 0.30791,0.68259 0.32091,0.12686 2.42703,5.7511 2.9857,7.97307 0.51409,2.04468 1.00401,4.37577 1.49661,7.121 0.34851,1.94223 0.50809,15.84549 0.66437,57.88087 0.11313,30.42855 0.33787,55.5288 0.49942,55.77833 0.16155,0.24956 0.45649,1.48204 0.65541,2.73884 2.12786,13.44399 15.038237,25.74523 28.447767,27.10556 9.749141,0.98905 13.478901,2.86808 15.042211,7.5783 1.13453,3.41834 0.7379,6.39838 -1.2572,9.44591 -1.56271,2.38706 -3.84576,3.7517 -7.49308,4.47881 -3.633771,0.72441 -5.481481,0.70231 -11.221841,-0.13417 z m 464.142591,0.0329 c -3.82829,-1.31735 -5.03498,-2.23928 -6.87527,-5.25285 -1.45969,-2.39031 -1.2526,-8.1925 0.38406,-10.76076 0.74935,-1.17588 2.68527,-2.98775 3.20459,-2.99926 0.20085,-0.004 0.82023,-0.24543 1.37644,-0.53557 1.06669,-0.55642 4.13492,-1.0978 9.57894,-1.69019 1.80763,-0.19672 3.7796,-0.57691 4.38214,-0.84492 0.60255,-0.26796 1.99936,-0.79539 3.10403,-1.17204 4.82847,-1.64626 9.78983,-5.36594 13.82842,-10.36754 0.72959,-0.90353 1.49654,-1.8248 1.70436,-2.04723 0.20782,-0.22243 0.78298,-1.20863 1.27813,-2.19159 0.49514,-0.98291 1.02352,-1.84189 1.17416,-1.90882 0.15063,-0.067 0.2749,-0.31347 0.27614,-0.54777 0,-0.23434 0.21597,-0.83688 0.47722,-1.339 0.59389,-1.14159 1.62811,-4.25295 2.36702,-7.121 0.49189,-1.9093 0.59447,-9.35274 0.79762,-57.88087 0.23949,-57.20884 0.26771,-58.26883 1.69337,-63.54116 1.33992,-4.95522 2.99557,-9.56673 3.5181,-9.79897 0.15064,-0.067 0.27389,-0.28477 0.27389,-0.48405 0,-0.61753 2.8102,-5.15096 4.26507,-6.88039 2.6004,-3.09122 7.96667,-8.46526 10.33508,-10.35008 4.37871,-3.48467 4.41695,-3.59546 1.9341,-5.60206 -3.70822,-2.99687 -10.27015,-9.27317 -11.97364,-11.45242 -3.11169,-3.98078 -5.51957,-8.65288 -6.94647,-13.47856 -0.50757,-1.71653 -1.07798,-3.61395 -1.26758,-4.21649 -0.1896,-0.60255 -0.67762,-3.04275 -1.08451,-5.42268 -0.7198,-4.21042 -0.73974,-5.76857 -0.73974,-57.76274 0,-51.80835 -0.0219,-53.54484 -0.7232,-57.02294 -1.24997,-6.20033 -2.43867,-9.161959 -5.69029,-14.177529 -1.28664,-1.98449 -4.85053,-5.77838 -7.46331,-7.94479 -1.90368,-1.57846 -8.6359,-5.018926 -9.82087,-5.018926 -0.44308,0 -1.24935,-0.225845 -1.79172,-0.50188 -0.54233,-0.276031 -2.13641,-0.617032 -3.54234,-0.757772 -4.03377,-0.403804 -8.82912,-1.285558 -10.3196,-1.897536 -1.73511,-0.712439 -3.58237,-2.455559 -4.58753,-4.328982 -0.65418,-1.219198 -0.78236,-2.064507 -0.77527,-5.112506 0.008,-3.312715 0.0976,-3.790942 0.96922,-5.150424 1.46324,-2.282478 3.61878,-3.924422 6.19968,-4.722477 3.78549,-1.170548 10.81131,-0.913838 17.0952,0.624628 0.90382,0.22128 2.1363,0.475646 2.73885,0.565254 0.60254,0.08961 2.53317,0.739454 4.2903,1.444096 9.4302,3.781678 14.78738,8.007318 23.12727,18.242304 2.04069,2.504409 5.36751,8.484851 7.48964,13.463621 1.45874,3.4225 3.02284,10.009149 3.64211,15.337519 0.16342,1.40594 0.30726,25.83378 0.31968,54.28409 0.0219,50.18254 0.0445,51.85165 0.75818,55.8724 0.9705,5.4679 1.381,6.84493 3.14058,10.53518 1.4896,3.12409 4.27395,7.0929 6.68877,9.53419 1.97032,1.99194 6.0421,4.96595 8.49249,6.2029 3.05648,1.54292 8.46901,3.25222 10.2982,3.25222 1.88352,0 7.58093,1.21539 9.54961,2.03715 2.2151,0.92462 3.93017,2.46106 4.92345,4.41073 0.77064,1.51261 0.90108,2.27087 0.90108,5.23785 0,2.94627 -0.13285,3.72986 -0.88139,5.19844 -1.06746,2.09433 -1.85665,2.86798 -4.23257,4.14937 -1.92446,1.0379 -7.38382,2.32785 -9.87875,2.33416 -3.07007,0.008 -10.60521,2.84447 -14.37469,5.41153 -3.6033,2.45389 -7.6122,6.71274 -9.80291,10.41407 -1.04923,1.77274 -1.90872,3.33388 -1.90996,3.4692 0,0.13532 -0.26274,0.73903 -0.58118,1.34158 -0.98383,1.86174 -1.89612,5.30419 -2.49487,9.41441 -0.49931,3.42752 -0.57588,10.65457 -0.59224,55.8724 -0.0102,28.5646 -0.15626,53.00381 -0.32436,54.30932 -0.27016,2.09821 -0.77228,4.81752 -1.78689,9.67725 -0.65615,3.14295 -4.1836,10.97764 -6.84473,15.20266 -3.69248,5.86243 -11.53729,13.6566 -17.50074,17.38767 -2.84839,1.78214 -8.17782,4.30166 -10.59019,5.0066 -1.20509,0.35214 -2.93056,0.857 -3.83438,1.12194 -5.3815,1.57739 -14.10559,2.04522 -17.346,0.93019 z"
     id="path838"
     inkscape:connector-curvature="0" />
</svg>
